{
.appVersion = "3223";
.formatVersion = 3;
customParameters = (
{
name = vendorID;
value = "    ";
},
{
name = panose;
value = (
0,
0,
0,
0,
0,
0,
0,
0,
0,
0
);
},
{
name = unicodeRanges;
value = (
0,
1,
5,
31,
33,
35
);
},
{
name = codePageRanges;
value = (
"1252"
);
},
{
name = fsType;
value = (
2
);
},
{
name = glyphOrder;
value = (
.notdef,
uni0000,
uni000D,
space,
A,
B,
C,
D,
E,
F,
G,
H,
I,
J,
K,
L,
N,
O,
P,
Q,
R,
S,
T,
U,
V,
W,
X,
Y,
Z,
at,
a,
b,
c,
d,
e,
f,
g,
h,
i,
j,
k,
l,
n,
o,
q,
p,
r,
s,
t,
u,
v,
w,
x,
y,
z,
one,
two,
three,
four,
five,
six,
zero,
eight,
seven,
nine,
m,
M,
A.ss01,
B.ss01,
C.ss01,
D.ss01,
E.ss01,
F.ss01,
G.ss01,
H.ss01,
I.ss01,
J.ss01,
K.ss01,
L.ss01,
M.ss01,
N.ss01,
O.ss01,
P.ss01,
Q.ss01,
R.ss01,
S.ss01,
T.ss01,
W.ss01,
Y.ss01,
Z.ss01,
a.ss01,
b.ss01,
c.ss01,
d.ss01,
e.ss01,
f.ss01,
g.ss01,
h.ss01,
i.ss01,
j.ss01,
k.ss01,
m.ss01,
n.ss01,
p.ss01,
q.ss01,
r.ss01,
u.ss01,
v.ss01,
w.ss01,
x.ss01,
y.ss01,
z.ss01,
one.ss01,
six.ss01,
eight.ss01,
C.ss02,
E.ss02,
s.ss01,
t.ss01,
V.ss01,
X.ss01,
period,
comma,
exclam,
numbersign,
less,
greater,
equal,
dollar,
slash,
backslash,
tilde,
asciicircum,
asterisk,
g.ss02,
hyphen,
plus,
colon,
semicolon,
question,
quotesingle,
quotedbl,
Euro,
parenleft,
parenright,
ampersand,
braceleft,
bar,
braceright,
bracketleft,
bracketright,
quoteleft,
quoteright,
quotedblleft,
quotedblright,
quotesinglbase,
quotedblbase,
bullet,
underscore,
endash,
emdash,
macron,
logicalnot,
trademark,
registered,
copyright,
cent,
sterling,
A.ss02,
B.ss02,
F.ss02,
G.ss02,
K.ss02,
P.ss02,
R.ss02,
Y.ss02,
a.ss02,
b.ss02,
c.ss02,
d.ss02,
f.ss02,
g.ss03,
h.ss02,
i.ss02,
n.ss02,
p.ss02,
q.ss02,
s.ss02,
u.ss02,
v.ss02,
y.ss03,
i.ss03,
S.ss02,
V.ss02,
Q.ss02,
Q.ss03,
period.ss01
);
}
);
date = "2021-06-14 03:32:39 +0000";
familyName = Madimi;
features = (
{
automatic = 1;
code = "";
tag = aalt;
},
{
code = "script DFLT;
language dflt;
lookup SUB_2 {
	sub A from [A.ss01 A.ss02];
	sub B from [B.ss01 B.ss02];
	sub C from [C.ss01 C.ss02];

glyphs = (
{
glyphname = A;
layers = (
{
hints = (
{
horizontal = 1;
place = (652,72);
type = Stem;
},
{
horizontal = 1;
place = (313,73);
type = Stem;
},
{
horizontal = 1;
place = (-24,21);
target = up;
type = BottomGhost;
},
{
place = (410,91);
type = Stem;
},
{
place = (73,90);
type = Stem;
}
);
layerId = m01;
shapes = (
{
closed = 1;
nodes = (
(501,688,ls),
(501,724,o),
(457,724,o),
(432,724,cs),
(233,724,ls),
(149,724,o),
(73,660,o),
(73,573,cs),
(73,12,ls),
(73,-11,o),
(97,-24,o),
(118,-24,cs),
(135,-24,o),
(152,-16,o),
(160,0,cs),
(164,7,o),
(163,19,o),
(163,28,cs),
(163,232,ls),
(163,289,o),
(200,313,o),
(252,313,cs),
(410,313,l),
(410,3,ls),
(410,-17,o),
(437,-24,o),
(456,-24,cs),
(476,-24,o),
(501,-11,o),
(501,12,cs)
);
},
{
closed = 1;
nodes = (
(212,386,ls),
(195,386,o),
(178,382,o),
(162,374,c),
(162,428,o),
(162,481,o),
(162,534,cs),
(162,551,o),
(162,583,o),
(167,599,cs),
(176,628,o),
(202,652,o),
(234,652,cs),
(411,652,l),
(411,630,o),
(411,608,o),
(411,585,cs),
(410,453,ls),
(410,430,o),
(410,408,o),
(410,386,c)
);
}
);
width = 573;
}
);
note = A;
unicode = 65;
},
{
glyphname = B;
layers = (
{
hints = (
{
horizontal = 1;
place = (653,72);
type = Stem;
},
{
horizontal = 1;
place = (315,72);
type = Stem;
},
{
horizontal = 1;
place = (-24,72);
type = Stem;
},
{
place = (389,90);
type = Stem;
},
{
place = (51,90);
type = Stem;
}
);
layerId = m01;
shapes = (
{
closed = 1;
nodes = (
(51,12,ls),
(51,-11,o),
(76,-24,o),
(96,-24,cs),
(319,-24,ls),
(403,-24,o),
(479,40,o),
(479,127,cs),
(479,235,ls),
(479,282,o),
(456,323,o),
(422,350,c),
(456,377,o),
(479,418,o),
(479,466,cs),
(479,574,ls),
(479,660,o),
(403,724,o),
(319,724,cs),
(220,725,ls),
(132,725,o),
(51,667,o),
(51,574,cs)
);
},
{
closed = 1;
nodes = (
(141,573,ls),
(141,620,o),
(174,653,o),
(222,653,cs),
(287,653,o),
(389,670,o),
(389,573,cs),
(389,466,ls),
(389,405,o),
(351,395,o),
(318,387,c),
(307,387,o),
(296,387,o),
(285,387,cs),
(249,387,o),
(211,390,o),
(176,382,cs),
(164,379,o),
(152,375,o),
(141,370,c)
);
},
{
closed = 1;
nodes = (
(356,315,o),
(389,281,o),
(389,234,cs),
(389,128,ls),
(389,88,o),
(360,48,o),
(318,48,cs),
(141,48,l),
(141,236,l),
(146,255,o),
(149,278,o),
(165,293,cs),
(195,323,o),
(268,315,o),
(309,315,cs)
);
}
);
width = 529;
}
);
note = B;
unicode = 66;
},
{
glyphname = C;
layers = (
{
hints = (
{
horizontal = 1;
place = (659,72);
type = Stem;
},
{
horizontal = 1;
place = (-24,71);
type = Stem;
},
{
place = (51,90);
type = Stem;
}
);
layerId = m01;
shapes = (
{
closed = 1;
nodes = (
(141,579,ls),
(141,618,o),
(170,659,o),
(212,659,cs),
(318,659,ls),
(352,659,o),
(382,630,o),
(387,597,cs),
(392,566,o),
(395,544,o),
(434,544,cs),
(455,544,o),
(479,557,o),
(479,580,cs),
(479,666,o),
(403,731,o),
(319,731,cs),
(211,731,ls),
(127,731,o),
(51,666,o),
(51,580,cs),
(51,127,ls),
(51,41,o),
(127,-24,o),
(211,-24,cs),
(433,-24,ls),
(453,-24,o),
(478,-11,o),
(478,12,cs),
(478,47,o),
(438,48,o),
(413,48,cs),
(264,47,ls),
(205,47,o),
(141,48,o),
(141,128,cs)
);
}
);
width = 520;
}
);
note = C;
unicode = 67;
},
{
glyphname = D;
layers = (
{
hints = (
{
horizontal = 1;
place = (652,72);
type = Stem;
},
{
horizontal = 1;
place = (-25,73);
type = Stem;
},
{
place = (389,90);
type = Stem;
},
{
place = (51,90);
type = Stem;
}
);
layerId = m01;
shapes = (
{
closed = 1;
nodes = (
(141,48,l),
(141,652,l),
(317,652,ls),
(360,652,o),
(389,612,o),
(389,573,cs),
(389,127,ls),
(389,88,o),
(360,48,o),
(317,48,cs)
);
},
{
closed = 1;
nodes = (
(479,573,ls),
(479,660,o),
(403,724,o),
(319,724,cs),
(114,724,ls),
(89,724,o),
(51,722,o),
(51,688,cs),
(51,12,ls),
(51,-22,o),
(90,-25,o),
(115,-25,cs),
(319,-24,ls),
(403,-24,o),
(479,40,o),
(479,127,cs)
);
}
);
width = 529;
}
);
note = D;
unicode = 68;
},
{
glyphname = E;
layers = (
{
hints = (
{
horizontal = 1;
place = (652,72);
type = Stem;
},
{
horizontal = 1;
place = (314,72);
type = Stem;
},
{
horizontal = 1;
place = (-25,71);
type = Stem;
},
{
place = (51,90);
type = Stem;
}
);
layerId = m01;
shapes = (
{
closed = 1;
nodes = (
(227,386,ls),
(197,386,o),
(167,380,o),
(141,369,c),
(141,573,ls),
(141,668,o),
(234,652,o),
(298,652,cs),
(434,652,ls),
(454,652,o),
(479,665,o),
(479,688,cs),
(479,723,o),
(435,724,o),
(410,724,cs),
(211,724,ls),
(127,724,o),
(51,660,o),
(51,573,cs),
(51,126,ls),
(51,19,o),
(145,-26,o),
(238,-26,cs),
(434,-25,ls),
(454,-25,o),
(479,-12,o),
(479,11,cs),
(479,27,o),
(465,39,o),
(451,44,cs),
(432,50,o),
(317,46,o),
(286,46,cs),
(223,46,o),
(141,38,o),
(141,127,cs),
(141,237,l),
(149,267,o),
(152,305,o),
(204,313,cs),
(219,316,o),
(234,314,o),
(250,314,cs),
(342,314,ls),
(371,314,o),
(453,303,o),
(453,350,cs),
(453,373,o),
(428,386,o),
(408,386,cs)
);
}
);
width = 529;
}
);
note = E;
unicode = 69;
},
{
glyphname = F;
layers = (
{
hints = (
{
horizontal = 1;
place = (652,72);
type = Stem;
},
{
horizontal = 1;
place = (313,72);
type = Stem;
},
{
horizontal = 1;
place = (-24,21);
target = up;
type = BottomGhost;
},
{
place = (51,89);
type = Stem;
}
);
layerId = m01;
shapes = (
{
closed = 1;
nodes = (
(318,652,ls),
(353,652,o),
(382,623,o),
(388,590,cs),
(394,560,o),
(395,537,o),
(435,537,cs),
(455,537,o),
(480,550,o),
(480,573,cs),
(480,660,o),
(404,724,o),
(320,724,cs),
(211,724,ls),
(127,724,o),
(51,660,o),
(51,573,cs),
(51,12,ls),
(51,-11,o),
(76,-24,o),
(96,-24,cs),
(113,-24,o),
(131,-16,o),
(138,0,cs),
(142,7,o),
(142,115,o),
(142,232,c),
(146,278,o),
(163,314,o),
(222,314,cs),
(234,314,o),
(247,314,o),
(260,314,cs),
(337,313,ls),
(350,313,o),
(363,313,o),
(376,313,cs),
(401,313,o),
(440,316,o),
(440,349,cs),
(440,372,o),
(415,385,o),
(395,385,cs),
(211,385,ls),
(187,385,o),
(163,380,o),
(141,370,c),
(141,449,o),
(140,514,o),
(140,534,cs),
(140,583,o),
(145,652,o),
(213,652,cs)
);
}
);
width = 530;
}
);
note = F;
unicode = 70;
},
{
glyphname = G;
layers = (
{
hints = (
{
horizontal = 1;
place = (653,71);
type = Stem;
},
{
horizontal = 1;
place = (314,72);
type = Stem;
},
{
horizontal = 1;
place = (-24,72);
type = Stem;
},
{
place = (389,90);
type = Stem;
},
{
place = (51,90);
type = Stem;
}
);
layerId = m01;
shapes = (
{
closed = 1;
nodes = (
(211,724,ls),
(113,724,o),
(51,652,o),
(51,557,cs),
(51,127,ls),
(51,40,o),
(127,-24,o),
(211,-24,cs),
(319,-24,ls),
(423,-24,o),
(480,53,o),
(480,151,cs),
(480,170,o),
(479,190,o),
(479,210,cs),
(479,350,ls),
(479,373,o),
(454,386,o),
(434,386,cs),
(333,386,ls),
(304,386,o),
(220,397,o),
(220,350,cs),
(220,306,o),
(284,314,o),
(313,314,cs),
(389,314,l),
(389,201,ls),
(389,148,o),
(400,48,o),
(317,48,cs),
(212,48,ls),
(170,48,o),
(141,88,o),
(141,127,cs),
(141,560,ls),
(141,669,o),
(223,653,o),
(303,653,cs),
(424,653,o),
(354,537,o),
(434,537,cs),
(454,537,o),
(479,550,o),
(479,573,cs),
(479,660,o),
(403,724,o),
(319,724,cs)
);
}
);
width = 530;
}
);
note = G;
unicode = 71;
},
{
glyphname = H;
layers = (
{
hints = (
{
horizontal = 1;
place = (724,-20);
target = down;
type = TopGhost;
},
{
horizontal = 1;
place = (315,71);
type = Stem;
},
{
horizontal = 1;
place = (-24,21);
target = up;
type = BottomGhost;
},
{
place = (389,90);
type = Stem;
},
{
place = (51,90);
type = Stem;
}
);
layerId = m01;
shapes = (
{
closed = 1;
nodes = (
(51,12,ls),
(51,-11,o),
(76,-24,o),
(96,-24,cs),
(113,-24,o),
(131,-16,o),
(138,0,cs),
(145,14,o),
(141,204,o),
(141,235,cs),
(141,291,o),
(180,315,o),
(231,315,cs),
(284,315,o),
(336,314,o),
(389,313,c),
(389,12,ls),
(389,-11,o),
(413,-24,o),
(434,-24,cs),
(454,-24,o),
(479,-11,o),
(479,12,cs),
(479,688,ls),
(479,711,o),
(454,724,o),
(434,724,cs),
(413,724,o),
(389,711,o),
(389,688,cs),
(389,386,l),
(211,386,ls),
(187,386,o),
(163,380,o),
(141,370,c),
(140,552,ls),
(140,695,o),
(256,624,o),
(256,688,cs),
(256,711,o),
(231,724,o),
(211,724,cs),
(127,724,o),
(51,660,o),
(51,573,cs)
);
}
);
width = 529;
}
);
note = H;
unicode = 72;
},
{
glyphname = I;
layers = (
{
hints = (
{
horizontal = 1;
place = (652,72);
type = Stem;
},
{
horizontal = 1;
place = (-24,72);
type = Stem;
},
{
place = (220,90);
type = Stem;
}
);
layerId = m01;
shapes = (
{
closed = 1;
nodes = (
(220,652,l),
(220,48,l),
(96,48,ls),
(75,48,o),
(51,35,o),
(51,12,cs),
(51,-11,o),
(75,-24,o),
(96,-24,cs),
(434,-24,ls),
(454,-24,o),
(479,-11,o),
(479,12,cs),
(479,35,o),
(454,48,o),
(434,48,cs),
(310,48,l),
(310,652,l),
(434,652,ls),
(454,652,o),
(479,665,o),
(479,688,cs),
(479,711,o),
(454,724,o),
(434,724,cs),
(96,724,ls),
(75,724,o),
(51,711,o),
(51,688,cs),
(51,665,o),
(75,652,o),
(96,652,cs)
);
}
);
width = 529;
}
);
note = I;
unicode = 73;
},
{
glyphname = J;
layers = (
{
hints = (
{
horizontal = 1;
place = (724,-20);
target = down;
type = TopGhost;
},
{
horizontal = 1;
place = (-24,72);
type = Stem;
},
{
place = (389,90);
type = Stem;
}
);
layerId = m01;
shapes = (
{
closed = 1;
nodes = (
(389,140,ls),
(389,96,o),
(369,48,o),
(317,48,cs),
(212,48,ls),
(178,48,o),
(148,77,o),
(143,110,cs),
(138,140,o),
(136,163,o),
(96,163,cs),
(75,163,o),
(51,150,o),
(51,127,cs),
(51,40,o),
(127,-24,o),
(211,-24,cs),
(319,-24,ls),
(416,-24,o),
(479,48,o),
(479,142,cs),
(479,302,l),
(479,573,ls),
(479,660,o),
(403,724,o),
(319,724,cs),
(299,724,o),
(274,711,o),
(274,688,cs),
(274,630,o),
(389,679,o),
(389,573,cs)
);
}
);
width = 530;
}
);
note = J;
unicode = 74;
},
{
glyphname = K;
layers = (
{
hints = (
{
horizontal = 1;
place = (723,-20);
target = down;
type = TopGhost;
},
{
horizontal = 1;
place = (314,72);
type = Stem;
},
{
horizontal = 1;
place = (-24,21);
target = up;
type = BottomGhost;
},
{
place = (389,90);
type = Stem;
},
{
place = (51,89);
type = Stem;
}
);
layerId = m01;
shapes = (
{
closed = 1;
nodes = (
(256,710,o),
(231,723,o),
(211,723,cs),
(127,723,o),
(51,659,o),
(51,572,cs),
(51,12,ls),
(51,-11,o),
(76,-24,o),
(96,-24,cs),
(113,-24,o),
(131,-16,o),
(138,0,cs),
(142,8,o),
(143,124,o),
(142,249,c),
(148,283,o),
(175,314,o),
(212,314,cs),
(318,314,ls),
(400,314,o),
(389,214,o),
(389,161,cs),
(388,24,ls),
(388,-6,o),
(403,-24,o),
(434,-24,cs),
(454,-24,o),
(479,-11,o),
(479,12,cs),
(479,235,ls),
(479,282,o),
(456,322,o),
(422,349,c),
(459,381,o),
(480,430,o),
(480,486,cs),
(480,528,o),
(495,608,o),
(434,608,cs),
(371,608,o),
(389,533,o),
(389,492,cs),
(389,404,o),
(351,386,o),
(318,386,cs),
(211,386,ls),
(186,386,o),
(163,380,o),
(141,370,c),
(141,457,o),
(140,529,o),
(140,551,cs),
(140,694,o),
(256,623,o),
(256,687,cs)
);
}
);
width = 530;
}
);
note = K;
unicode = 75;
},
{
glyphname = L;
layers = (
{
hints = (
{
horizontal = 1;
place = (724,-20);
target = down;
type = TopGhost;
},
{
horizontal = 1;
place = (-24,72);
type = Stem;
},
{
place = (356,89);
type = Stem;
},
{
place = (51,89);
type = Stem;
}
);
layerId = m01;
shapes = (
{
closed = 1;
nodes = (
(141,48,l),
(139,697,l),
(131,715,o),
(116,724,o),
(96,724,cs),
(75,724,o),
(51,711,o),
(51,688,cs),
(51,12,ls),
(51,-11,o),
(75,-24,o),
(96,-24,cs),
(285,-24,ls),
(369,-24,o),
(445,40,o),
(445,127,cs),
(445,150,o),
(420,163,o),
(400,163,cs),
(378,163,o),
(358,150,o),
(355,127,cs),
(354,116,ls),
(354,114,o),
(354,112,o),
(353,110,c),
(347,77,o),
(318,48,o),
(284,48,cs)
);
}
);
width = 496;
}
);
note = L;
unicode = 76;
},
{
glyphname = N;
layers = (
{
hints = (
{
horizontal = 1;
place = (652,72);
type = Stem;
},
{
horizontal = 1;
place = (-23,21);
target = up;
type = BottomGhost;
},
{
horizontal = 1;
place = (-24,21);
target = up;
type = BottomGhost;
},
{
place = (389,90);
type = Stem;
},
{
place = (51,90);
type = Stem;
}
);
layerId = m01;
shapes = (
{
closed = 1;
nodes = (
(318,652,ls),
(398,652,o),
(389,559,o),
(389,506,cs),
(389,12,ls),
(389,-11,o),
(413,-24,o),
(434,-24,cs),
(464,-24,o),
(479,-6,o),
(479,23,cs),
(479,573,ls),
(479,660,o),
(403,724,o),
(319,724,cs),
(211,724,ls),
(116,724,o),
(51,653,o),
(51,560,cs),
(51,13,ls),
(51,-10,o),
(76,-23,o),
(96,-23,cs),
(113,-23,o),
(131,-15,o),
(138,0,cs),
(145,15,o),
(141,476,o),
(141,534,cs),
(141,583,o),
(146,652,o),
(212,652,cs)
);
}
);
width = 530;
}
);
note = N;
unicode = 78;
},
{
glyphname = O;
layers = (
{
hints = (
{
horizontal = 1;
place = (652,72);
type = Stem;
},
{
horizontal = 1;
place = (-24,72);
type = Stem;
},
{
place = (389,90);
type = Stem;
},
{
place = (51,90);
type = Stem;
}
);
layerId = m01;
shapes = (
{
closed = 1;
nodes = (
(51,127,ls),
(51,40,o),
(127,-24,o),
(211,-24,cs),
(319,-24,ls),
(403,-24,o),
(479,40,o),
(479,127,cs),
(479,573,ls),
(479,660,o),
(403,724,o),
(319,724,cs),
(211,724,ls),
(127,724,o),
(51,660,o),
(51,573,cs)
);
},
{
closed = 1;
nodes = (
(141,572,ls),
(141,612,o),
(170,652,o),
(212,652,cs),
(318,652,ls),
(360,652,o),
(389,612,o),
(389,572,cs),
(389,128,ls),
(389,88,o),
(360,48,o),
(318,48,cs),
(212,48,ls),
(170,48,o),
(141,88,o),
(141,128,cs)
);
}
);
width = 530;
}
);
note = O;
unicode = 79;
},
{
glyphname = P;
layers = (
{
hints = (
{
horizontal = 1;
place = (653,71);
type = Stem;
},
{
horizontal = 1;
place = (314,72);
type = Stem;
},
{
horizontal = 1;
place = (-24,21);
target = up;
type = BottomGhost;
},
{
place = (389,90);
type = Stem;
},
{
place = (51,90);
type = Stem;
}
);
layerId = m01;
shapes = (
{
closed = 1;
nodes = (
(479,573,ls),
(479,659,o),
(402,724,o),
(319,724,cs),
(220,724,ls),
(132,724,o),
(51,666,o),
(51,573,cs),
(51,12,ls),
(51,-11,o),
(76,-24,o),
(96,-24,cs),
(136,-24,o),
(141,0,o),
(141,32,cs),
(141,231,ls),
(141,325,o),
(222,314,o),
(288,314,cs),
(383,314,o),
(479,355,o),
(479,465,cs)
);
},
{
closed = 1;
nodes = (
(140,562,ls),
(140,619,o),
(169,653,o),
(227,653,cs),
(292,653,o),
(389,667,o),
(389,573,cs),
(389,466,ls),
(389,377,o),
(309,386,o),
(248,386,cs),
(212,386,o),
(174,385,o),
(141,371,c)
);
}
);
width = 529;
}
);
note = P;
unicode = 80;
},
{
glyphname = Q;
layers = (
{
hints = (
{
horizontal = 1;
place = (652,72);
type = Stem;
},
{
horizontal = 1;
place = (-24,72);
type = Stem;
},
{
horizontal = 1;
place = (-20,21);
target = up;
type = BottomGhost;
},
{
place = (389,90);
type = Stem;
},
{
place = (274,92);
type = Stem;
},
{
place = (51,90);
type = Stem;
}
);
layerId = m01;
shapes = (
{
closed = 1;
nodes = (
(51,127,ls),
(51,40,o),
(127,-24,o),
(211,-24,cs),
(319,-24,ls),
(341,-24,o),
(363,-20,o),
(382,-12,c),
(399,-17,o),
(416,-20,o),
(434,-20,cs),
(455,-20,o),
(479,-7,o),
(479,16,cs),
(479,31,o),
(468,42,o),
(455,48,c),
(470,70,o),
(479,97,o),
(479,127,cs),
(479,573,ls),
(479,660,o),
(403,724,o),
(319,724,cs),
(211,724,ls),
(127,724,o),
(51,660,o),
(51,573,cs)
);
},
{
closed = 1;
nodes = (
(141,572,ls),
(141,612,o),
(170,652,o),
(212,652,cs),
(318,652,ls),
(360,652,o),
(389,612,o),
(389,572,cs),
(389,128,ls),
(389,113,o),
(385,98,o),
(378,85,c),
(372,94,o),
(368,104,o),
(366,114,cs),
(365,122,o),
(365,130,o),
(363,137,cs),
(359,157,o),
(338,167,o),
(319,167,cs),
(299,167,o),
(274,154,o),
(274,131,cs),
(274,100,o),
(284,71,o),
(301,48,c),
(212,48,ls),
(170,48,o),
(141,88,o),
(141,128,cs)
);
}
);
width = 530;
}
);
note = Q;
unicode = 81;
},
{
glyphname = R;
layers = (
{
hints = (
{
horizontal = 1;
place = (653,71);
type = Stem;
},
{
horizontal = 1;
place = (314,72);
type = Stem;
},
{
horizontal = 1;
place = (-24,21);
target = up;
type = BottomGhost;
},
{
place = (389,90);
type = Stem;
},
{
place = (51,90);
type = Stem;
}
);
layerId = m01;
shapes = (
{
closed = 1;
nodes = (
(388,24,ls),
(388,-6,o),
(403,-24,o),
(434,-24,cs),
(454,-24,o),
(479,-11,o),
(479,12,cs),
(479,235,ls),
(479,282,o),
(456,323,o),
(422,350,c),
(456,377,o),
(479,418,o),
(479,465,cs),
(479,573,ls),
(479,660,o),
(403,724,o),
(319,724,cs),
(220,724,ls),
(132,724,o),
(51,667,o),
(51,573,cs),
(51,12,ls),
(51,-11,o),
(76,-24,o),
(96,-24,cs),
(116,-24,o),
(134,-14,o),
(140,6,cs),
(142,13,o),
(143,121,o),
(142,241,c),
(150,275,o),
(156,315,o),
(228,315,cs),
(258,315,o),
(288,314,o),
(318,314,cs),
(400,314,o),
(389,214,o),
(389,161,cs)
);
},
{
closed = 1;
nodes = (
(389,466,ls),
(389,404,o),
(349,395,o),
(317,386,c),
(220,386,ls),
(192,386,o),
(166,380,o),
(142,370,c),
(141,462,o),
(141,540,o),
(141,562,cs),
(141,620,o),
(168,653,o),
(228,653,cs),
(292,653,o),
(389,667,o),
(389,573,cs)
);
}
);
width = 529;
}
);
note = R;
unicode = 82;
},
{
glyphname = S;
layers = (
{
hints = (
{
horizontal = 1;
place = (653,72);
type = Stem;
},
{
horizontal = 1;
place = (314,72);
type = Stem;
},
{
horizontal = 1;
place = (-24,72);
type = Stem;
},
{
place = (388,90);
type = Stem;
},
{
place = (51,90);
type = Stem;
}
);
layerId = m01;
shapes = (
{
closed = 1;
nodes = (
(51,465,ls),
(51,434,o),
(62,403,o),
(81,377,cs),
(138,302,o),
(224,314,o),
(308,314,cs),
(355,314,o),
(388,281,o),
(388,234,cs),
(388,127,ls),
(388,32,o),
(295,48,o),
(231,48,cs),
(96,48,ls),
(75,48,o),
(51,35,o),
(51,12,cs),
(51,-22,o),
(89,-24,o),
(114,-24,cs),
(188,-24,l),
(319,-24,ls),
(403,-24,o),
(478,40,o),
(478,127,cs),
(478,235,ls),
(478,266,o),
(467,297,o),
(448,323,cs),
(391,398,o),
(305,386,o),
(221,386,cs),
(174,386,o),
(141,419,o),
(141,466,cs),
(141,573,ls),
(141,664,o),
(229,653,o),
(293,653,cs),
(415,653,o),
(344,537,o),
(424,537,cs),
(445,537,o),
(469,550,o),
(469,573,cs),
(469,646,o),
(413,707,o),
(342,721,cs),
(321,725,o),
(299,725,o),
(278,725,cs),
(255,725,o),
(233,724,o),
(211,724,cs),
(127,724,o),
(51,660,o),
(51,573,cs)
);
}
);
width = 529;
}
);
note = S;
unicode = 83;
},
{
glyphname = T;
layers = (
{
hints = (
{
horizontal = 1;
place = (651,73);
type = Stem;
},
{
horizontal = 1;
place = (-24,21);
target = up;
type = BottomGhost;
},
{
place = (220,91);
type = Stem;
},
{
place = (51,89);
type = Stem;
}
);
layerId = m01;
shapes = (
{
closed = 1;
nodes = (
(478,711,o),
(454,724,o),
(433,724,cs),
(211,724,ls),
(127,724,o),
(51,660,o),
(51,573,cs),
(51,550,o),
(75,537,o),
(96,537,cs),
(115,537,o),
(136,547,o),
(140,567,cs),
(142,575,o),
(141,583,o),
(143,591,cs),
(148,621,o),
(174,648,o),
(205,652,cs),
(210,652,o),
(215,653,o),
(220,653,c),
(219,587,o),
(219,436,o),
(219,420,cs),
(219,284,o),
(220,148,o),
(220,12,cs),
(220,-11,o),
(244,-24,o),
(265,-24,cs),
(286,-24,o),
(298,-15,o),
(308,3,cs),
(311,8,o),
(311,247,o),
(311,266,cs),
(311,395,o),
(310,524,o),
(310,652,c),
(347,652,o),
(385,651,o),
(422,651,cs),
(445,651,o),
(478,659,o),
(478,688,cs)
);
}
);
width = 529;
}
);
note = T;
unicode = 84;
},
{
glyphname = U;
layers = (
{
hints = (
{
horizontal = 1;
place = (724,-20);
target = down;
type = TopGhost;
},
{
horizontal = 1;
place = (723,-20);
target = down;
type = TopGhost;
},
{
horizontal = 1;
place = (-24,72);
type = Stem;
},
{
place = (389,90);
type = Stem;
},
{
place = (51,90);
type = Stem;
}
);
layerId = m01;
shapes = (
{
closed = 1;
nodes = (
(212,48,ls),
(132,48,o),
(141,141,o),
(141,194,cs),
(141,688,ls),
(141,711,o),
(116,724,o),
(96,724,cs),
(65,724,o),
(51,706,o),
(51,677,cs),
(51,127,ls),
(51,40,o),
(127,-24,o),
(211,-24,cs),
(319,-24,ls),
(414,-24,o),
(479,47,o),
(479,140,cs),
(479,687,ls),
(479,710,o),
(454,723,o),
(434,723,cs),
(417,723,o),
(399,715,o),
(391,700,cs),
(385,685,o),
(389,223,o),
(389,165,cs),
(389,116,o),
(384,48,o),
(317,48,cs)
);
}
);
width = 529;
}
);
note = U;
unicode = 85;
},
{
glyphname = V;
layers = (
{
hints = (
{
horizontal = 1;
place = (724,-20);
target = down;
type = TopGhost;
},
{
horizontal = 1;
place = (-23,71);
type = Stem;
},
{
place = (388,89);
type = Stem;
},
{
place = (51,90);
type = Stem;
}
);
layerId = m01;
shapes = (
{
closed = 1;
nodes = (
(387,49,l),
(374,49,o),
(360,49,o),
(347,49,cs),
(266,48,ls),
(252,48,o),
(239,48,o),
(225,48,cs),
(142,48,o),
(141,105,o),
(141,167,cs),
(141,683,ls),
(141,709,o),
(121,724,o),
(96,724,cs),
(75,724,o),
(51,711,o),
(51,688,cs),
(51,127,ls),
(51,54,o),
(107,-7,o),
(178,-20,cs),
(202,-24,o),
(226,-24,o),
(250,-24,cs),
(280,-23,ls),
(285,-23,o),
(290,-23,o),
(295,-23,cs),
(432,-23,ls),
(453,-23,o),
(477,-10,o),
(477,13,cs),
(477,688,ls),
(477,711,o),
(453,724,o),
(432,724,cs),
(413,724,o),
(396,715,o),
(389,697,c)
);
}
);
width = 528;
}
);
note = V;
unicode = 86;
},
{
glyphname = W;
layers = (
{
hints = (
{
horizontal = 1;
place = (724,-20);
target = down;
type = TopGhost;
},
{
horizontal = 1;
place = (723,-20);
target = down;
type = TopGhost;
},
{
horizontal = 1;
place = (-24,72);
type = Stem;
},
{
place = (727,89);
type = Stem;
},
{
place = (388,91);
type = Stem;
},
{
place = (51,90);
type = Stem;
}
);
layerId = m01;
shapes = (
{
closed = 1;
nodes = (
(212,48,ls),
(180,48,o),
(154,72,o),
(145,101,cs),
(137,127,o),
(141,167,o),
(141,194,cs),
(141,339,l),
(141,688,ls),
(141,711,o),
(117,724,o),
(96,724,cs),
(79,724,o),
(60,716,o),
(53,699,cs),
(50,691,o),
(51,677,o),
(51,668,cs),
(51,127,ls),
(51,40,o),
(127,-24,o),
(211,-24,cs),
(319,-24,ls),
(364,-24,o),
(404,-7,o),
(433,22,c),
(463,-7,o),
(504,-24,o),
(548,-24,cs),
(656,-24,ls),
(721,-24,o),
(776,11,o),
(804,70,cs),
(814,92,o),
(816,117,o),
(816,140,cs),
(816,323,o),
(816,505,o),
(816,687,cs),
(816,710,o),
(792,723,o),
(771,723,cs),
(754,723,o),
(736,715,o),
(729,700,cs),
(725,691,o),
(726,681,o),
(726,672,cs),
(726,503,o),
(727,335,o),
(727,166,cs),
(727,149,o),
(727,117,o),
(722,101,cs),
(713,72,o),
(686,48,o),
(655,48,cs),
(549,48,ls),
(518,48,o),
(491,72,o),
(482,101,cs),
(480,108,o),
(479,115,o),
(478,123,c),
(479,129,o),
(479,135,o),
(479,140,cs),
(479,323,o),
(478,505,o),
(479,687,cs),
(479,688,ls),
(479,711,o),
(454,724,o),
(434,724,cs),
(416,724,o),
(397,716,o),
(391,699,cs),
(387,691,o),
(388,677,o),
(388,668,cs),
(388,636,o),
(388,603,o),
(388,571,cs),
(388,546,o),
(388,522,o),
(388,498,cs),
(388,129,ls),
(388,118,o),
(387,108,o),
(385,101,cs),
(376,72,o),
(349,48,o),
(317,48,cs)
);
}
);
width = 867;
}
);
note = W;
unicode = 87;
},
{
glyphname = X;
layers = (
{
hints = (
{
horizontal = 1;
place = (653,71);
type = Stem;
},
{
horizontal = 1;
place = (-24,71);
type = Stem;
},
{
place = (244,90);
type = Stem;
}
);
layerId = m01;
shapes = (
{
closed = 1;
nodes = (
(482,-24,ls),
(502,-24,o),
(527,-11,o),
(527,12,cs),
(527,43,o),
(490,49,o),
(466,49,cs),
(462,49,o),
(458,49,o),
(454,49,cs),
(430,48,l),
(426,47,o),
(422,47,o),
(418,47,cs),
(373,47,o),
(340,71,o),
(334,118,cs),
(334,120,o),
(334,123,o),
(334,127,cs),
(334,573,ls),
(334,574,o),
(334,576,o),
(334,577,cs),
(339,627,o),
(368,653,o),
(418,653,cs),
(434,653,o),
(450,651,o),
(466,651,cs),
(490,651,o),
(527,657,o),
(527,688,cs),
(527,711,o),
(502,724,o),
(482,724,cs),
(404,724,ls),
(360,724,o),
(319,707,o),
(289,678,c),
(259,707,o),
(218,724,o),
(174,724,cs),
(96,724,ls),
(76,724,o),
(51,711,o),
(51,688,cs),
(51,659,o),
(84,651,o),
(107,651,cs),
(123,651,o),
(139,653,o),
(155,653,cs),
(215,653,o),
(244,622,o),
(244,563,cs),
(244,139,ls),
(244,79,o),
(217,47,o),
(157,47,cs),
(141,47,o),
(125,49,o),
(109,49,cs),
(86,49,o),
(51,42,o),
(51,12,cs),
(51,-11,o),
(75,-24,o),
(96,-24,cs),
(174,-24,ls),
(218,-24,o),
(259,-7,o),
(289,22,c),
(319,-7,o),
(360,-24,o),
(404,-24,cs)
);
}
);
width = 577;
}
);
note = X;
unicode = 88;
},
{
glyphname = Y;
layers = (
{
hints = (
{
horizontal = 1;
place = (724,-20);
target = down;
type = TopGhost;
},
{
horizontal = 1;
place = (723,-20);
target = down;
type = TopGhost;
},
{
horizontal = 1;
place = (314,72);
type = Stem;
},
{
horizontal = 1;
place = (-24,72);
type = Stem;
},
{
place = (389,90);
type = Stem;
},
{
place = (51,90);
type = Stem;
}
);
layerId = m01;
shapes = (
{
closed = 1;
nodes = (
(323,314,o),
(340,306,o),
(350,299,cs),
(385,276,o),
(389,251,o),
(389,212,cs),
(389,128,ls),
(389,88,o),
(360,48,o),
(318,48,cs),
(212,48,ls),
(123,48,o),
(141,171,o),
(141,229,cs),
(141,255,o),
(122,271,o),
(96,271,cs),
(76,271,o),
(51,258,o),
(51,235,cs),
(51,127,ls),
(51,40,o),
(127,-24,o),
(211,-24,cs),
(319,-24,ls),
(403,-24,o),
(479,40,o),
(479,127,cs),
(479,157,o),
(480,188,o),
(480,218,cs),
(480,271,o),
(461,315,o),
(419,347,c),
(467,384,o),
(480,430,o),
(480,489,cs),
(480,508,o),
(479,528,o),
(479,547,cs),
(479,687,ls),
(479,710,o),
(454,723,o),
(434,723,cs),
(425,723,o),
(415,721,o),
(407,716,cs),
(391,706,o),
(389,695,o),
(389,677,cs),
(389,626,o),
(390,576,o),
(390,525,cs),
(390,474,o),
(394,386,o),
(318,386,cs),
(212,386,ls),
(131,386,o),
(141,481,o),
(141,534,cs),
(141,688,ls),
(141,711,o),
(116,724,o),
(96,724,cs),
(57,724,o),
(50,699,o),
(50,666,cs),
(50,599,o),
(51,532,o),
(51,465,cs),
(51,391,o),
(107,331,o),
(178,317,cs),
(221,309,o),
(267,314,o),
(310,314,cs)
);
}
);
width = 531;
}
);
note = Y;
unicode = 89;
},
{
glyphname = Z;
layers = (
{
hints = (
{
horizontal = 1;
place = (652,72);
type = Stem;
},
{
horizontal = 1;
place = (313,72);
type = Stem;
},
{
horizontal = 1;
place = (-24,72);
type = Stem;
},
{
place = (389,90);
type = Stem;
},
{
place = (51,90);
type = Stem;
}
);
layerId = m01;
shapes = (
{
closed = 1;
nodes = (
(271,652,o),
(330,652,o),
(389,652,c),
(389,453,ls),
(389,418,o),
(368,392,o),
(333,386,cs),
(317,384,o),
(301,385,o),
(285,385,cs),
(260,385,o),
(235,386,o),
(211,386,cs),
(127,386,o),
(51,322,o),
(51,235,cs),
(51,12,ls),
(51,-24,o),
(95,-24,o),
(120,-24,cs),
(136,-24,o),
(152,-24,o),
(169,-24,cs),
(319,-24,ls),
(403,-24,o),
(479,40,o),
(479,127,cs),
(479,150,o),
(454,163,o),
(434,163,cs),
(415,163,o),
(394,153,o),
(390,133,cs),
(388,125,o),
(389,117,o),
(387,110,cs),
(381,77,o),
(352,48,o),
(318,48,cs),
(259,48,o),
(200,48,o),
(141,48,c),
(141,104,o),
(140,159,o),
(140,214,cs),
(140,256,o),
(152,302,o),
(199,312,cs),
(212,315,o),
(226,314,o),
(239,314,cs),
(266,314,o),
(292,313,o),
(319,313,cs),
(401,313,o),
(479,364,o),
(479,452,cs),
(479,688,ls),
(479,724,o),
(435,724,o),
(410,724,cs),
(394,724,o),
(378,724,o),
(361,724,cs),
(211,724,ls),
(127,724,o),
(51,660,o),
(51,573,cs),
(51,550,o),
(75,537,o),
(96,537,cs),
(115,537,o),
(136,547,o),
(140,567,cs),
(142,575,o),
(141,583,o),
(143,590,cs),
(149,623,o),
(178,652,o),
(212,652,cs)
);
}
);
width = 530;
}
);
note = Z;
unicode = 90;
},
{
glyphname = at;
layers = (
{
hints = (
{
horizontal = 1;
place = (570,72);
type = Stem;
},
{
horizontal = 1;
place = (422,72);
type = Stem;
},
{
horizontal = 1;
place = (205,72);
type = Stem;
},
{
horizontal = 1;
place = (58,71);
type = Stem;
},
{
place = (564,90);
type = Stem;
},
{
place = (417,90);
type = Stem;
},
{
place = (200,90);
type = Stem;
},
{
place = (51,90);
type = Stem;
}
);
layerId = m01;
shapes = (
{
closed = 1;
nodes = (
(200,315,ls),
(200,251,o),
(257,205,o),
(319,205,cs),
(388,205,ls),
(415,205,o),
(441,214,o),
(462,229,c),
(483,214,o),
(509,205,o),
(535,205,cs),
(597,205,o),
(654,251,o),
(654,315,cs),
(654,341,o),
(655,366,o),
(655,392,cs),
(655,418,o),
(656,447,o),
(650,473,cs),
(627,574,o),
(537,642,o),
(434,642,cs),
(270,642,ls),
(153,642,o),
(51,551,o),
(51,432,cs),
(51,268,ls),
(51,149,o),
(153,58,o),
(270,58,cs),
(434,58,ls),
(455,58,o),
(479,71,o),
(479,94,cs),
(479,129,o),
(439,130,o),
(413,130,cs),
(404,130,o),
(396,130,o),
(387,130,cs),
(333,129,ls),
(324,129,o),
(315,129,o),
(306,129,cs),
(285,129,o),
(255,129,o),
(235,135,cs),
(178,153,o),
(141,210,o),
(141,268,cs),
(141,432,ls),
(141,504,o),
(197,570,o),
(271,570,cs),
(434,570,ls),
(502,570,o),
(556,513,o),
(563,447,cs),
(564,439,o),
(565,430,o),
(565,422,cs),
(565,413,o),
(564,404,o),
(564,395,cs),
(564,316,ls),
(564,300,o),
(554,277,o),
(535,277,cs),
(520,277,o),
(508,296,o),
(507,310,cs),
(507,312,o),
(507,313,o),
(507,315,cs),
(507,385,ls),
(507,449,o),
(450,494,o),
(388,494,cs),
(319,494,ls),
(257,494,o),
(200,449,o),
(200,385,cs)
);
},
{
closed = 1;
nodes = (
(290,384,ls),
(290,401,o),
(301,422,o),
(320,422,cs),
(387,422,ls),
(406,422,o),
(417,401,o),
(417,384,cs),
(417,321,ls),
(417,319,o),
(417,317,o),
(417,315,cs),
(417,314,o),
(417,312,o),
(417,310,cs),
(415,295,o),
(404,277,o),
(387,277,cs),
(320,277,ls),
(301,277,o),
(290,299,o),
(290,316,cs)
);
}
);
width = 706;
}
);
note = at;
unicode = 64;
},
{
glyphname = a;
layers = (
{
hints = (
{
horizontal = 1;
place = (323,63);
type = Stem;
},
{
horizontal = 1;
place = (192,64);
type = Stem;
},
{
horizontal = 1;
place = (-21,72);
type = Stem;
},
{
place = (382,90);
type = Stem;
},
{
place = (51,90);
type = Stem;
}
);
layerId = m01;
shapes = (
{
closed = 1;
nodes = (
(185,315,o),
(261,323,o),
(290,323,cs),
(351,323,o),
(370,301,o),
(370,256,c),
(208,256,ls),
(125,256,o),
(51,213,o),
(51,127,cs),
(51,42,o),
(125,-21,o),
(208,-21,cs),
(315,-21,ls),
(397,-21,o),
(472,42,o),
(472,127,cs),
(472,243,l),
(463,354,o),
(368,386,o),
(270,386,cs),
(243,386,o),
(185,392,o),
(185,350,cs)
);
},
{
closed = 1;
nodes = (
(382,192,l),
(382,142,ls),
(382,113,o),
(380,89,o),
(357,68,cs),
(345,57,o),
(330,51,o),
(313,51,cs),
(210,51,ls),
(169,51,o),
(141,89,o),
(141,127,cs),
(141,164,o),
(182,192,o),
(236,192,cs)
);
}
);
width = 523;
}
);
note = a;
unicode = 97;
},
{
glyphname = b;
layers = (
{
hints = (
{
horizontal = 1;
place = (724,-20);
target = down;
type = TopGhost;
},
{
horizontal = 1;
place = (314,72);
type = Stem;
},
{
horizontal = 1;
place = (-24,72);
type = Stem;
},
{
place = (389,90);
type = Stem;
},
{
place = (51,90);
type = Stem;
}
);
layerId = m01;
shapes = (
{
closed = 1;
nodes = (
(479,235,ls),
(479,322,o),
(403,386,o),
(319,386,cs),
(211,386,ls),
(186,386,o),
(162,380,o),
(141,371,c),
(141,688,ls),
(141,711,o),
(116,724,o),
(96,724,cs),
(75,724,o),
(51,711,o),
(51,688,cs),
(51,127,ls),
(51,42,o),
(128,-24,o),
(211,-24,cs),
(318,-24,ls),
(402,-24,o),
(479,40,o),
(479,127,cs)
);
},
{
closed = 1;
nodes = (
(389,128,ls),
(389,88,o),
(359,48,o),
(317,48,cs),
(212,48,ls),
(170,48,o),
(141,88,o),
(141,128,cs),
(141,234,ls),
(141,274,o),
(170,314,o),
(212,314,cs),
(318,314,ls),
(360,314,o),
(389,274,o),
(389,234,cs)
);
}
);
width = 530;
}
);
note = b;
unicode = 98;
},
{
glyphname = c;
layers = (
{
hints = (
{
horizontal = 1;
place = (314,72);
type = Stem;
},
{
horizontal = 1;
place = (-23,72);
type = Stem;
},
{
place = (390,89);
type = Stem;
},
{
place = (51,90);
type = Stem;
}
);
layerId = m01;
shapes = (
{
closed = 1;
nodes = (
(211,386,ls),
(127,386,o),
(51,322,o),
(51,235,cs),
(51,128,ls),
(51,41,o),
(127,-23,o),
(211,-23,cs),
(418,-23,ls),
(439,-23,o),
(463,-10,o),
(463,13,cs),
(463,48,o),
(423,49,o),
(398,49,cs),
(356,49,o),
(314,48,o),
(273,48,cs),
(259,48,o),
(205,48,o),
(193,52,cs),
(161,62,o),
(141,95,o),
(141,129,cs),
(141,234,ls),
(141,274,o),
(170,314,o),
(212,314,cs),
(318,314,ls),
(352,314,o),
(381,285,o),
(387,252,cs),
(389,245,o),
(388,237,o),
(390,229,cs),
(394,209,o),
(415,199,o),
(434,199,cs),
(455,199,o),
(479,212,o),
(479,235,cs),
(479,322,o),
(403,386,o),
(319,386,cs)
);
}
);
width = 530;
}
);
note = c;
unicode = 99;
},
{
glyphname = d;
layers = (
{
hints = (
{
horizontal = 1;
place = (724,-20);
target = down;
type = TopGhost;
},
{
horizontal = 1;
place = (314,72);
type = Stem;
},
{
horizontal = 1;
place = (-24,72);
type = Stem;
},
{
place = (390,90);
type = Stem;
},
{
place = (51,90);
type = Stem;
}
);
layerId = m01;
shapes = (
{
closed = 1;
nodes = (
(211,386,ls),
(127,386,o),
(51,322,o),
(51,235,cs),
(51,127,ls),
(51,40,o),
(127,-24,o),
(211,-24,cs),
(319,-24,ls),
(415,-24,o),
(480,47,o),
(480,140,cs),
(479,688,ls),
(479,711,o),
(455,724,o),
(434,724,cs),
(417,724,o),
(400,716,o),
(392,700,cs),
(386,687,o),
(389,409,o),
(390,370,c),
(368,381,o),
(343,386,o),
(319,386,cs)
);
},
{
closed = 1;
nodes = (
(390,116,o),
(385,48,o),
(318,48,cs),
(212,48,ls),
(170,48,o),
(141,88,o),
(141,128,cs),
(141,234,ls),
(141,274,o),
(170,314,o),
(212,314,cs),
(318,314,ls),
(398,314,o),
(390,219,o),
(390,166,cs)
);
}
);
width = 530;
}
);
note = d;
unicode = 100;
},
{
glyphname = e;
layers = (
{
hints = (
{
horizontal = 1;
place = (314,72);
type = Stem;
},
{
horizontal = 1;
place = (151,72);
type = Stem;
},
{
horizontal = 1;
place = (-24,72);
type = Stem;
},
{
place = (377,90);
type = Stem;
},
{
place = (50,90);
type = Stem;
}
);
layerId = m01;
shapes = (
{
closed = 1;
nodes = (
(422,151,ls),
(443,151,o),
(467,164,o),
(467,187,cs),
(467,190,o),
(467,193,o),
(467,197,cs),
(468,215,ls),
(468,232,o),
(468,250,o),
(464,267,cs),
(448,339,o),
(383,386,o),
(311,386,cs),
(206,386,ls),
(124,386,o),
(50,324,o),
(50,239,cs),
(50,123,ls),
(50,39,o),
(124,-24,o),
(206,-24,cs),
(416,-24,ls),
(437,-24,o),
(461,-11,o),
(461,12,cs),
(461,47,o),
(421,48,o),
(396,48,cs),
(353,48,o),
(311,47,o),
(269,47,cs),
(255,47,o),
(201,47,o),
(190,51,cs),
(159,61,o),
(140,92,o),
(140,124,cs),
(140,151,l)
);
},
{
closed = 1;
nodes = (
(140,238,ls),
(140,276,o),
(167,314,o),
(208,314,cs),
(310,314,ls),
(355,314,o),
(377,271,o),
(377,231,cs),
(377,223,l),
(298,223,o),
(219,223,o),
(140,223,c)
);
}
);
width = 518;
}
);
note = e;
unicode = 101;
},
{
glyphname = f;
layers = (
{
hints = (
{
horizontal = 1;
place = (652,73);
type = Stem;
},
{
horizontal = 1;
place = (315,73);
type = Stem;
},
{
horizontal = 1;
place = (-24,21);
target = up;
type = BottomGhost;
},
{
place = (51,90);
type = Stem;
}
);
layerId = m01;
shapes = (
{
closed = 1;
nodes = (
(141,573,ls),
(141,589,o),
(146,605,o),
(154,618,cs),
(180,661,o),
(223,652,o),
(265,652,cs),
(285,652,o),
(310,665,o),
(310,688,cs),
(310,722,o),
(269,725,o),
(244,725,cs),
(233,725,o),
(222,724,o),
(211,724,cs),
(127,724,o),
(51,660,o),
(51,573,cs),
(51,393,o),
(51,212,o),
(51,32,cs),
(51,23,o),
(50,9,o),
(53,1,cs),
(60,-16,o),
(79,-24,o),
(96,-24,cs),
(154,-24,o),
(141,32,o),
(141,70,cs),
(141,196,l),
(141,235,l),
(142,241,o),
(142,247,o),
(143,254,cs),
(145,267,o),
(152,280,o),
(160,290,cs),
(188,323,o),
(226,315,o),
(265,315,cs),
(285,315,o),
(310,328,o),
(310,351,cs),
(310,385,o),
(269,388,o),
(244,388,cs),
(208,388,o),
(174,387,o),
(141,372,c)
);
}
);
width = 360;
}
);
note = f;
unicode = 102;
},
{
glyphname = g;
layers = (
{
hints = (
{
place = (389,90);
type = Stem;
},
{
place = (314,72);
type = Stem;
},
{
place = (51,90);
type = Stem;
},
{
place = (-24,72);
type = Stem;
},
{
place = (-362,72);
type = Stem;
}
);
layerId = m01;
shapes = (
{
closed = 1;
nodes = (
(479,344,ls),
(479,370,o),
(459,386,o),
(434,386,cs),
(419,386,o),
(393,378,o),
(395,339,c),
(380,362,o),
(338,386,o),
(282,386,cs),
(211,386,ls),
(127,386,o),
(51,322,o),
(51,235,cs),
(51,127,ls),
(51,95,o),
(62,64,o),
(81,39,cs),
(139,-37,o),
(222,-24,o),
(306,-24,cs),
(363,-24,o),
(389,-60,o),
(389,-114,cs),
(389,-210,ls),
(389,-258,o),
(355,-291,o),
(307,-291,cs),
(212,-290,ls),
(122,-290,o),
(141,-167,o),
(141,-109,cs),
(141,-83,o),
(121,-67,o),
(96,-67,cs),
(75,-67,o),
(51,-80,o),
(51,-103,cs),
(51,-211,ls),
(51,-298,o),
(127,-362,o),
(211,-362,cs),
(315,-362,ls),
(400,-362,o),
(479,-300,o),
(479,-211,cs),
(480,-141,ls),
(480,-78,o),
(475,-30,o),
(421,12,c),
(479,57,o),
(479,105,o),
(479,173,cs)
);
},
{
closed = 1;
nodes = (
(174,48,o),
(141,79,o),
(141,128,cs),
(141,234,ls),
(141,274,o),
(170,314,o),
(212,314,cs),
(317,314,ls),
(404,314,o),
(389,199,o),
(389,143,cs),
(389,30,o),
(306,48,o),
(222,48,cs)
);
}
);
width = 530;
}
);
note = g;
unicode = 103;
},
{
glyphname = h;
layers = (
{
hints = (
{
horizontal = 1;
place = (724,-20);
target = down;
type = TopGhost;
},
{
horizontal = 1;
place = (313,71);
type = Stem;
},
{
horizontal = 1;
place = (-20,21);
target = up;
type = BottomGhost;
},
{
horizontal = 1;
place = (-24,21);
target = up;
type = BottomGhost;
},
{
place = (387,90);
type = Stem;
},
{
place = (51,90);
type = Stem;
}
);
layerId = m01;
shapes = (
{
closed = 1;
nodes = (
(51,23,ls),
(51,-7,o),
(66,-24,o),
(96,-24,cs),
(153,-24,o),
(141,32,o),
(141,70,cs),
(141,233,ls),
(141,286,o),
(177,313,o),
(227,313,cs),
(262,313,o),
(328,320,o),
(356,299,cs),
(386,276,o),
(387,245,o),
(387,211,cs),
(387,28,ls),
(387,-2,o),
(401,-20,o),
(432,-20,cs),
(453,-20,o),
(477,-7,o),
(477,16,cs),
(477,234,ls),
(477,320,o),
(402,384,o),
(318,384,cs),
(219,384,ls),
(192,384,o),
(166,380,o),
(141,369,c),
(141,573,ls),
(141,679,o),
(255,631,o),
(255,688,cs),
(255,711,o),
(231,724,o),
(210,724,cs),
(127,724,o),
(51,660,o),
(51,574,cs)
);
}
);
width = 528;
}
);
note = h;
unicode = 104;
},
{
glyphname = i;
layers = (
{
hints = (
{
horizontal = 1;
place = (547,39);
type = Stem;
},
{
horizontal = 1;
place = (448,40);
type = Stem;
},
{
horizontal = 1;
place = (-21,21);
target = up;
type = BottomGhost;
},
{
place = (166,41);
type = Stem;
},
{
place = (84,90);
type = Stem;
},
{
place = (50,42);
type = Stem;
}
);
layerId = m01;
shapes = (
{
closed = 1;
nodes = (
(90,586,o),
(50,559,o),
(50,517,cs),
(50,476,o),
(90,448,o),
(128,448,cs),
(167,448,o),
(207,476,o),
(207,517,cs),
(207,555,o),
(171,586,o),
(128,586,cs)
);
},
{
closed = 1;
nodes = (
(92,535,o),
(110,547,o),
(128,547,cs),
(146,547,o),
(166,535,o),
(166,517,cs),
(166,499,o),
(146,488,o),
(128,488,cs),
(110,488,o),
(92,499,o),
(92,517,cs)
);
},
{
closed = 1;
nodes = (
(174,349,ls),
(174,372,o),
(149,385,o),
(129,385,cs),
(108,385,o),
(84,372,o),
(84,349,cs),
(84,15,ls),
(84,-8,o),
(108,-21,o),
(129,-21,cs),
(149,-21,o),
(174,-8,o),
(174,15,cs)
);
}
);
width = 257;
}
);
note = i;
unicode = 105;
},
{
glyphname = j;
layers = (
{
hints = (
{
horizontal = 1;
place = (547,39);
type = Stem;
},
{
horizontal = 1;
place = (448,40);
type = Stem;
},
{
horizontal = 1;
place = (-210,72);
type = Stem;
},
{
place = (210,41);
type = Stem;
},
{
place = (131,90);
type = Stem;
},
{
place = (94,42);
type = Stem;
}
);
layerId = m01;
shapes = (
{
closed = 1;
nodes = (
(131,-84,ls),
(131,-95,o),
(128,-106,o),
(123,-116,c),
(104,-145,o),
(75,-138,o),
(45,-138,cs),
(25,-138,o),
(0,-151,o),
(0,-174,cs),
(0,-207,o),
(39,-210,o),
(64,-210,cs),
(72,-210,o),
(80,-210,o),
(87,-210,cs),
(157,-210,o),
(221,-157,o),
(221,-85,cs),
(222,335,ls),
(222,343,o),
(222,353,o),
(219,361,cs),
(213,378,o),
(193,386,o),
(176,386,cs),
(159,386,o),
(140,378,o),
(133,361,cs),
(129,350,o),
(131,318,o),
(131,305,cs),
(131,208,l)
);
},
{
closed = 1;
nodes = (
(134,586,o),
(94,559,o),
(94,517,cs),
(94,476,o),
(134,448,o),
(172,448,cs),
(211,448,o),
(251,476,o),
(251,517,cs),
(251,555,o),
(215,586,o),
(172,586,cs)
);
},
{
closed = 1;
nodes = (
(136,535,o),
(154,547,o),
(172,547,cs),
(190,547,o),
(210,535,o),
(210,517,cs),
(210,499,o),
(190,488,o),
(172,488,cs),
(154,488,o),
(136,499,o),
(136,517,cs)
);
}
);
width = 298;
}
);
note = j;
unicode = 106;
},
{
glyphname = k;
layers = (
{
hints = (
{
horizontal = 1;
place = (649,75);
type = Stem;
},
{
horizontal = 1;
place = (151,72);
type = Stem;
},
{
horizontal = 1;
place = (-20,21);
target = up;
type = BottomGhost;
},
{
horizontal = 1;
place = (-24,21);
target = up;
type = BottomGhost;
},
{
place = (386,91);
type = Stem;
},
{
place = (383,91);
type = Stem;
},
{
place = (51,90);
type = Stem;
}
);
layerId = m01;
shapes = (
{
closed = 1;
nodes = (
(381,383,o),
(383,346,o),
(383,311,cs),
(383,275,o),
(370,238,o),
(332,226,cs),
(324,224,o),
(316,224,o),
(309,223,c),
(210,223,ls),
(186,223,o),
(162,218,o),
(141,208,c),
(141,573,ls),
(141,606,o),
(161,640,o),
(193,649,cs),
(202,652,o),
(212,651,o),
(222,653,cs),
(239,657,o),
(255,670,o),
(255,688,cs),
(255,711,o),
(231,724,o),
(210,724,cs),
(126,724,o),
(51,660,o),
(51,574,cs),
(51,198,ls),
(51,142,o),
(51,87,o),
(51,32,cs),
(51,23,o),
(50,9,o),
(53,1,cs),
(60,-16,o),
(79,-24,o),
(96,-24,cs),
(154,-24,o),
(141,32,o),
(141,70,cs),
(141,73,ls),
(142,78,o),
(142,84,o),
(143,90,cs),
(149,123,o),
(177,151,o),
(211,151,cs),
(317,151,ls),
(333,151,o),
(349,145,o),
(360,134,cs),
(393,104,o),
(386,71,o),
(386,32,cs),
(386,1,o),
(399,-20,o),
(432,-20,cs),
(453,-20,o),
(477,-7,o),
(477,16,cs),
(477,73,ls),
(477,121,o),
(454,162,o),
(419,189,c),
(460,223,o),
(474,265,o),
(474,316,cs),
(474,327,o),
(474,337,o),
(474,347,cs),
(474,370,o),
(449,383,o),
(429,383,cs)
);
}
);
width = 528;
}
);
note = k;
unicode = 107;
},
{
glyphname = l;
layers = (
{
hints = (
{
horizontal = 1;
place = (724,-20);
target = down;
type = TopGhost;
},
{
horizontal = 1;
place = (-24,72);
type = Stem;
},
{
place = (51,90);
type = Stem;
}
);
layerId = m01;
shapes = (
{
closed = 1;
nodes = (
(180,48,o),
(154,72,o),
(145,101,cs),
(137,126,o),
(141,166,o),
(141,193,cs),
(141,688,ls),
(141,711,o),
(117,724,o),
(96,724,cs),
(79,724,o),
(60,716,o),
(53,699,cs),
(50,691,o),
(51,677,o),
(51,668,cs),
(51,126,ls),
(51,40,o),
(127,-24,o),
(210,-24,cs),
(221,-24,o),
(232,-25,o),
(243,-25,cs),
(268,-25,o),
(309,-22,o),
(309,12,cs),
(309,57,o),
(241,48,o),
(212,48,cs)
);
}
);
width = 340;
}
);
note = l;
unicode = 108;
},
{
glyphname = n;
layers = (
{
hints = (
{
horizontal = 1;
place = (314,72);
type = Stem;
},
{
horizontal = 1;
place = (-22,21);
target = up;
type = BottomGhost;
},
{
horizontal = 1;
place = (-23,21);
target = up;
type = BottomGhost;
},
{
place = (382,90);
type = Stem;
},
{
place = (51,90);
type = Stem;
}
);
layerId = m01;
shapes = (
{
closed = 1;
nodes = (
(141,286,o),
(173,314,o),
(220,314,cs),
(312,314,ls),
(326,314,o),
(339,309,o),
(350,301,cs),
(381,278,o),
(382,248,o),
(382,213,cs),
(382,163,ls),
(382,118,o),
(381,72,o),
(381,26,cs),
(381,-4,o),
(395,-22,o),
(427,-22,cs),
(447,-22,o),
(472,-9,o),
(472,14,cs),
(472,80,o),
(473,146,o),
(473,211,cs),
(473,230,o),
(473,249,o),
(469,267,cs),
(452,339,o),
(387,386,o),
(313,386,cs),
(278,386,o),
(225,388,o),
(190,384,cs),
(114,377,o),
(51,317,o),
(51,239,cs),
(51,171,o),
(50,104,o),
(50,36,cs),
(50,27,o),
(50,19,o),
(51,10,cs),
(54,-11,o),
(76,-23,o),
(96,-23,cs),
(116,-23,o),
(138,-11,o),
(141,10,cs),
(142,18,o),
(142,26,o),
(142,34,cs),
(142,102,o),
(141,170,o),
(141,238,cs)
);
}
);
width = 523;
}
);
note = n;
unicode = 110;
},
{
glyphname = o;
layers = (
{
hints = (
{
horizontal = 1;
place = (314,72);
type = Stem;
},
{
horizontal = 1;
place = (-26,72);
type = Stem;
},
{
place = (377,90);
type = Stem;
},
{
place = (50,90);
type = Stem;
}
);
layerId = m01;
shapes = (
{
closed = 1;
nodes = (
(50,126,ls),
(50,38,o),
(120,-26,o),
(206,-26,cs),
(311,-26,ls),
(393,-26,o),
(467,37,o),
(467,121,cs),
(467,239,ls),
(467,324,o),
(393,386,o),
(311,386,cs),
(206,386,ls),
(124,386,o),
(50,324,o),
(50,239,cs)
);
},
{
closed = 1;
nodes = (
(140,238,ls),
(140,276,o),
(167,314,o),
(208,314,cs),
(310,314,ls),
(350,314,o),
(377,276,o),
(377,238,cs),
(377,122,ls),
(377,84,o),
(350,46,o),
(310,46,cs),
(208,46,ls),
(167,46,o),
(140,84,o),
(140,122,cs)
);
}
);
width = 517;
}
);
note = o;
unicode = 111;
},
{
glyphname = q;
layers = (
{
hints = (
{
horizontal = 1;
place = (314,72);
type = Stem;
},
{
horizontal = 1;
place = (-24,72);
type = Stem;
},
{
horizontal = 1;
place = (-362,21);
target = up;
type = BottomGhost;
},
{
place = (390,90);
type = Stem;
},
{
place = (51,90);
type = Stem;
}
);
layerId = m01;
shapes = (
{
closed = 1;
nodes = (
(480,-102,o),
(480,122,o),
(480,347,cs),
(480,370,o),
(455,383,o),
(435,383,cs),
(412,383,o),
(393,370,o),
(390,347,c),
(361,372,o),
(323,386,o),
(283,386,cs),
(211,386,ls),
(127,386,o),
(51,322,o),
(51,235,cs),
(51,127,ls),
(51,40,o),
(127,-24,o),
(211,-24,cs),
(283,-24,ls),
(323,-24,o),
(360,-10,o),
(389,14,c),
(389,-49,o),
(390,-112,o),
(390,-176,cs),
(390,-276,ls),
(390,-293,o),
(389,-311,o),
(390,-328,cs),
(392,-350,o),
(415,-362,o),
(435,-362,cs),
(456,-362,o),
(480,-349,o),
(480,-326,cs)
);
},
{
closed = 1;
nodes = (
(212,48,ls),
(170,48,o),
(141,88,o),
(141,128,cs),
(141,234,ls),
(141,274,o),
(170,314,o),
(212,314,cs),
(318,314,ls),
(366,314,o),
(389,269,o),
(389,227,cs),
(389,150,ls),
(389,115,o),
(388,84,o),
(357,61,cs),
(346,53,o),
(332,48,o),
(318,48,cs)
);
}
);
width = 531;
}
);
note = q;
unicode = 113;
},
{
glyphname = p;
layers = (
{
hints = (
{
horizontal = 1;
place = (314,72);
type = Stem;
},
{
horizontal = 1;
place = (-24,72);
type = Stem;
},
{
horizontal = 1;
place = (-9,21);
target = up;
type = BottomGhost;
},
{
horizontal = 1;
place = (-362,21);
target = up;
type = BottomGhost;
},
{
place = (389,90);
type = Stem;
},
{
place = (51,90);
type = Stem;
}
);
layerId = m01;
shapes = (
{
closed = 1;
nodes = (
(319,-24,ls),
(403,-24,o),
(479,40,o),
(479,127,cs),
(479,235,ls),
(479,322,o),
(403,386,o),
(319,386,cs),
(211,386,ls),
(147,386,o),
(90,351,o),
(63,292,cs),
(53,270,o),
(51,245,o),
(51,222,cs),
(51,-326,ls),
(51,-349,o),
(76,-362,o),
(96,-362,cs),
(113,-362,o),
(130,-354,o),
(138,-338,cs),
(142,-331,o),
(141,-319,o),
(141,-310,cs),
(141,-210,o),
(141,-109,o),
(141,-9,c),
(162,-19,o),
(186,-24,o),
(211,-24,cs)
);
},
{
closed = 1;
nodes = (
(140,213,o),
(140,245,o),
(145,260,cs),
(154,290,o),
(181,314,o),
(212,314,cs),
(318,314,ls),
(360,314,o),
(389,274,o),
(389,234,cs),
(389,128,ls),
(389,88,o),
(360,48,o),
(318,48,cs),
(212,48,ls),
(178,48,o),
(149,77,o),
(143,110,cs),
(141,117,o),
(142,125,o),
(140,133,c),
(140,154,o),
(140,175,o),
(140,196,cs)
);
}
);
width = 530;
}
);
note = p;
unicode = 112;
},
{
glyphname = r;
layers = (
{
hints = (
{
horizontal = 1;
place = (315,72);
type = Stem;
},
{
horizontal = 1;
place = (-24,21);
target = up;
type = BottomGhost;
},
{
place = (51,92);
type = Stem;
}
);
layerId = m01;
shapes = (
{
closed = 1;
nodes = (
(142,246,o),
(142,249,o),
(142,253,c),
(148,292,o),
(178,315,o),
(219,315,cs),
(231,315,o),
(242,314,o),
(253,314,cs),
(276,314,o),
(306,322,o),
(306,350,cs),
(306,391,o),
(248,387,o),
(220,387,cs),
(188,387,o),
(151,369,o),
(132,332,c),
(130,360,o),
(121,383,o),
(97,383,cs),
(66,383,o),
(51,365,o),
(51,335,cs),
(52,85,ls),
(52,68,o),
(51,51,o),
(51,34,cs),
(51,26,o),
(51,17,o),
(52,9,cs),
(55,-13,o),
(77,-24,o),
(97,-24,cs),
(117,-24,o),
(139,-13,o),
(142,9,cs),
(143,17,o),
(143,25,o),
(143,33,cs),
(143,102,o),
(142,171,o),
(142,240,cs)
);
}
);
width = 336;
}
);
note = r;
unicode = 114;
},
{
glyphname = s;
layers = (
{
hints = (
{
horizontal = 1;
place = (314,72);
type = Stem;
},
{
horizontal = 1;
place = (151,72);
type = Stem;
},
{
horizontal = 1;
place = (-24,71);
type = Stem;
},
{
place = (378,90);
type = Stem;
},
{
place = (50,90);
type = Stem;
}
);
layerId = m01;
shapes = (
{
closed = 1;
nodes = (
(206,386,ls),
(141,386,o),
(50,344,o),
(50,269,cs),
(50,245,o),
(59,222,o),
(74,204,cs),
(129,137,o),
(234,151,o),
(310,151,cs),
(347,151,o),
(378,135,o),
(378,94,cs),
(378,50,o),
(323,47,o),
(291,47,cs),
(235,47,o),
(180,49,o),
(125,49,cs),
(100,49,o),
(61,46,o),
(61,12,cs),
(61,-11,o),
(86,-24,o),
(106,-24,cs),
(311,-24,ls),
(381,-24,o),
(468,13,o),
(468,94,cs),
(468,237,o),
(304,223,o),
(207,223,cs),
(179,223,o),
(140,234,o),
(140,268,cs),
(140,298,o),
(183,314,o),
(208,314,cs),
(310,314,ls),
(383,314,o),
(357,230,o),
(419,230,cs),
(440,230,o),
(464,243,o),
(464,266,cs),
(464,278,o),
(458,291,o),
(453,302,cs),
(426,355,o),
(370,386,o),
(311,386,cs)
);
}
);
width = 518;
}
);
note = s;
unicode = 115;
},
{
glyphname = t;
layers = (
{
hints = (
{
horizontal = 1;
place = (724,-20);
target = down;
type = TopGhost;
},
{
horizontal = 1;
place = (314,72);
type = Stem;
},
{
horizontal = 1;
place = (-25,73);
type = Stem;
},
{
place = (51,90);
type = Stem;
}
);
layerId = m01;
shapes = (
{
closed = 1;
nodes = (
(141,505,l),
(141,630,ls),
(141,669,o),
(154,724,o),
(96,724,cs),
(79,724,o),
(60,716,o),
(53,699,cs),
(50,691,o),
(51,678,o),
(51,669,cs),
(51,488,o),
(51,308,o),
(51,127,cs),
(51,40,o),
(127,-24,o),
(211,-24,cs),
(222,-24,o),
(233,-25,o),
(244,-25,cs),
(269,-25,o),
(310,-22,o),
(310,12,cs),
(310,35,o),
(285,48,o),
(265,48,cs),
(223,48,o),
(180,40,o),
(154,82,cs),
(146,96,o),
(141,112,o),
(141,128,cs),
(141,251,l),
(147,292,o),
(177,314,o),
(218,314,cs),
(246,314,o),
(310,306,o),
(310,350,cs),
(310,392,o),
(251,386,o),
(223,386,cs),
(193,386,o),
(169,384,o),
(141,372,c)
);
}
);
width = 360;
}
);
note = t;
unicode = 116;
},
{
glyphname = u;
layers = (
{
hints = (
{
horizontal = 1;
place = (-24,72);
type = Stem;
},
{
horizontal = 1;
place = (-2,21);
target = up;
type = BottomGhost;
},
{
place = (380,92);
type = Stem;
},
{
place = (51,90);
type = Stem;
}
);
layerId = m01;
shapes = (
{
closed = 1;
nodes = (
(393,-15,o),
(411,-22,o),
(426,-22,cs),
(435,-22,o),
(444,-19,o),
(452,-14,cs),
(478,1,o),
(471,34,o),
(471,59,cs),
(471,81,o),
(471,77,o),
(471,112,cs),
(471,117,o),
(471,120,o),
(471,124,cs),
(471,191,o),
(472,258,o),
(472,325,cs),
(472,335,o),
(472,344,o),
(471,353,cs),
(468,375,o),
(446,386,o),
(426,386,cs),
(406,386,o),
(384,375,o),
(381,353,cs),
(380,345,o),
(380,337,o),
(380,329,cs),
(380,266,o),
(381,202,o),
(381,139,c),
(380,130,o),
(380,120,o),
(380,111,c),
(375,78,o),
(350,48,o),
(314,48,cs),
(309,48,o),
(304,48,o),
(299,48,cs),
(270,48,ls),
(265,48,o),
(261,48,o),
(256,48,cs),
(242,48,o),
(204,47,o),
(192,51,cs),
(149,65,o),
(140,104,o),
(140,144,cs),
(140,212,o),
(141,281,o),
(141,350,cs),
(141,373,o),
(117,386,o),
(96,386,cs),
(76,386,o),
(54,374,o),
(52,353,c),
(50,344,o),
(50,335,o),
(50,326,cs),
(50,310,o),
(51,294,o),
(51,278,cs),
(51,227,o),
(51,176,o),
(51,125,cs),
(51,94,o),
(61,64,o),
(79,40,cs),
(106,4,o),
(147,-24,o),
(191,-24,cs),
(292,-24,ls),
(309,-24,o),
(348,-19,o),
(385,-2,c)
);
}
);
width = 522;
}
);
note = u;
unicode = 117;
},
{
glyphname = v;
layers = (
{
hints = (
{
horizontal = 1;
place = (-24,71);
type = Stem;
},
{
place = (378,89);
type = Stem;
},
{
place = (50,91);
type = Stem;
}
);
layerId = m01;
shapes = (
{
closed = 1;
nodes = (
(50,12,ls),
(50,-11,o),
(75,-24,o),
(95,-24,cs),
(229,-24,ls),
(234,-24,o),
(239,-24,o),
(243,-24,cs),
(272,-25,ls),
(296,-25,o),
(319,-25,o),
(343,-21,cs),
(412,-8,o),
(467,51,o),
(467,122,cs),
(467,350,ls),
(467,373,o),
(442,386,o),
(422,386,cs),
(405,386,o),
(387,378,o),
(380,362,cs),
(376,355,o),
(376,306,o),
(376,296,cs),
(376,284,o),
(376,273,o),
(376,261,cs),
(378,190,ls),
(378,179,o),
(378,167,o),
(378,155,cs),
(378,142,o),
(378,127,o),
(377,114,cs),
(373,86,o),
(355,60,o),
(328,51,cs),
(315,47,o),
(249,47,o),
(234,47,cs),
(202,47,o),
(171,48,o),
(140,48,c),
(140,138,o),
(141,228,o),
(141,317,cs),
(141,328,o),
(142,353,o),
(137,362,cs),
(130,378,o),
(112,386,o),
(95,386,cs),
(75,386,o),
(50,373,o),
(50,350,cs)
);
}
);
width = 517;
}
);
note = v;
unicode = 118;
},
{
glyphname = w;
layers = (
{
hints = (
{
horizontal = 1;
place = (-24,73);
type = Stem;
},
{
place = (638,89);
type = Stem;
},
{
place = (343,91);
type = Stem;
},
{
place = (51,90);
type = Stem;
}
);
layerId = m01;
shapes = (
{
closed = 1;
nodes = (
(140,160,o),
(140,178,o),
(140,195,cs),
(141,298,ls),
(141,316,o),
(141,333,o),
(141,350,cs),
(141,373,o),
(117,386,o),
(96,386,cs),
(76,386,o),
(54,374,o),
(52,353,c),
(50,344,o),
(50,335,o),
(50,326,cs),
(50,259,o),
(51,191,o),
(51,123,cs),
(51,37,o),
(125,-23,o),
(208,-23,cs),
(212,-23,o),
(216,-23,o),
(220,-23,cs),
(244,-24,ls),
(300,-24,o),
(345,-19,o),
(388,21,c),
(424,-14,o),
(465,-23,o),
(513,-23,cs),
(537,-24,ls),
(559,-24,o),
(581,-24,o),
(603,-20,cs),
(660,-7,o),
(713,37,o),
(724,97,cs),
(727,114,o),
(727,132,o),
(727,149,cs),
(727,216,o),
(727,282,o),
(727,349,cs),
(727,372,o),
(702,385,o),
(682,385,cs),
(673,385,o),
(663,383,o),
(656,378,cs),
(638,368,o),
(637,357,o),
(637,338,cs),
(637,327,o),
(637,315,o),
(637,304,cs),
(638,235,ls),
(638,223,o),
(638,212,o),
(638,200,cs),
(638,180,o),
(638,117,o),
(633,100,cs),
(616,49,o),
(577,48,o),
(531,48,cs),
(512,49,ls),
(465,49,o),
(437,74,o),
(434,122,c),
(434,350,ls),
(434,373,o),
(410,386,o),
(389,386,cs),
(369,386,o),
(347,374,o),
(344,353,cs),
(343,344,o),
(343,335,o),
(343,326,cs),
(343,311,o),
(343,295,o),
(343,279,cs),
(344,186,ls),
(344,170,o),
(344,155,o),
(344,139,cs),
(339,60,o),
(313,48,o),
(238,48,cs),
(219,49,ls),
(155,49,o),
(140,89,o),
(140,143,cs)
);
}
);
width = 778;
}
);
note = w;
unicode = 119;
},
{
glyphname = x;
layers = (
{
hints = (
{
horizontal = 1;
place = (314,72);
type = Stem;
},
{
horizontal = 1;
place = (-25,72);
type = Stem;
},
{
place = (214,90);
type = Stem;
}
);
layerId = m01;
shapes = (
{
closed = 1;
nodes = (
(148,-25,ls),
(190,-25,o),
(230,-9,o),
(259,19,c),
(287,-9,o),
(326,-25,o),
(370,-25,cs),
(422,-25,ls),
(442,-25,o),
(467,-12,o),
(467,11,cs),
(467,19,o),
(463,27,o),
(458,33,cs),
(439,53,o),
(407,47,o),
(382,47,cs),
(336,47,o),
(308,71,o),
(304,116,c),
(304,243,l),
(308,277,o),
(328,309,o),
(365,314,cs),
(377,315,o),
(391,314,o),
(403,314,cs),
(429,314,o),
(468,316,o),
(468,350,cs),
(468,373,o),
(443,386,o),
(423,386,cs),
(370,386,ls),
(328,386,o),
(288,369,o),
(259,342,c),
(231,369,o),
(192,386,o),
(148,386,cs),
(95,386,ls),
(75,386,o),
(50,373,o),
(50,350,cs),
(50,342,o),
(54,334,o),
(59,329,cs),
(78,308,o),
(110,315,o),
(135,315,cs),
(198,315,o),
(214,273,o),
(214,219,cs),
(213,129,ls),
(213,126,o),
(213,123,o),
(214,120,c),
(207,65,o),
(182,47,o),
(128,47,cs),
(112,48,ls),
(87,48,o),
(51,43,o),
(51,11,cs),
(51,-12,o),
(76,-25,o),
(96,-25,cs)
);
}
);
width = 518;
}
);
note = x;
unicode = 120;
},
{
glyphname = y;
layers = (
{
hints = (
{
horizontal = 1;
place = (-24,72);
type = Stem;
},
{
horizontal = 1;
place = (-362,72);
type = Stem;
},
{
place = (389,90);
type = Stem;
},
{
place = (51,90);
type = Stem;
}
);
layerId = m01;
shapes = (
{
closed = 1;
nodes = (
(51,127,ls),
(51,41,o),
(127,-24,o),
(211,-24,cs),
(310,-24,ls),
(356,-24,o),
(388,-57,o),
(388,-104,cs),
(388,-210,ls),
(388,-258,o),
(355,-291,o),
(307,-291,cs),
(276,-291,o),
(244,-290,o),
(212,-290,cs),
(195,-290,o),
(179,-283,o),
(167,-272,cs),
(139,-246,o),
(141,-216,o),
(141,-182,cs),
(141,-158,o),
(141,-133,o),
(141,-109,cs),
(141,-82,o),
(122,-67,o),
(96,-67,cs),
(75,-67,o),
(51,-80,o),
(51,-103,cs),
(51,-211,ls),
(51,-298,o),
(127,-362,o),
(211,-362,cs),
(312,-362,ls),
(399,-362,o),
(478,-303,o),
(478,-211,cs),
(478,-103,ls),
(478,-56,o),
(456,-15,o),
(422,12,c),
(456,39,o),
(479,80,o),
(479,127,cs),
(479,350,ls),
(479,373,o),
(454,386,o),
(434,386,cs),
(417,386,o),
(399,378,o),
(392,362,cs),
(386,351,o),
(389,327,o),
(389,314,cs),
(389,152,ls),
(389,116,o),
(388,85,o),
(357,62,cs),
(346,53,o),
(332,48,o),
(318,48,cs),
(212,48,ls),
(198,48,o),
(184,53,o),
(173,62,cs),
(142,85,o),
(141,115,o),
(141,151,cs),
(141,335,ls),
(141,365,o),
(128,383,o),
(96,383,cs),
(75,383,o),
(51,370,o),
(51,347,cs)
);
}
);
width = 529;
}
);
note = y;
unicode = 121;
},
{
glyphname = z;
layers = (
{
hints = (
{
horizontal = 1;
place = (314,72);
type = Stem;
},
{
horizontal = 1;
place = (-25,73);
type = Stem;
},
{
place = (50,89);
type = Stem;
}
);
layerId = m01;
shapes = (
{
closed = 1;
nodes = (
(330,314,l),
(146,124,l),
(86,62,ls),
(76,52,o),
(66,42,o),
(57,31,cs),
(53,26,o),
(50,19,o),
(50,12,cs),
(50,-27,o),
(103,-25,o),
(129,-25,cs),
(227,-25,o),
(324,-24,o),
(422,-24,cs),
(443,-24,o),
(467,-11,o),
(467,12,cs),
(467,61,o),
(378,48,o),
(347,48,cs),
(187,48,l),
(371,238,l),
(431,300,ls),
(441,310,o),
(452,319,o),
(460,330,cs),
(464,336,o),
(467,342,o),
(467,350,cs),
(467,389,o),
(416,386,o),
(389,386,cs),
(332,386,l),
(206,386,ls),
(124,386,o),
(50,324,o),
(50,239,cs),
(50,216,o),
(75,203,o),
(95,203,cs),
(114,203,o),
(135,213,o),
(139,233,cs),
(141,240,o),
(140,248,o),
(142,255,cs),
(148,287,o),
(175,314,o),
(208,314,cs)
);
}
);
width = 518;
}
);
note = z;
unicode = 122;
},
{
glyphname = one;
layers = (
{
hints = (
{
horizontal = 1;
place = (652,73);
type = Stem;
},
{
horizontal = 1;
place = (-24,21);
target = up;
type = BottomGhost;
},
{
place = (219,91);
type = Stem;
},
{
place = (51,89);
type = Stem;
}
);
layerId = m01;
shapes = (
{
closed = 1;
nodes = (
(310,688,ls),
(310,722,o),
(267,725,o),
(241,725,cs),
(231,725,o),
(221,724,o),
(211,724,cs),
(127,724,o),
(51,660,o),
(51,573,cs),
(51,550,o),
(76,537,o),
(96,537,cs),
(115,537,o),
(135,547,o),
(140,567,cs),
(142,575,o),
(141,583,o),
(143,591,cs),
(149,623,o),
(178,652,o),
(212,652,cs),
(220,652,l),
(220,519,o),
(219,385,o),
(219,252,cs),
(219,233,o),
(219,9,o),
(221,3,cs),
(229,-15,o),
(245,-24,o),
(265,-24,cs),
(285,-24,o),
(310,-11,o),
(310,12,cs)
);
}
);
width = 360;
}
);
note = one;
unicode = 49;
},
{
glyphname = two;
layers = (
{
hints = (
{
horizontal = 1;
place = (652,72);
type = Stem;
},
{
horizontal = 1;
place = (315,72);
type = Stem;
},
{
horizontal = 1;
place = (-24,72);
type = Stem;
},
{
place = (389,90);
type = Stem;
},
{
place = (51,90);
type = Stem;
}
);
layerId = m01;
shapes = (
{
closed = 1;
nodes = (
(318,652,ls),
(360,652,o),
(389,612,o),
(389,572,cs),
(389,466,ls),
(389,448,o),
(384,430,o),
(373,416,cs),
(347,381,o),
(318,387,o),
(280,387,cs),
(246,387,ls),
(179,387,o),
(125,381,o),
(81,324,cs),
(62,299,o),
(51,267,o),
(51,236,cs),
(51,169,o),
(50,101,o),
(50,34,cs),
(50,26,o),
(50,17,o),
(51,9,cs),
(54,-13,o),
(76,-24,o),
(96,-24,cs),
(434,-24,ls),
(455,-24,o),
(479,-11,o),
(479,12,cs),
(479,28,o),
(466,40,o),
(451,45,cs),
(431,52,o),
(365,48,o),
(340,48,cs),
(141,48,l),
(141,235,ls),
(141,268,o),
(161,302,o),
(193,312,cs),
(212,318,o),
(237,315,o),
(256,315,cs),
(331,315,o),
(397,310,o),
(448,376,cs),
(468,402,o),
(479,432,o),
(479,465,cs),
(479,573,ls),
(479,660,o),
(403,724,o),
(319,724,cs),
(110,724,ls),
(86,724,o),
(51,720,o),
(51,688,cs),
(51,648,o),
(103,652,o),
(131,652,cs)
);
}
);
width = 530;
}
);
note = two;
unicode = 50;
},
{
glyphname = three;
layers = (
{
hints = (
{
horizontal = 1;
place = (652,72);
type = Stem;
},
{
horizontal = 1;
place = (314,72);
type = Stem;
},
{
horizontal = 1;
place = (-24,73);
type = Stem;
},
{
place = (389,90);
type = Stem;
}
);
layerId = m01;
shapes = (
{
closed = 1;
nodes = (
(318,652,ls),
(360,652,o),
(389,612,o),
(389,572,cs),
(389,466,ls),
(389,433,o),
(369,398,o),
(337,389,cs),
(330,387,o),
(324,387,o),
(317,386,c),
(156,386,ls),
(130,386,o),
(83,388,o),
(83,350,cs),
(83,312,o),
(130,314,o),
(156,314,cs),
(316,314,ls),
(317,314,o),
(318,314,o),
(319,314,cs),
(361,312,o),
(389,273,o),
(389,234,cs),
(389,128,ls),
(389,94,o),
(369,61,o),
(337,51,cs),
(324,47,o),
(257,47,o),
(242,47,cs),
(197,47,o),
(151,49,o),
(106,49,cs),
(84,49,o),
(51,41,o),
(51,12,cs),
(51,-11,o),
(75,-24,o),
(96,-24,cs),
(319,-24,ls),
(403,-24,o),
(479,40,o),
(479,127,cs),
(479,235,ls),
(479,282,o),
(457,323,o),
(423,350,c),
(457,377,o),
(479,418,o),
(479,465,cs),
(479,573,ls),
(479,660,o),
(403,724,o),
(319,724,cs),
(114,724,ls),
(89,724,o),
(51,722,o),
(51,688,cs),
(51,648,o),
(103,652,o),
(131,652,cs)
);
}
);
width = 530;
}
);
note = three;
unicode = 51;
},
{
glyphname = four;
layers = (
{
hints = (
{
horizontal = 1;
place = (724,-20);
target = down;
type = TopGhost;
},
{
horizontal = 1;
place = (314,72);
type = Stem;
},
{
horizontal = 1;
place = (-24,21);
target = up;
type = BottomGhost;
},
{
place = (389,90);
type = Stem;
}
);
layerId = m01;
shapes = (
{
closed = 1;
nodes = (
(190,386,l),
(443,639,ls),
(456,652,o),
(479,669,o),
(479,688,cs),
(479,711,o),
(455,724,o),
(434,724,cs),
(402,724,o),
(383,694,o),
(362,674,cs),
(131,442,ls),
(107,418,o),
(81,396,o),
(59,371,cs),
(54,365,o),
(51,358,o),
(51,350,cs),
(51,327,o),
(75,314,o),
(96,314,cs),
(194,314,o),
(291,313,o),
(389,313,c),
(389,213,o),
(389,112,o),
(389,12,cs),
(389,-11,o),
(414,-24,o),
(434,-24,cs),
(451,-24,o),
(470,-16,o),
(477,1,cs),
(480,9,o),
(479,21,o),
(479,29,cs),
(479,519,ls),
(479,542,o),
(455,555,o),
(434,555,cs),
(417,555,o),
(398,547,o),
(391,530,cs),
(388,522,o),
(389,510,o),
(389,502,cs),
(389,464,o),
(389,425,o),
(389,387,c),
(374,387,o),
(361,386,o),
(352,386,cs)
);
}
);
width = 530;
}
);
note = four;
unicode = 52;
},
{
glyphname = five;
layers = (
{
hints = (
{
horizontal = 1;
place = (651,73);
type = Stem;
},
{
horizontal = 1;
place = (314,72);
type = Stem;
},
{
horizontal = 1;
place = (-24,72);
type = Stem;
},
{
place = (389,90);
type = Stem;
},
{
place = (51,90);
type = Stem;
}
);
layerId = m01;
shapes = (
{
closed = 1;
nodes = (
(96,724,ls),
(75,724,o),
(51,711,o),
(51,688,cs),
(51,350,ls),
(51,310,o),
(103,314,o),
(131,314,cs),
(188,314,l),
(318,314,ls),
(360,314,o),
(389,274,o),
(389,234,cs),
(389,128,ls),
(389,112,o),
(385,96,o),
(376,83,cs),
(355,47,o),
(328,48,o),
(291,48,cs),
(231,48,l),
(96,48,ls),
(75,48,o),
(51,35,o),
(51,12,cs),
(51,-22,o),
(89,-24,o),
(114,-24,cs),
(188,-24,l),
(319,-24,ls),
(403,-24,o),
(479,40,o),
(479,127,cs),
(479,235,ls),
(479,266,o),
(469,297,o),
(450,322,cs),
(399,390,o),
(337,386,o),
(261,386,cs),
(141,386,l),
(141,652,l),
(229,652,o),
(316,651,o),
(404,651,cs),
(430,651,o),
(479,650,o),
(479,688,cs),
(479,711,o),
(455,724,o),
(434,724,cs)
);
}
);
width = 530;
}
);
note = five;
unicode = 53;
},
{
glyphname = six;
layers = (
{
hints = (
{
place = (652,72);
type = Stem;
},
{
place = (390,90);
type = Stem;
},
{
place = (377,89);
type = Stem;
},
{
place = (314,72);
type = Stem;
},
{
place = (52,90);
type = Stem;
},
{
place = (-24,72);
type = Stem;
}
);
layerId = m01;
shapes = (
{
closed = 1;
nodes = (
(212,724,ls),
(133,724,o),
(62,668,o),
(53,588,cs),
(50,564,o),
(52,539,o),
(52,515,cs),
(52,385,o),
(51,256,o),
(51,127,cs),
(51,40,o),
(126,-24,o),
(210,-24,cs),
(320,-24,ls),
(404,-24,o),
(480,40,o),
(480,127,cs),
(480,235,ls),
(480,322,o),
(404,386,o),
(320,386,cs),
(211,386,ls),
(187,386,o),
(163,380,o),
(141,370,c),
(141,432,o),
(142,494,o),
(142,556,cs),
(142,570,o),
(142,585,o),
(146,599,cs),
(156,628,o),
(181,652,o),
(213,652,cs),
(305,652,ls),
(339,652,o),
(368,623,o),
(374,590,cs),
(376,583,o),
(375,575,o),
(377,567,cs),
(382,547,o),
(402,537,o),
(421,537,cs),
(442,537,o),
(466,550,o),
(466,573,cs),
(466,660,o),
(390,724,o),
(306,724,cs)
);
},
{
closed = 1;
nodes = (
(143,236,o),
(142,244,o),
(143,252,cs),
(149,285,o),
(178,314,o),
(212,314,cs),
(318,314,ls),
(361,314,o),
(390,274,o),
(390,234,cs),
(390,127,ls),
(390,88,o),
(361,48,o),
(318,48,cs),
(212,48,ls),
(170,48,o),
(141,88,o),
(141,127,cs),
(141,161,o),
(141,195,o),
(141,229,c)
);
}
);
width = 530;
}
);
note = six;
unicode = 54;
},
{
glyphname = zero;
layers = (
{
hints = (
{
horizontal = 1;
place = (652,72);
type = Stem;
},
{
horizontal = 1;
place = (-24,72);
type = Stem;
},
{
place = (389,90);
type = Stem;
},
{
place = (51,90);
type = Stem;
}
);
layerId = m01;
shapes = (
{
closed = 1;
nodes = (
(141,572,ls),
(141,612,o),
(170,652,o),
(212,652,cs),
(318,652,ls),
(360,652,o),
(389,612,o),
(389,572,cs),
(389,128,ls),
(389,88,o),
(360,48,o),
(318,48,cs),
(212,48,ls),
(170,48,o),
(141,88,o),
(141,128,cs)
);
},
{
closed = 1;
nodes = (
(51,127,ls),
(51,40,o),
(127,-24,o),
(211,-24,cs),
(319,-24,ls),
(403,-24,o),
(479,40,o),
(479,127,cs),
(479,573,ls),
(479,660,o),
(403,724,o),
(319,724,cs),
(211,724,ls),
(127,724,o),
(51,660,o),
(51,573,cs)
);
}
);
width = 530;
}
);
note = zero;
unicode = 48;
},
{
glyphname = eight;
layers = (
{
hints = (
{
place = (652,72);
type = Stem;
},
{
place = (389,90);
type = Stem;
},
{
place = (314,72);
type = Stem;
},
{
place = (51,90);
type = Stem;
},
{
place = (-24,72);
type = Stem;
}
);
layerId = m01;
shapes = (
{
closed = 1;
nodes = (
(51,465,ls),
(51,418,o),
(73,377,o),
(107,350,c),
(73,323,o),
(51,282,o),
(51,235,cs),
(51,127,ls),
(51,40,o),
(127,-24,o),
(211,-24,cs),
(319,-24,ls),
(403,-24,o),
(479,40,o),
(479,127,cs),
(479,235,ls),
(479,282,o),
(457,323,o),
(423,350,c),
(457,377,o),
(479,418,o),
(479,465,cs),
(479,573,ls),
(479,660,o),
(403,724,o),
(319,724,cs),
(211,724,ls),
(127,724,o),
(51,660,o),
(51,573,cs)
);
},
{
closed = 1;
nodes = (
(141,572,ls),
(141,612,o),
(170,652,o),
(212,652,cs),
(318,652,ls),
(360,652,o),
(389,612,o),
(389,572,cs),
(389,466,ls),
(389,427,o),
(361,388,o),
(319,386,cs),
(211,386,ls),
(169,388,o),
(141,427,o),
(141,466,cs)
);
},
{
closed = 1;
nodes = (
(141,234,ls),
(141,273,o),
(169,312,o),
(211,314,cs),
(319,314,ls),
(361,312,o),
(389,273,o),
(389,234,cs),
(389,128,ls),
(389,88,o),
(360,48,o),
(318,48,cs),
(212,48,ls),
(170,48,o),
(141,88,o),
(141,128,cs)
);
}
);
width = 530;
}
);
note = eight;
unicode = 56;
},
{
glyphname = seven;
layers = (
{
hints = (
{
horizontal = 1;
place = (652,72);
type = Stem;
},
{
horizontal = 1;
place = (-24,21);
target = up;
type = BottomGhost;
},
{
place = (389,90);
type = Stem;
}
);
layerId = m01;
shapes = (
{
closed = 1;
nodes = (
(317,652,ls),
(349,652,o),
(376,628,o),
(385,599,cs),
(389,583,o),
(389,551,o),
(389,535,cs),
(389,366,o),
(388,197,o),
(388,28,cs),
(388,19,o),
(388,8,o),
(391,0,cs),
(399,-16,o),
(417,-24,o),
(434,-24,cs),
(454,-24,o),
(479,-11,o),
(479,12,cs),
(479,195,o),
(479,377,o),
(479,560,cs),
(479,583,o),
(477,608,o),
(467,630,cs),
(439,689,o),
(384,724,o),
(319,724,cs),
(111,724,ls),
(86,724,o),
(51,720,o),
(51,688,cs),
(51,648,o),
(103,652,o),
(131,652,cs),
(188,652,l)
);
}
);
width = 530;
}
);
note = seven;
unicode = 55;
},
{
glyphname = nine;
layers = (
{
hints = (
{
place = (652,72);
type = Stem;
},
{
place = (389,90);
type = Stem;
},
{
place = (314,72);
type = Stem;
},
{
place = (51,90);
type = Stem;
},
{
place = (-24,72);
type = Stem;
}
);
layerId = m01;
shapes = (
{
closed = 1;
nodes = (
(51,465,ls),
(51,378,o),
(127,314,o),
(211,314,cs),
(389,314,l),
(389,314,o),
(389,314,o),
(389,314,c),
(389,152,ls),
(389,116,o),
(389,85,o),
(357,62,cs),
(346,53,o),
(332,48,o),
(318,48,cs),
(212,48,ls),
(178,48,o),
(149,77,o),
(143,110,cs),
(141,117,o),
(142,125,o),
(140,133,cs),
(136,153,o),
(115,163,o),
(96,163,cs),
(75,163,o),
(51,150,o),
(51,127,cs),
(51,40,o),
(127,-24,o),
(211,-24,cs),
(319,-24,ls),
(403,-24,o),
(479,40,o),
(479,127,cs),
(479,350,l),
(480,354,o),
(480,358,o),
(480,362,cs),
(480,397,o),
(479,431,o),
(479,465,cs),
(479,573,ls),
(479,660,o),
(403,724,o),
(319,724,cs),
(211,724,ls),
(127,724,o),
(51,660,o),
(51,573,cs)
);
},
{
closed = 1;
nodes = (
(141,572,ls),
(141,612,o),
(170,652,o),
(212,652,cs),
(318,652,ls),
(360,652,o),
(389,612,o),
(389,572,cs),
(389,465,l),
(389,386,l),
(212,386,ls),
(170,386,o),
(141,426,o),
(141,466,cs)
);
}
);
width = 531;
}
);
note = nine;
unicode = 57;
},
{
glyphname = m;
layers = (
{
hints = (
{
horizontal = 1;
place = (313,72);
type = Stem;
},
{
horizontal = 1;
place = (-21,21);
target = up;
type = BottomGhost;
},
{
horizontal = 1;
place = (-22,21);
target = up;
type = BottomGhost;
},
{
place = (638,89);
type = Stem;
},
{
place = (343,92);
type = Stem;
},
{
place = (51,91);
type = Stem;
}
);
layerId = m01;
shapes = (
{
closed = 1;
nodes = (
(434,277,o),
(461,313,o),
(502,313,cs),
(515,313,o),
(528,314,o),
(541,314,cs),
(558,314,o),
(582,314,o),
(597,306,cs),
(614,297,o),
(627,280,o),
(633,262,cs),
(638,246,o),
(638,179,o),
(638,160,cs),
(638,127,o),
(637,95,o),
(637,63,cs),
(637,26,ls),
(637,7,o),
(638,-4,o),
(655,-14,cs),
(663,-19,o),
(673,-21,o),
(682,-21,cs),
(702,-21,o),
(727,-8,o),
(727,15,cs),
(727,80,o),
(727,146,o),
(727,211,cs),
(727,229,o),
(727,247,o),
(724,265,cs),
(713,325,o),
(660,369,o),
(603,381,cs),
(585,385,o),
(567,386,o),
(549,386,cs),
(545,386,o),
(541,386,o),
(537,386,cs),
(513,385,ls),
(509,385,o),
(505,385,o),
(501,385,cs),
(457,385,o),
(417,369,o),
(388,341,c),
(348,379,o),
(304,386,o),
(252,386,cs),
(237,386,o),
(222,385,o),
(208,385,cs),
(125,385,o),
(51,325,o),
(51,239,cs),
(51,172,o),
(50,104,o),
(50,37,cs),
(50,5,o),
(55,-22,o),
(96,-22,cs),
(116,-22,o),
(139,-10,o),
(141,11,cs),
(142,19,o),
(142,27,o),
(142,35,cs),
(142,103,o),
(141,171,o),
(141,238,cs),
(141,277,o),
(168,313,o),
(209,313,cs),
(253,313,ls),
(280,313,o),
(300,314,o),
(320,294,cs),
(331,283,o),
(339,269,o),
(342,254,cs),
(343,248,o),
(343,241,o),
(344,234,c),
(344,168,o),
(343,102,o),
(343,36,cs),
(343,27,o),
(343,19,o),
(344,11,cs),
(347,-10,o),
(369,-22,o),
(389,-22,cs),
(409,-22,o),
(431,-10,o),
(434,11,cs),
(435,19,o),
(435,27,o),
(435,35,cs),
(435,103,o),
(434,171,o),
(434,238,cs)
);
}
);
width = 778;
}
);
note = m;
unicode = 109;
},
{
glyphname = M;
layers = (
{
hints = (
{
horizontal = 1;
place = (652,72);
type = Stem;
},
{
horizontal = 1;
place = (-23,21);
target = up;
type = BottomGhost;
},
{
horizontal = 1;
place = (-24,21);
target = up;
type = BottomGhost;
},
{
place = (727,90);
type = Stem;
},
{
place = (389,90);
type = Stem;
},
{
place = (51,90);
type = Stem;
}
);
layerId = m01;
shapes = (
{
closed = 1;
nodes = (
(655,652,ls),
(736,652,o),
(727,559,o),
(727,506,cs),
(726,12,ls),
(726,-11,o),
(751,-24,o),
(771,-24,cs),
(802,-24,o),
(817,-6,o),
(817,23,cs),
(817,573,ls),
(817,660,o),
(741,724,o),
(657,724,cs),
(549,724,ls),
(502,724,o),
(462,707,o),
(434,678,c),
(404,707,o),
(363,724,o),
(319,724,cs),
(211,724,ls),
(116,724,o),
(51,653,o),
(51,560,cs),
(51,13,ls),
(51,-10,o),
(76,-23,o),
(96,-23,cs),
(113,-23,o),
(131,-15,o),
(139,0,cs),
(145,15,o),
(141,476,o),
(141,534,cs),
(141,583,o),
(146,652,o),
(212,652,cs),
(318,652,ls),
(373,652,o),
(389,608,o),
(389,563,cs),
(389,380,o),
(389,195,o),
(389,12,cs),
(389,-11,o),
(413,-24,o),
(434,-24,cs),
(453,-24,o),
(465,-17,o),
(473,-6,c),
(475,-2,o),
(476,0,o),
(477,4,cs),
(478,10,o),
(479,16,o),
(479,23,cs),
(479,148,o),
(479,274,o),
(479,400,cs),
(479,560,ls),
(479,604,o),
(495,652,o),
(550,652,cs)
);
}
);
width = 867;
}
);
note = M;
unicode = 77;
},
{
glyphname = A.ss01;
layers = (
{
hints = (
{
horizontal = 1;
place = (652,72);
type = Stem;
},
{
horizontal = 1;
place = (312,73);
type = Stem;
},
{
horizontal = 1;
place = (-24,21);
target = up;
type = BottomGhost;
},
{
place = (388,90);
type = Stem;
},
{
place = (51,90);
type = Stem;
}
);
layerId = m01;
shapes = (
{
closed = 1;
nodes = (
(479,688,ls),
(479,724,o),
(435,724,o),
(410,724,cs),
(211,724,ls),
(127,724,o),
(51,660,o),
(51,573,cs),
(51,12,ls),
(51,-11,o),
(75,-24,o),
(96,-24,cs),
(113,-24,o),
(130,-16,o),
(138,0,cs),
(142,7,o),
(141,19,o),
(141,28,cs),
(141,123,o),
(141,218,o),
(141,313,c),
(223,313,o),
(305,312,o),
(388,312,c),
(388,292,o),
(388,272,o),
(388,252,cs),
(388,232,o),
(387,9,o),
(390,3,cs),
(398,-15,o),
(415,-24,o),
(434,-24,cs),
(454,-24,o),
(479,-11,o),
(479,12,cs)
);
},
{
closed = 1;
nodes = (
(140,435,o),
(140,485,o),
(140,534,cs),
(140,551,o),
(140,583,o),
(145,599,cs),
(154,628,o),
(180,652,o),
(212,652,cs),
(271,652,o),
(330,652,o),
(389,652,c),
(389,563,o),
(388,474,o),
(388,385,c),
(305,385,o),
(223,386,o),
(140,386,c)
);
}
);
width = 529;
}
);
note = A.ss01;
},
{
glyphname = B.ss01;
layers = (
{
hints = (
{
horizontal = 1;
place = (652,72);
type = Stem;
},
{
horizontal = 1;
place = (315,71);
type = Stem;
},
{
horizontal = 1;
place = (-24,72);
type = Stem;
},
{
place = (388,90);
type = Stem;
},
{
place = (50,90);
type = Stem;
}
);
layerId = m01;
shapes = (
{
closed = 1;
nodes = (
(478,574,ls),
(478,660,o),
(402,724,o),
(318,724,cs),
(95,724,ls),
(75,724,o),
(50,711,o),
(50,688,cs),
(50,17,ls),
(50,-9,o),
(70,-24,o),
(95,-24,cs),
(318,-24,ls),
(402,-24,o),
(478,40,o),
(478,127,cs),
(478,235,ls),
(478,282,o),
(455,323,o),
(421,350,c),
(455,377,o),
(478,418,o),
(478,466,cs)
);
},
{
closed = 1;
nodes = (
(140,652,l),
(317,652,ls),
(359,652,o),
(388,613,o),
(388,573,cs),
(388,466,ls),
(388,434,o),
(368,399,o),
(336,389,cs),
(328,387,o),
(319,387,o),
(311,386,cs),
(308,386,o),
(306,386,o),
(304,386,cs),
(249,386,o),
(195,386,o),
(140,386,c)
);
},
{
closed = 1;
nodes = (
(140,48,l),
(140,314,l),
(196,314,o),
(252,315,o),
(308,315,cs),
(355,315,o),
(388,281,o),
(388,234,cs),
(388,128,ls),
(388,88,o),
(359,48,o),
(317,48,cs)
);
}
);
width = 528;
}
);
note = B.ss01;
},
{
glyphname = C.ss01;
layers = (
{
hints = (
{
horizontal = 1;
place = (659,72);
type = Stem;
},
{
horizontal = 1;
place = (-24,71);
type = Stem;
},
{
place = (388,90);
type = Stem;
},
{
place = (51,90);
type = Stem;
}
);
layerId = m01;
shapes = (
{
closed = 1;
nodes = (
(95,731,ls),
(75,731,o),
(50,718,o),
(50,695,cs),
(50,565,o),
(51,436,o),
(51,306,cs),
(51,180,ls),
(51,157,o),
(49,135,o),
(52,112,cs),
(61,32,o),
(132,-24,o),
(211,-24,cs),
(420,-24,ls),
(441,-24,o),
(465,-11,o),
(465,12,cs),
(465,47,o),
(425,48,o),
(399,48,cs),
(358,48,o),
(316,47,o),
(274,47,cs),
(260,47,o),
(205,47,o),
(193,51,cs),
(179,56,o),
(166,65,o),
(157,78,cs),
(148,90,o),
(143,104,o),
(141,118,cs),
(139,138,o),
(141,158,o),
(141,178,cs),
(141,295,ls),
(141,416,o),
(141,537,o),
(140,659,c),
(318,659,ls),
(352,659,o),
(381,630,o),
(387,597,cs),
(389,589,o),
(388,581,o),
(390,573,cs),
(394,554,o),
(415,544,o),
(434,544,cs),
(455,544,o),
(479,557,o),
(479,580,cs),
(479,666,o),
(403,731,o),
(319,731,cs)
);
}
);
width = 530;
}
);
note = C.ss01;
},
{
glyphname = D.ss01;
layers = (
{
hints = (
{
horizontal = 1;
place = (652,72);
type = Stem;
},
{
horizontal = 1;
place = (-24,72);
type = Stem;
},
{
place = (389,90);
type = Stem;
},
{
place = (51,91);
type = Stem;
}
);
layerId = m01;
shapes = (
{
closed = 1;
nodes = (
(319,-24,ls),
(403,-24,o),
(479,40,o),
(479,127,cs),
(479,573,ls),
(479,660,o),
(403,724,o),
(319,724,cs),
(114,724,ls),
(89,724,o),
(51,722,o),
(51,688,cs),
(51,12,ls),
(51,-11,o),
(76,-24,o),
(96,-24,cs),
(112,-24,o),
(126,-18,o),
(134,-6,c),
(158,-18,o),
(184,-24,o),
(211,-24,cs)
);
},
{
closed = 1;
nodes = (
(318,652,ls),
(360,652,o),
(389,612,o),
(389,573,cs),
(389,127,ls),
(389,88,o),
(360,48,o),
(318,48,cs),
(212,48,ls),
(175,48,o),
(143,82,o),
(142,118,cs),
(142,291,o),
(141,604,o),
(141,652,c)
);
}
);
width = 529;
}
);
note = D.ss01;
},
{
glyphname = E.ss01;
layers = (
{
hints = (
{
horizontal = 1;
place = (651,73);
type = Stem;
},
{
horizontal = 1;
place = (313,73);
type = Stem;
},
{
horizontal = 1;
place = (-25,72);
type = Stem;
},
{
place = (51,90);
type = Stem;
}
);
layerId = m01;
shapes = (
{
closed = 1;
nodes = (
(212,47,ls),
(170,47,o),
(141,87,o),
(141,126,cs),
(141,314,l),
(219,314,o),
(296,313,o),
(374,313,cs),
(400,313,o),
(453,311,o),
(453,350,cs),
(453,373,o),
(428,386,o),
(408,386,cs),
(319,386,o),
(230,387,o),
(141,387,c),
(141,651,l),
(191,652,o),
(241,651,o),
(291,651,cs),
(311,651,o),
(439,650,o),
(451,655,cs),
(466,660,o),
(479,671,o),
(479,688,cs),
(479,711,o),
(454,724,o),
(434,724,cs),
(130,724,ls),
(93,724,o),
(51,727,o),
(51,678,cs),
(51,494,o),
(51,310,o),
(51,126,cs),
(51,39,o),
(127,-25,o),
(211,-25,cs),
(410,-26,ls),
(435,-26,o),
(479,-24,o),
(479,11,cs),
(479,51,o),
(426,47,o),
(399,47,cs)
);
}
);
width = 529;
}
);
note = E.ss01;
},
{
glyphname = F.ss01;
layers = (
{
hints = (
{
horizontal = 1;
place = (652,72);
type = Stem;
},
{
horizontal = 1;
place = (313,72);
type = Stem;
},
{
horizontal = 1;
place = (-24,21);
target = up;
type = BottomGhost;
},
{
place = (388,92);
type = Stem;
},
{
place = (51,91);
type = Stem;
}
);
layerId = m01;
shapes = (
{
closed = 1;
nodes = (
(97,724,ls),
(78,724,o),
(62,715,o),
(54,697,cs),
(50,690,o),
(51,329,o),
(51,297,cs),
(51,12,ls),
(51,-11,o),
(76,-24,o),
(96,-24,cs),
(116,-24,o),
(131,-15,o),
(139,3,cs),
(142,8,o),
(142,159,o),
(142,313,c),
(395,313,ls),
(415,313,o),
(440,326,o),
(440,349,cs),
(440,372,o),
(415,385,o),
(395,385,cs),
(142,385,l),
(142,501,o),
(142,605,o),
(142,635,cs),
(142,652,l),
(318,652,ls),
(354,652,o),
(382,623,o),
(388,590,cs),
(390,582,o),
(389,574,o),
(391,567,cs),
(396,547,o),
(416,537,o),
(435,537,cs),
(455,537,o),
(480,550,o),
(480,573,cs),
(480,660,o),
(404,724,o),
(320,724,cs)
);
}
);
width = 530;
}
);
note = F.ss01;
},
{
glyphname = G.ss01;
layers = (
{
hints = (
{
horizontal = 1;
place = (652,73);
type = Stem;
},
{
horizontal = 1;
place = (314,72);
type = Stem;
},
{
horizontal = 1;
place = (-24,72);
type = Stem;
},
{
place = (389,90);
type = Stem;
},
{
place = (51,90);
type = Stem;
}
);
layerId = m01;
shapes = (
{
closed = 1;
nodes = (
(389,314,l),
(389,201,l),
(389,152,ls),
(389,116,o),
(388,85,o),
(357,61,cs),
(345,53,o),
(332,48,o),
(317,48,cs),
(212,48,ls),
(170,48,o),
(141,88,o),
(141,127,cs),
(141,303,o),
(141,478,o),
(141,653,c),
(182,652,o),
(223,652,o),
(263,652,cs),
(283,652,o),
(304,654,o),
(325,652,cs),
(333,651,o),
(341,648,o),
(348,644,cs),
(371,632,o),
(385,608,o),
(388,582,cs),
(390,564,o),
(390,555,o),
(407,544,cs),
(415,539,o),
(424,537,o),
(434,537,cs),
(454,537,o),
(479,550,o),
(479,573,cs),
(479,646,o),
(422,708,o),
(352,721,cs),
(332,724,o),
(311,725,o),
(291,725,cs),
(96,725,ls),
(78,725,o),
(61,717,o),
(53,700,cs),
(50,692,o),
(51,677,o),
(51,669,cs),
(51,614,o),
(51,559,o),
(51,503,cs),
(51,127,ls),
(51,40,o),
(127,-24,o),
(211,-24,cs),
(319,-24,ls),
(393,-24,o),
(459,24,o),
(476,97,cs),
(479,115,o),
(480,133,o),
(480,151,cs),
(480,170,o),
(479,190,o),
(479,210,cs),
(479,350,ls),
(479,373,o),
(454,386,o),
(434,386,cs),
(333,386,l),
(290,386,ls),
(264,386,o),
(220,387,o),
(220,350,cs),
(220,306,o),
(285,314,o),
(313,314,cs)
);
}
);
width = 530;
}
);
note = G.ss01;
},
{
glyphname = H.ss01;
layers = (
{
hints = (
{
horizontal = 1;
place = (724,-20);
target = down;
type = TopGhost;
},
{
horizontal = 1;
place = (314,73);
type = Stem;
},
{
horizontal = 1;
place = (-24,21);
target = up;
type = BottomGhost;
},
{
place = (389,90);
type = Stem;
},
{
place = (51,90);
type = Stem;
}
);
layerId = m01;
shapes = (
{
closed = 1;
nodes = (
(479,688,ls),
(479,711,o),
(454,724,o),
(434,724,cs),
(413,724,o),
(389,711,o),
(389,688,cs),
(389,371,l),
(357,385,o),
(326,387,o),
(292,387,cs),
(242,387,o),
(191,386,o),
(141,386,c),
(141,688,ls),
(141,711,o),
(116,724,o),
(96,724,cs),
(75,724,o),
(51,711,o),
(51,688,cs),
(51,12,ls),
(51,-11,o),
(75,-24,o),
(96,-24,cs),
(116,-24,o),
(141,-11,o),
(141,12,cs),
(141,313,l),
(194,314,o),
(247,314,o),
(300,314,cs),
(308,314,o),
(317,314,o),
(325,313,cs),
(356,310,o),
(381,282,o),
(387,252,cs),
(388,246,o),
(388,239,o),
(389,232,c),
(389,12,ls),
(389,-11,o),
(413,-24,o),
(434,-24,cs),
(454,-24,o),
(479,-11,o),
(479,12,cs)
);
}
);
width = 529;
}
);
note = H.ss01;
},
{
glyphname = I.ss01;
layers = (
{
hints = (
{
horizontal = 1;
place = (652,72);
type = Stem;
},
{
horizontal = 1;
place = (-24,72);
type = Stem;
},
{
place = (120,90);
type = Stem;
}
);
layerId = m01;
shapes = (
{
closed = 1;
nodes = (
(120,652,l),
(120,48,l),
(98,48,ls),
(78,48,o),
(53,35,o),
(53,12,cs),
(53,-11,o),
(78,-24,o),
(98,-24,cs),
(238,-24,ls),
(259,-24,o),
(283,-11,o),
(283,12,cs),
(283,35,o),
(259,48,o),
(238,48,cs),
(210,48,l),
(210,652,l),
(235,652,ls),
(255,652,o),
(280,665,o),
(280,688,cs),
(280,711,o),
(255,724,o),
(235,724,cs),
(95,724,ls),
(75,724,o),
(50,711,o),
(50,688,cs),
(50,665,o),
(75,652,o),
(95,652,cs)
);
}
);
width = 334;
}
);
note = I.ss01;
},
{
glyphname = J.ss01;
layers = (
{
hints = (
{
horizontal = 1;
place = (652,72);
type = Stem;
},
{
horizontal = 1;
place = (-24,72);
type = Stem;
},
{
place = (266,90);
type = Stem;
}
);
layerId = m01;
shapes = (
{
closed = 1;
nodes = (
(266,652,l),
(266,482,o),
(266,312,o),
(266,142,cs),
(266,103,o),
(255,64,o),
(213,51,cs),
(194,45,o),
(139,48,o),
(115,48,cs),
(89,48,o),
(51,46,o),
(51,12,cs),
(51,-11,o),
(75,-24,o),
(96,-24,cs),
(196,-24,ls),
(261,-24,o),
(316,11,o),
(344,70,cs),
(354,92,o),
(356,117,o),
(356,140,cs),
(356,323,o),
(356,505,o),
(356,688,cs),
(356,722,o),
(317,725,o),
(291,725,cs),
(282,725,o),
(273,724,o),
(263,724,cs),
(189,724,ls),
(168,724,o),
(144,711,o),
(144,688,cs),
(144,650,o),
(191,652,o),
(218,652,cs)
);
}
);
width = 407;
}
);
note = J.ss01;
},
{
glyphname = K.ss01;
layers = (
{
hints = (
{
horizontal = 1;
place = (725,-20);
target = down;
type = TopGhost;
},
{
horizontal = 1;
place = (649,72);
type = Stem;
},
{
horizontal = 1;
place = (314,72);
type = Stem;
},
{
horizontal = 1;
place = (-24,21);
target = up;
type = BottomGhost;
},
{
place = (388,91);
type = Stem;
},
{
place = (51,90);
type = Stem;
}
);
layerId = m01;
shapes = (
{
closed = 1;
nodes = (
(141,314,l),
(279,314,ls),
(288,314,o),
(298,314,o),
(308,314,cs),
(366,314,o),
(389,274,o),
(389,221,cs),
(389,204,o),
(389,188,o),
(389,172,cs),
(388,75,ls),
(388,58,o),
(388,42,o),
(388,26,cs),
(388,-5,o),
(400,-24,o),
(434,-24,cs),
(454,-24,o),
(479,-11,o),
(479,12,cs),
(479,235,ls),
(479,322,o),
(403,386,o),
(319,386,cs),
(309,386,l),
(320,452,o),
(334,567,o),
(342,598,cs),
(345,609,o),
(350,621,o),
(358,630,cs),
(376,649,o),
(393,649,o),
(418,649,cs),
(440,649,o),
(470,657,o),
(470,685,cs),
(470,716,o),
(436,721,o),
(412,721,cs),
(342,721,o),
(281,693,o),
(257,624,cs),
(244,585,o),
(242,540,o),
(235,500,cs),
(220,402,ls),
(219,396,o),
(218,391,o),
(217,386,c),
(141,386,l),
(141,689,ls),
(141,712,o),
(116,725,o),
(96,725,cs),
(75,725,o),
(51,712,o),
(51,689,cs),
(51,12,ls),
(51,-11,o),
(75,-24,o),
(96,-24,cs),
(116,-24,o),
(141,-11,o),
(141,12,cs)
);
}
);
width = 529;
}
);
note = K.ss01;
},
{
glyphname = L.ss01;
layers = (
{
hints = (
{
horizontal = 1;
place = (724,-20);
target = down;
type = TopGhost;
},
{
horizontal = 1;
place = (-24,72);
type = Stem;
},
{
place = (332,89);
type = Stem;
},
{
place = (50,91);
type = Stem;
}
);
layerId = m01;
shapes = (
{
closed = 1;
nodes = (
(141,48,l),
(141,688,ls),
(141,711,o),
(116,724,o),
(96,724,cs),
(76,724,o),
(61,715,o),
(53,697,cs),
(50,691,o),
(50,445,o),
(50,424,cs),
(50,287,o),
(51,149,o),
(51,12,cs),
(51,-11,o),
(75,-24,o),
(96,-24,cs),
(262,-24,ls),
(346,-24,o),
(421,40,o),
(421,127,cs),
(421,150,o),
(397,163,o),
(376,163,cs),
(357,163,o),
(337,153,o),
(332,133,cs),
(330,125,o),
(331,117,o),
(330,109,cs),
(323,77,o),
(295,48,o),
(260,48,cs)
);
}
);
width = 472;
}
);
note = L.ss01;
},
{
glyphname = M.ss01;
layers = (
{
hints = (
{
horizontal = 1;
place = (652,72);
type = Stem;
},
{
horizontal = 1;
place = (-24,21);
target = up;
type = BottomGhost;
},
{
place = (725,90);
type = Stem;
},
{
place = (387,90);
type = Stem;
},
{
place = (51,90);
type = Stem;
}
);
layerId = m01;
shapes = (
{
closed = 1;
nodes = (
(199,652,o),
(258,652,o),
(316,652,cs),
(348,652,o),
(374,628,o),
(383,599,cs),
(385,592,o),
(386,583,o),
(387,573,cs),
(387,568,o),
(387,564,o),
(387,560,cs),
(387,382,o),
(387,205,o),
(387,28,cs),
(387,23,o),
(386,16,o),
(387,9,cs),
(389,-12,o),
(412,-24,o),
(432,-24,cs),
(452,-24,o),
(476,-11,o),
(477,11,cs),
(477,17,o),
(477,23,o),
(477,29,cs),
(477,92,o),
(477,156,o),
(477,220,cs),
(477,569,ls),
(477,580,o),
(479,591,o),
(481,599,cs),
(490,628,o),
(516,652,o),
(548,652,cs),
(653,652,ls),
(685,652,o),
(712,628,o),
(721,599,cs),
(728,574,o),
(725,533,o),
(725,506,cs),
(724,12,ls),
(724,-11,o),
(749,-24,o),
(769,-24,cs),
(787,-24,o),
(806,-16,o),
(812,1,cs),
(816,9,o),
(815,23,o),
(815,32,cs),
(815,87,o),
(814,142,o),
(814,197,cs),
(815,573,ls),
(815,660,o),
(739,724,o),
(655,724,cs),
(547,724,ls),
(502,724,o),
(462,707,o),
(432,678,c),
(403,707,o),
(361,724,o),
(317,724,cs),
(250,724,o),
(182,724,o),
(115,724,cs),
(89,724,o),
(51,721,o),
(51,687,cs),
(51,12,ls),
(51,-11,o),
(75,-24,o),
(96,-24,cs),
(115,-24,o),
(132,-15,o),
(139,3,cs),
(144,14,o),
(141,590,o),
(141,652,c)
);
}
);
width = 865;
}
);
note = M.ss01;
},
{
glyphname = N.ss01;
layers = (
{
hints = (
{
horizontal = 1;
place = (652,71);
type = Stem;
},
{
horizontal = 1;
place = (-24,21);
target = up;
type = BottomGhost;
},
{
place = (387,90);
type = Stem;
},
{
place = (51,90);
type = Stem;
}
);
layerId = m01;
shapes = (
{
closed = 1;
nodes = (
(195,651,o),
(249,652,o),
(303,652,cs),
(344,652,o),
(377,633,o),
(385,590,cs),
(389,572,o),
(387,552,o),
(387,533,cs),
(387,428,l),
(387,69,l),
(387,32,ls),
(387,27,o),
(387,22,o),
(387,17,cs),
(387,-9,o),
(407,-24,o),
(432,-24,cs),
(453,-24,o),
(477,-11,o),
(477,12,cs),
(477,573,ls),
(477,646,o),
(421,707,o),
(350,720,cs),
(331,723,o),
(312,724,o),
(293,724,cs),
(273,724,o),
(253,723,o),
(233,723,cs),
(96,723,ls),
(75,723,o),
(51,710,o),
(51,687,cs),
(51,12,ls),
(51,-11,o),
(75,-24,o),
(96,-24,cs),
(115,-24,o),
(132,-15,o),
(139,3,cs),
(145,16,o),
(141,588,o),
(141,651,c)
);
}
);
width = 528;
}
);
note = N.ss01;
},
{
glyphname = O.ss01;
layers = (
{
hints = (
{
horizontal = 1;
place = (652,72);
type = Stem;
},
{
horizontal = 1;
place = (-24,72);
type = Stem;
},
{
place = (389,90);
type = Stem;
},
{
place = (51,90);
type = Stem;
}
);
layerId = m01;
shapes = (
{
closed = 1;
nodes = (
(141,572,ls),
(141,612,o),
(170,652,o),
(212,652,cs),
(318,652,ls),
(360,652,o),
(389,612,o),
(389,572,cs),
(389,128,ls),
(389,88,o),
(360,48,o),
(318,48,cs),
(212,48,ls),
(170,48,o),
(141,88,o),
(141,128,cs)
);
},
{
closed = 1;
nodes = (
(51,127,ls),
(51,40,o),
(127,-24,o),
(211,-24,cs),
(319,-24,ls),
(403,-24,o),
(479,40,o),
(479,127,cs),
(479,573,ls),
(479,660,o),
(403,724,o),
(319,724,cs),
(211,724,ls),
(127,724,o),
(51,660,o),
(51,573,cs)
);
}
);
width = 530;
}
);
note = O.ss01;
},
{
glyphname = P.ss01;
layers = (
{
hints = (
{
horizontal = 1;
place = (652,72);
type = Stem;
},
{
horizontal = 1;
place = (313,73);
type = Stem;
},
{
horizontal = 1;
place = (-24,21);
target = up;
type = BottomGhost;
},
{
place = (390,90);
type = Stem;
},
{
place = (51,90);
type = Stem;
}
);
layerId = m01;
shapes = (
{
closed = 1;
nodes = (
(293,313,ls),
(313,313,o),
(333,314,o),
(353,318,cs),
(423,330,o),
(480,393,o),
(480,465,cs),
(480,573,ls),
(480,660,o),
(404,724,o),
(320,724,cs),
(169,724,ls),
(153,724,o),
(136,725,o),
(119,725,cs),
(94,725,o),
(51,724,o),
(51,688,cs),
(51,571,o),
(51,455,o),
(51,338,cs),
(51,312,o),
(50,10,o),
(53,3,cs),
(61,-15,o),
(78,-24,o),
(97,-24,cs),
(116,-24,o),
(133,-15,o),
(140,3,c),
(143,8,o),
(143,195,o),
(143,212,cs),
(143,246,o),
(142,280,o),
(142,314,c)
);
},
{
closed = 1;
nodes = (
(142,475,o),
(141,564,o),
(141,652,c),
(319,652,ls),
(360,652,o),
(390,612,o),
(390,573,cs),
(390,466,ls),
(390,432,o),
(370,400,o),
(337,389,cs),
(325,385,o),
(261,386,o),
(245,386,cs),
(211,386,o),
(177,386,o),
(142,387,c)
);
}
);
width = 530;
}
);
note = P.ss01;
},
{
glyphname = Q.ss01;
layers = (
{
hints = (
{
horizontal = 1;
place = (652,72);
type = Stem;
},
{
horizontal = 1;
place = (-24,72);
type = Stem;
},
{
horizontal = 1;
place = (-20,21);
target = up;
type = BottomGhost;
},
{
place = (389,90);
type = Stem;
},
{
place = (274,92);
type = Stem;
},
{
place = (51,90);
type = Stem;
}
);
layerId = m01;
shapes = (
{
closed = 1;
nodes = (
(455,-20,o),
(479,-7,o),
(479,16,cs),
(479,31,o),
(468,42,o),
(455,48,c),
(470,70,o),
(479,97,o),
(479,127,cs),
(479,688,ls),
(479,711,o),
(454,724,o),
(434,724,cs),
(211,724,ls),
(127,724,o),
(51,660,o),
(51,573,cs),
(51,127,ls),
(51,40,o),
(127,-24,o),
(211,-24,cs),
(319,-24,ls),
(341,-24,o),
(363,-20,o),
(382,-12,c),
(399,-17,o),
(416,-20,o),
(434,-20,cs)
);
},
{
closed = 1;
nodes = (
(389,652,l),
(389,128,ls),
(389,113,o),
(385,98,o),
(378,85,c),
(372,94,o),
(368,104,o),
(366,114,cs),
(365,122,o),
(365,130,o),
(363,137,cs),
(359,157,o),
(338,167,o),
(319,167,cs),
(299,167,o),
(274,154,o),
(274,131,cs),
(274,100,o),
(284,71,o),
(301,48,c),
(212,48,ls),
(170,48,o),
(141,88,o),
(141,128,cs),
(141,572,ls),
(141,612,o),
(170,652,o),
(212,652,cs)
);
}
);
width = 530;
}
);
note = Q.ss01;
},
{
glyphname = R.ss01;
layers = (
{
hints = (
{
horizontal = 1;
place = (652,72);
type = Stem;
},
{
horizontal = 1;
place = (314,72);
type = Stem;
},
{
horizontal = 1;
place = (-24,21);
target = up;
type = BottomGhost;
},
{
place = (389,90);
type = Stem;
},
{
place = (51,91);
type = Stem;
}
);
layerId = m01;
shapes = (
{
closed = 1;
nodes = (
(318,314,ls),
(332,314,o),
(346,309,o),
(357,300,cs),
(388,277,o),
(389,246,o),
(389,210,cs),
(389,161,ls),
(389,115,o),
(388,70,o),
(388,24,cs),
(388,-6,o),
(402,-24,o),
(434,-24,cs),
(454,-24,o),
(479,-11,o),
(479,12,cs),
(479,235,ls),
(479,282,o),
(456,323,o),
(422,350,c),
(456,377,o),
(479,418,o),
(479,465,cs),
(479,573,ls),
(479,660,o),
(403,724,o),
(319,724,cs),
(164,724,ls),
(148,724,o),
(132,725,o),
(116,725,cs),
(72,725,o),
(50,718,o),
(50,669,cs),
(50,607,o),
(51,545,o),
(51,483,cs),
(51,12,ls),
(51,-11,o),
(76,-24,o),
(96,-24,cs),
(115,-24,o),
(132,-15,o),
(139,3,c),
(142,8,o),
(142,159,o),
(142,314,c)
);
},
{
closed = 1;
nodes = (
(142,386,l),
(142,510,o),
(141,622,o),
(141,649,cs),
(141,652,l),
(318,652,ls),
(360,652,o),
(389,612,o),
(389,573,cs),
(389,466,ls),
(389,434,o),
(369,399,o),
(337,389,cs),
(328,387,o),
(320,387,o),
(312,386,c)
);
}
);
width = 529;
}
);
note = R.ss01;
},
{
glyphname = S.ss01;
layers = (
{
hints = (
{
horizontal = 1;
place = (652,72);
type = Stem;
},
{
horizontal = 1;
place = (315,71);
type = Stem;
},
{
horizontal = 1;
place = (-24,72);
type = Stem;
},
{
place = (388,90);
type = Stem;
},
{
place = (384,91);
type = Stem;
},
{
place = (51,90);
type = Stem;
}
);
layerId = m01;
shapes = (
{
closed = 1;
nodes = (
(478,235,ls),
(478,266,o),
(467,297,o),
(448,323,cs),
(391,399,o),
(306,386,o),
(222,386,cs),
(174,386,o),
(141,418,o),
(141,466,cs),
(141,652,l),
(314,652,ls),
(348,652,o),
(377,623,o),
(383,591,cs),
(384,583,o),
(384,575,o),
(385,567,cs),
(390,547,o),
(411,537,o),
(430,537,cs),
(450,537,o),
(475,550,o),
(475,573,cs),
(475,660,o),
(399,724,o),
(315,724,cs),
(96,724,ls),
(75,724,o),
(51,711,o),
(51,688,cs),
(51,465,ls),
(51,434,o),
(62,403,o),
(81,377,cs),
(137,303,o),
(214,315,o),
(297,315,cs),
(309,315,o),
(324,315,o),
(336,311,cs),
(369,300,o),
(388,267,o),
(388,234,cs),
(388,127,ls),
(388,112,o),
(384,96,o),
(376,83,cs),
(354,47,o),
(328,48,o),
(291,48,cs),
(231,48,l),
(96,48,ls),
(75,48,o),
(51,35,o),
(51,12,cs),
(51,-22,o),
(89,-24,o),
(114,-24,cs),
(188,-24,l),
(319,-24,ls),
(403,-24,o),
(478,40,o),
(478,127,cs)
);
}
);
width = 529;
}
);
note = S.ss01;
},
{
glyphname = T.ss01;
layers = (
{
hints = (
{
horizontal = 1;
place = (652,73);
type = Stem;
},
{
horizontal = 1;
place = (-24,21);
target = up;
type = BottomGhost;
},
{
place = (221,91);
type = Stem;
}
);
layerId = m01;
shapes = (
{
closed = 1;
nodes = (
(104,725,o),
(51,727,o),
(51,688,cs),
(51,665,o),
(75,652,o),
(96,652,cs),
(121,652,o),
(146,652,o),
(171,652,cs),
(221,652,l),
(220,583,o),
(220,438,o),
(220,423,cs),
(220,286,o),
(221,149,o),
(221,12,cs),
(221,-11,o),
(245,-24,o),
(266,-24,cs),
(287,-24,o),
(299,-15,o),
(309,3,cs),
(312,8,o),
(312,248,o),
(312,267,cs),
(312,395,o),
(311,523,o),
(311,651,c),
(323,651,ls),
(349,651,o),
(374,651,o),
(399,651,cs),
(426,651,o),
(479,649,o),
(479,688,cs),
(479,711,o),
(455,724,o),
(434,724,cs),
(333,724,o),
(232,725,o),
(130,725,cs)
);
}
);
width = 530;
}
);
note = T.ss01;
},
{
glyphname = W.ss01;
layers = (
{
hints = (
{
horizontal = 1;
place = (724,-20);
target = down;
type = TopGhost;
},
{
horizontal = 1;
place = (-24,72);
type = Stem;
},
{
place = (725,90);
type = Stem;
},
{
place = (389,90);
type = Stem;
},
{
place = (51,90);
type = Stem;
}
);
layerId = m01;
shapes = (
{
closed = 1;
nodes = (
(666,48,o),
(608,48,o),
(550,48,cs),
(518,48,o),
(491,72,o),
(482,101,cs),
(480,108,o),
(479,117,o),
(479,128,cs),
(479,132,o),
(479,136,o),
(479,140,cs),
(479,262,o),
(479,385,o),
(479,507,cs),
(479,562,o),
(479,617,o),
(479,672,cs),
(479,677,o),
(479,685,o),
(478,691,cs),
(476,712,o),
(453,724,o),
(434,724,cs),
(413,724,o),
(389,711,o),
(389,689,c),
(388,683,o),
(388,677,o),
(388,672,cs),
(388,608,o),
(388,544,o),
(389,480,cs),
(389,131,l),
(388,120,o),
(387,109,o),
(385,101,cs),
(376,72,o),
(349,48,o),
(317,48,cs),
(212,48,ls),
(180,48,o),
(154,72,o),
(145,101,cs),
(137,127,o),
(141,167,o),
(141,194,cs),
(141,339,l),
(141,688,ls),
(141,711,o),
(117,724,o),
(96,724,cs),
(79,724,o),
(60,716,o),
(53,699,cs),
(50,691,o),
(51,677,o),
(51,668,cs),
(51,127,ls),
(51,40,o),
(127,-24,o),
(211,-24,cs),
(319,-24,ls),
(364,-24,o),
(404,-7,o),
(433,22,c),
(463,-7,o),
(505,-24,o),
(548,-24,cs),
(616,-24,o),
(683,-24,o),
(751,-24,cs),
(776,-24,o),
(815,-21,o),
(815,13,cs),
(815,688,ls),
(815,711,o),
(790,724,o),
(770,724,cs),
(750,724,o),
(734,715,o),
(726,697,cs),
(721,686,o),
(725,110,o),
(725,49,c)
);
}
);
width = 865;
}
);
note = W.ss01;
},
{
glyphname = Y.ss01;
layers = (
{
hints = (
{
horizontal = 1;
place = (724,-20);
target = down;
type = TopGhost;
},
{
horizontal = 1;
place = (723,-20);
target = down;
type = TopGhost;
},
{
horizontal = 1;
place = (314,72);
type = Stem;
},
{
horizontal = 1;
place = (-24,72);
type = Stem;
},
{
place = (389,90);
type = Stem;
},
{
place = (51,90);
type = Stem;
}
);
layerId = m01;
shapes = (
{
closed = 1;
nodes = (
(389,48,l),
(212,48,ls),
(198,48,o),
(184,53,o),
(173,61,cs),
(141,85,o),
(141,117,o),
(141,153,cs),
(141,205,ls),
(141,228,o),
(116,241,o),
(96,241,cs),
(69,241,o),
(51,225,o),
(51,198,cs),
(51,174,o),
(51,151,o),
(51,127,cs),
(51,40,o),
(127,-24,o),
(211,-24,cs),
(399,-24,ls),
(427,-24,o),
(479,-28,o),
(479,12,cs),
(479,235,ls),
(479,279,o),
(453,320,o),
(419,347,c),
(447,368,o),
(467,399,o),
(476,436,cs),
(480,453,o),
(480,471,o),
(480,489,cs),
(480,508,o),
(479,528,o),
(479,547,cs),
(479,687,ls),
(479,710,o),
(454,723,o),
(434,723,cs),
(425,723,o),
(415,721,o),
(407,716,cs),
(390,706,o),
(389,695,o),
(389,677,cs),
(389,632,o),
(390,586,o),
(390,541,cs),
(390,521,o),
(390,457,o),
(385,439,cs),
(375,407,o),
(350,388,o),
(317,386,c),
(295,387,o),
(273,386,o),
(251,386,cs),
(141,386,l),
(141,688,ls),
(141,711,o),
(117,724,o),
(96,724,cs),
(79,724,o),
(61,716,o),
(54,700,cs),
(49,691,o),
(50,663,o),
(50,651,cs),
(50,551,o),
(51,450,o),
(51,350,cs),
(51,310,o),
(102,314,o),
(129,314,cs),
(266,314,l),
(273,313,o),
(280,313,o),
(286,313,cs),
(294,313,o),
(302,314,o),
(310,314,cs),
(350,311,o),
(389,275,o),
(389,234,cs)
);
}
);
width = 530;
}
);
note = Y.ss01;
},
{
glyphname = Z.ss01;
layers = (
{
hints = (
{
horizontal = 1;
place = (652,72);
type = Stem;
},
{
horizontal = 1;
place = (313,72);
type = Stem;
},
{
horizontal = 1;
place = (-25,73);
type = Stem;
},
{
place = (389,90);
type = Stem;
},
{
place = (51,90);
type = Stem;
}
);
layerId = m01;
shapes = (
{
closed = 1;
nodes = (
(271,652,o),
(330,652,o),
(389,652,c),
(389,453,ls),
(389,418,o),
(368,392,o),
(333,386,cs),
(317,384,o),
(301,385,o),
(285,385,cs),
(260,385,o),
(235,386,o),
(211,386,cs),
(127,386,o),
(51,322,o),
(51,235,cs),
(51,12,ls),
(51,-27,o),
(105,-25,o),
(131,-25,cs),
(228,-25,o),
(324,-24,o),
(421,-24,cs),
(441,-24,o),
(466,-11,o),
(466,12,cs),
(466,29,o),
(452,40,o),
(438,45,cs),
(420,52,o),
(186,48,o),
(143,48,cs),
(141,48,l),
(141,104,o),
(140,159,o),
(140,214,cs),
(140,256,o),
(152,302,o),
(199,312,cs),
(212,315,o),
(226,314,o),
(239,314,cs),
(266,314,o),
(292,313,o),
(319,313,cs),
(401,313,o),
(479,364,o),
(479,452,cs),
(479,688,ls),
(479,723,o),
(435,724,o),
(410,724,cs),
(394,724,o),
(378,724,o),
(361,724,cs),
(211,724,ls),
(127,724,o),
(51,660,o),
(51,573,cs),
(51,550,o),
(75,537,o),
(96,537,cs),
(115,537,o),
(136,547,o),
(140,567,cs),
(142,575,o),
(141,583,o),
(143,590,cs),
(149,623,o),
(178,652,o),
(212,652,cs)
);
}
);
width = 530;
}
);
note = Z.ss01;
},
{
glyphname = a.ss01;
layers = (
{
hints = (
{
horizontal = 1;
place = (313,72);
type = Stem;
},
{
horizontal = 1;
place = (-27,72);
type = Stem;
},
{
place = (382,90);
type = Stem;
},
{
place = (51,90);
type = Stem;
}
);
layerId = m01;
shapes = (
{
closed = 1;
nodes = (
(472,349,ls),
(472,389,o),
(420,385,o),
(392,385,cs),
(208,385,ls),
(125,385,o),
(51,322,o),
(51,237,cs),
(51,121,ls),
(51,36,o),
(125,-27,o),
(208,-27,cs),
(280,-27,ls),
(332,-27,o),
(368,-8,o),
(391,15,c),
(391,-18,o),
(413,-26,o),
(427,-26,cs),
(448,-26,o),
(472,-13,o),
(472,10,cs)
);
},
{
closed = 1;
nodes = (
(382,247,o),
(382,182,o),
(382,116,c),
(381,112,o),
(381,108,o),
(381,105,c),
(375,73,o),
(346,45,o),
(313,45,cs),
(210,45,ls),
(169,45,o),
(141,84,o),
(141,122,cs),
(141,236,ls),
(141,274,o),
(169,313,o),
(210,313,cs),
(267,313,o),
(325,313,o),
(382,313,c)
);
}
);
width = 523;
}
);
note = a.ss01;
},
{
glyphname = b.ss01;
layers = (
{
hints = (
{
horizontal = 1;
place = (724,-20);
target = down;
type = TopGhost;
},
{
horizontal = 1;
place = (315,71);
type = Stem;
},
{
horizontal = 1;
place = (-24,72);
type = Stem;
},
{
place = (389,90);
type = Stem;
},
{
place = (51,90);
type = Stem;
}
);
layerId = m01;
shapes = (
{
closed = 1;
nodes = (
(141,386,l),
(141,688,ls),
(141,711,o),
(116,724,o),
(96,724,cs),
(75,724,o),
(51,711,o),
(51,688,cs),
(51,470,o),
(50,252,o),
(50,34,cs),
(50,25,o),
(50,17,o),
(51,9,cs),
(54,-13,o),
(76,-24,o),
(96,-24,cs),
(319,-24,ls),
(403,-24,o),
(479,40,o),
(479,127,cs),
(479,235,ls),
(479,322,o),
(403,386,o),
(319,386,cs)
);
},
{
closed = 1;
nodes = (
(389,128,ls),
(389,88,o),
(360,48,o),
(318,48,cs),
(141,48,l),
(141,314,l),
(179,314,o),
(216,315,o),
(254,315,cs),
(269,315,o),
(325,315,o),
(337,311,cs),
(370,301,o),
(389,268,o),
(389,234,cs)
);
}
);
width = 530;
}
);
note = b.ss01;
},
{
glyphname = c.ss01;
layers = (
{
hints = (
{
horizontal = 1;
place = (314,72);
type = Stem;
},
{
horizontal = 1;
place = (-23,73);
type = Stem;
},
{
place = (376,90);
type = Stem;
},
{
place = (50,90);
type = Stem;
}
);
layerId = m01;
shapes = (
{
closed = 1;
nodes = (
(140,314,l),
(310,314,ls),
(342,314,o),
(370,286,o),
(375,255,c),
(377,248,o),
(376,240,o),
(378,233,cs),
(382,213,o),
(404,203,o),
(422,203,cs),
(442,203,o),
(467,216,o),
(467,239,cs),
(467,324,o),
(393,386,o),
(311,386,cs),
(95,386,ls),
(75,386,o),
(50,373,o),
(50,350,cs),
(50,129,ls),
(50,41,o),
(120,-23,o),
(206,-23,cs),
(400,-23,ls),
(421,-23,o),
(445,-10,o),
(445,13,cs),
(445,47,o),
(404,50,o),
(379,50,cs),
(341,50,o),
(302,48,o),
(264,48,cs),
(251,48,o),
(201,48,o),
(190,52,cs),
(159,62,o),
(140,93,o),
(140,125,cs)
);
}
);
width = 517;
}
);
note = c.ss01;
},
{
glyphname = d.ss01;
layers = (
{
hints = (
{
horizontal = 1;
place = (724,-20);
target = down;
type = TopGhost;
},
{
horizontal = 1;
place = (314,72);
type = Stem;
},
{
horizontal = 1;
place = (-24,72);
type = Stem;
},
{
place = (390,90);
type = Stem;
},
{
place = (51,90);
type = Stem;
}
);
layerId = m01;
shapes = (
{
closed = 1;
nodes = (
(368,380,o),
(344,386,o),
(319,386,cs),
(189,386,l),
(114,386,ls),
(89,386,o),
(51,384,o),
(51,350,cs),
(51,127,ls),
(51,40,o),
(127,-24,o),
(211,-24,cs),
(319,-24,ls),
(384,-24,o),
(440,11,o),
(467,70,cs),
(478,92,o),
(480,117,o),
(480,140,cs),
(480,323,o),
(479,506,o),
(479,688,cs),
(479,711,o),
(455,724,o),
(434,724,cs),
(417,724,o),
(400,716,o),
(392,700,cs),
(388,692,o),
(389,681,o),
(389,672,cs),
(389,572,o),
(389,471,o),
(390,370,c)
);
},
{
closed = 1;
nodes = (
(212,48,ls),
(170,48,o),
(141,88,o),
(141,128,cs),
(141,314,l),
(318,314,ls),
(352,314,o),
(381,285,o),
(387,252,cs),
(389,245,o),
(388,237,o),
(390,229,c),
(390,208,o),
(390,187,o),
(390,166,cs),
(390,149,o),
(390,117,o),
(385,102,cs),
(376,72,o),
(350,48,o),
(318,48,cs)
);
}
);
width = 530;
}
);
note = d.ss01;
},
{
glyphname = e.ss01;
layers = (
{
hints = (
{
horizontal = 1;
place = (315,72);
type = Stem;
},
{
horizontal = 1;
place = (151,72);
type = Stem;
},
{
horizontal = 1;
place = (-25,72);
type = Stem;
},
{
place = (377,90);
type = Stem;
},
{
place = (50,90);
type = Stem;
}
);
layerId = m01;
shapes = (
{
closed = 1;
nodes = (
(140,151,l),
(422,151,ls),
(443,151,o),
(467,164,o),
(467,187,cs),
(467,218,ls),
(467,265,o),
(462,299,o),
(429,335,cs),
(388,380,o),
(342,387,o),
(284,387,cs),
(221,387,o),
(158,386,o),
(95,386,cs),
(75,386,o),
(50,373,o),
(50,350,cs),
(50,122,ls),
(50,38,o),
(124,-25,o),
(206,-25,cs),
(416,-25,ls),
(437,-25,o),
(461,-12,o),
(461,11,cs),
(461,46,o),
(421,47,o),
(396,47,cs),
(353,47,o),
(311,46,o),
(269,46,cs),
(255,46,o),
(201,46,o),
(190,50,cs),
(159,60,o),
(140,91,o),
(140,123,cs)
);
},
{
closed = 1;
nodes = (
(140,314,l),
(191,314,o),
(243,315,o),
(294,315,cs),
(348,315,o),
(377,285,o),
(377,231,cs),
(377,223,l),
(377,223,o),
(377,223,o),
(377,223,c),
(377,223,o),
(377,223,o),
(377,223,c),
(298,223,o),
(219,223,o),
(140,223,c)
);
}
);
width = 518;
}
);
note = e.ss01;
},
{
glyphname = f.ss01;
layers = (
{
hints = (
{
horizontal = 1;
place = (652,73);
type = Stem;
},
{
horizontal = 1;
place = (314,72);
type = Stem;
},
{
horizontal = 1;
place = (-24,21);
target = up;
type = BottomGhost;
},
{
place = (51,90);
type = Stem;
}
);
layerId = m01;
shapes = (
{
closed = 1;
nodes = (
(141,386,l),
(141,562,ls),
(141,602,o),
(156,642,o),
(199,651,cs),
(220,655,o),
(243,652,o),
(265,652,cs),
(285,652,o),
(310,665,o),
(310,688,cs),
(310,722,o),
(269,725,o),
(244,725,cs),
(233,725,o),
(222,724,o),
(211,724,cs),
(141,724,o),
(81,683,o),
(58,617,cs),
(52,599,o),
(51,580,o),
(51,562,cs),
(51,385,o),
(51,208,o),
(51,31,cs),
(51,22,o),
(50,9,o),
(53,1,cs),
(60,-16,o),
(79,-24,o),
(96,-24,cs),
(154,-24,o),
(141,32,o),
(141,70,cs),
(141,314,l),
(265,314,ls),
(285,314,o),
(310,327,o),
(310,350,cs),
(310,373,o),
(285,386,o),
(265,386,cs)
);
}
);
width = 360;
}
);
note = f.ss01;
},
{
glyphname = g.ss01;
layers = (
{
hints = (
{
place = (389,90);
type = Stem;
},
{
place = (314,72);
type = Stem;
},
{
place = (51,90);
type = Stem;
},
{
place = (-24,72);
type = Stem;
},
{
place = (-362,72);
type = Stem;
}
);
layerId = m01;
shapes = (
{
closed = 1;
nodes = (
(389,-290,l),
(212,-290,ls),
(195,-290,o),
(179,-283,o),
(167,-272,cs),
(139,-246,o),
(141,-217,o),
(141,-182,cs),
(141,-158,o),
(141,-134,o),
(141,-109,cs),
(141,-83,o),
(122,-67,o),
(96,-67,cs),
(75,-67,o),
(51,-80,o),
(51,-103,cs),
(51,-211,ls),
(51,-298,o),
(127,-362,o),
(211,-362,cs),
(399,-362,ls),
(426,-362,o),
(479,-366,o),
(479,-326,cs),
(479,-103,ls),
(479,-59,o),
(456,-16,o),
(422,12,c),
(456,39,o),
(479,80,o),
(479,127,cs),
(479,350,ls),
(479,373,o),
(454,386,o),
(434,386,cs),
(414,386,o),
(391,374,o),
(389,353,c),
(363,374,o),
(332,386,o),
(296,386,cs),
(96,386,ls),
(77,386,o),
(56,376,o),
(51,356,cs),
(50,349,o),
(51,342,o),
(51,335,cs),
(51,275,o),
(50,215,o),
(50,154,cs),
(50,96,o),
(58,52,o),
(106,13,cs),
(127,-4,o),
(152,-16,o),
(178,-21,cs),
(220,-28,o),
(265,-24,o),
(308,-24,cs),
(355,-24,o),
(389,-56,o),
(389,-104,cs)
);
},
{
closed = 1;
nodes = (
(141,314,l),
(317,314,ls),
(360,314,o),
(389,274,o),
(389,234,cs),
(389,128,ls),
(389,95,o),
(369,61,o),
(336,51,cs),
(329,49,o),
(320,49,o),
(312,48,c),
(283,49,o),
(253,48,o),
(223,48,cs),
(175,48,o),
(141,78,o),
(141,128,cs)
);
}
);
width = 529;
}
);
note = g.ss01;
},
{
glyphname = h.ss01;
layers = (
{
hints = (
{
horizontal = 1;
place = (723,-20);
target = down;
type = TopGhost;
},
{
horizontal = 1;
place = (312,72);
type = Stem;
},
{
horizontal = 1;
place = (-20,21);
target = up;
type = BottomGhost;
},
{
horizontal = 1;
place = (-24,21);
target = up;
type = BottomGhost;
},
{
place = (387,90);
type = Stem;
},
{
place = (51,90);
type = Stem;
}
);
layerId = m01;
shapes = (
{
closed = 1;
nodes = (
(317,312,ls),
(331,312,o),
(344,307,o),
(356,299,cs),
(386,276,o),
(387,246,o),
(387,211,cs),
(387,161,ls),
(387,117,o),
(387,73,o),
(387,28,cs),
(387,-2,o),
(401,-20,o),
(432,-20,cs),
(453,-20,o),
(477,-7,o),
(477,16,cs),
(477,234,ls),
(477,320,o),
(402,384,o),
(318,384,cs),
(142,384,l),
(142,393,o),
(142,402,o),
(142,412,cs),
(142,433,o),
(142,691,o),
(139,697,cs),
(130,715,o),
(117,723,o),
(96,723,cs),
(76,723,o),
(51,710,o),
(51,687,cs),
(51,554,o),
(50,421,o),
(50,288,cs),
(50,266,o),
(50,8,o),
(53,3,cs),
(62,-16,o),
(75,-24,o),
(96,-24,cs),
(117,-24,o),
(141,-11,o),
(141,12,cs),
(141,112,o),
(142,212,o),
(142,312,c)
);
}
);
width = 528;
}
);
note = h.ss01;
},
{
glyphname = i.ss01;
layers = (
{
hints = (
{
horizontal = 1;
place = (448,138);
type = Stem;
},
{
horizontal = 1;
place = (-24,71);
type = Stem;
},
{
place = (51,90);
type = Stem;
}
);
layerId = m01;
shapes = (
{
closed = 1;
nodes = (
(141,550,ls),
(141,573,o),
(116,586,o),
(96,586,cs),
(75,586,o),
(51,573,o),
(51,550,cs),
(51,484,ls),
(51,461,o),
(75,448,o),
(96,448,cs),
(116,448,o),
(141,461,o),
(141,484,cs)
);
},
{
closed = 1;
nodes = (
(75,385,o),
(51,372,o),
(51,349,cs),
(51,126,ls),
(51,39,o),
(126,-24,o),
(210,-24,cs),
(230,-24,o),
(255,-11,o),
(255,12,cs),
(255,31,o),
(237,44,o),
(220,47,cs),
(210,48,o),
(201,48,o),
(192,50,cs),
(163,59,o),
(144,88,o),
(141,117,cs),
(140,129,o),
(140,142,o),
(140,155,cs),
(140,200,o),
(141,246,o),
(141,291,cs),
(141,302,o),
(142,355,o),
(137,363,cs),
(129,378,o),
(112,385,o),
(96,385,cs)
);
}
);
width = 255;
}
);
note = i.ss01;
},
{
glyphname = j.ss01;
layers = (
{
hints = (
{
horizontal = 1;
place = (448,138);
type = Stem;
},
{
horizontal = 1;
place = (-210,72);
type = Stem;
},
{
place = (131,90);
type = Stem;
}
);
layerId = m01;
shapes = (
{
closed = 1;
nodes = (
(131,-84,ls),
(131,-95,o),
(128,-106,o),
(123,-116,c),
(104,-145,o),
(75,-138,o),
(45,-138,cs),
(25,-138,o),
(0,-151,o),
(0,-174,cs),
(0,-207,o),
(39,-210,o),
(64,-210,cs),
(72,-210,o),
(80,-210,o),
(87,-210,cs),
(157,-210,o),
(221,-157,o),
(221,-85,cs),
(222,335,ls),
(222,343,o),
(222,353,o),
(219,361,cs),
(213,378,o),
(193,386,o),
(176,386,cs),
(159,386,o),
(140,378,o),
(133,361,cs),
(129,350,o),
(131,318,o),
(131,305,cs),
(131,208,l)
);
},
{
closed = 1;
nodes = (
(221,550,ls),
(221,573,o),
(197,586,o),
(176,586,cs),
(156,586,o),
(131,573,o),
(131,550,cs),
(131,484,ls),
(131,461,o),
(156,448,o),
(176,448,cs),
(197,448,o),
(221,461,o),
(221,484,cs)
);
}
);
width = 272;
}
);
note = j.ss01;
},
{
glyphname = k.ss01;
layers = (
{
hints = (
{
horizontal = 1;
place = (723,-20);
target = down;
type = TopGhost;
},
{
horizontal = 1;
place = (313,73);
type = Stem;
},
{
horizontal = 1;
place = (152,71);
type = Stem;
},
{
horizontal = 1;
place = (-20,21);
target = up;
type = BottomGhost;
},
{
horizontal = 1;
place = (-24,21);
target = up;
type = BottomGhost;
},
{
place = (387,90);
type = Stem;
},
{
place = (50,92);
type = Stem;
}
);
layerId = m01;
shapes = (
{
closed = 1;
nodes = (
(50,266,o),
(50,8,o),
(53,3,cs),
(62,-16,o),
(75,-24,o),
(96,-24,cs),
(117,-24,o),
(141,-11,o),
(141,12,cs),
(141,58,o),
(141,105,o),
(141,151,c),
(178,151,o),
(215,152,o),
(252,152,cs),
(267,152,o),
(324,152,o),
(335,148,cs),
(374,136,o),
(387,100,o),
(387,63,cs),
(387,53,o),
(386,43,o),
(386,33,cs),
(386,2,o),
(398,-20,o),
(432,-20,cs),
(453,-20,o),
(477,-7,o),
(477,16,cs),
(477,73,ls),
(477,152,o),
(413,214,o),
(335,222,cs),
(317,224,o),
(298,223,o),
(279,223,cs),
(192,223,l),
(240,269,o),
(276,309,o),
(348,313,cs),
(368,314,o),
(389,313,o),
(409,313,cs),
(429,313,o),
(454,326,o),
(454,349,cs),
(454,383,o),
(413,386,o),
(388,386,cs),
(279,386,o),
(184,350,o),
(142,241,c),
(142,282,o),
(142,370,o),
(142,411,cs),
(142,432,o),
(142,691,o),
(139,696,cs),
(130,714,o),
(117,723,o),
(96,723,cs),
(76,723,o),
(51,710,o),
(51,687,cs),
(51,653,o),
(51,620,o),
(51,587,cs),
(50,387,ls),
(50,354,o),
(50,321,o),
(50,287,cs)
);
}
);
width = 528;
}
);
note = k.ss01;
},
{
glyphname = m.ss01;
layers = (
{
hints = (
{
horizontal = 1;
place = (313,72);
type = Stem;
},
{
horizontal = 1;
place = (-23,21);
target = up;
type = BottomGhost;
},
{
horizontal = 1;
place = (-24,21);
target = up;
type = BottomGhost;
},
{
place = (637,90);
type = Stem;
},
{
place = (344,91);
type = Stem;
},
{
place = (50,92);
type = Stem;
}
);
layerId = m01;
shapes = (
{
closed = 1;
nodes = (
(434,277,o),
(461,313,o),
(502,313,cs),
(515,313,o),
(528,314,o),
(541,314,cs),
(558,314,o),
(582,314,o),
(597,306,cs),
(614,297,o),
(627,280,o),
(633,262,cs),
(638,246,o),
(638,179,o),
(638,159,cs),
(638,126,o),
(637,94,o),
(637,61,cs),
(637,24,o),
(628,-23,o),
(682,-23,cs),
(702,-23,o),
(727,-10,o),
(727,13,cs),
(727,79,o),
(727,145,o),
(727,211,cs),
(727,229,o),
(727,247,o),
(724,265,cs),
(713,325,o),
(660,369,o),
(603,381,cs),
(585,385,o),
(567,386,o),
(549,386,cs),
(545,386,o),
(541,386,o),
(537,386,cs),
(513,385,ls),
(509,385,o),
(505,385,o),
(501,385,cs),
(458,385,o),
(417,369,o),
(388,341,c),
(340,388,o),
(284,385,o),
(216,385,cs),
(96,385,ls),
(75,385,o),
(51,372,o),
(51,349,cs),
(51,250,o),
(50,150,o),
(50,50,cs),
(50,38,o),
(50,10,o),
(54,0,cs),
(61,-16,o),
(80,-24,o),
(96,-24,cs),
(113,-24,o),
(131,-16,o),
(139,0,cs),
(143,9,o),
(142,33,o),
(142,44,cs),
(142,133,o),
(141,223,o),
(141,313,c),
(182,313,o),
(223,314,o),
(265,314,cs),
(307,314,o),
(338,289,o),
(343,246,cs),
(343,244,o),
(344,242,o),
(344,239,cs),
(344,170,o),
(343,102,o),
(343,34,cs),
(343,26,o),
(343,17,o),
(344,9,cs),
(347,-12,o),
(369,-24,o),
(389,-24,cs),
(409,-24,o),
(431,-12,o),
(434,9,cs),
(435,17,o),
(435,25,o),
(435,33,cs),
(435,102,o),
(434,170,o),
(434,238,cs)
);
}
);
width = 778;
}
);
note = m.ss01;
},
{
glyphname = n.ss01;
layers = (
{
hints = (
{
horizontal = 1;
place = (315,71);
type = Stem;
},
{
horizontal = 1;
place = (-24,21);
target = up;
type = BottomGhost;
},
{
horizontal = 1;
place = (-25,21);
target = up;
type = BottomGhost;
},
{
place = (382,90);
type = Stem;
},
{
place = (51,91);
type = Stem;
}
);
layerId = m01;
shapes = (
{
closed = 1;
nodes = (
(193,314,o),
(245,315,o),
(298,315,cs),
(311,315,o),
(324,314,o),
(336,309,cs),
(362,299,o),
(378,273,o),
(381,246,cs),
(384,224,o),
(382,202,o),
(382,179,cs),
(382,128,o),
(381,76,o),
(381,25,cs),
(381,-6,o),
(395,-24,o),
(427,-24,cs),
(447,-24,o),
(472,-11,o),
(472,12,cs),
(472,78,o),
(473,145,o),
(473,211,cs),
(473,229,o),
(473,249,o),
(469,267,cs),
(452,339,o),
(387,386,o),
(313,386,cs),
(96,386,ls),
(75,386,o),
(51,373,o),
(51,350,cs),
(51,250,o),
(50,150,o),
(50,51,cs),
(50,38,o),
(49,9,o),
(54,-1,cs),
(61,-17,o),
(80,-25,o),
(96,-25,cs),
(113,-25,o),
(131,-17,o),
(139,-1,cs),
(143,9,o),
(142,32,o),
(142,43,cs),
(142,133,o),
(141,224,o),
(141,314,c)
);
}
);
width = 523;
}
);
note = n.ss01;
},
{
glyphname = p.ss01;
layers = (
{
hints = (
{
horizontal = 1;
place = (314,72);
type = Stem;
},
{
horizontal = 1;
place = (-24,72);
type = Stem;
},
{
horizontal = 1;
place = (-9,21);
target = up;
type = BottomGhost;
},
{
horizontal = 1;
place = (-362,21);
target = up;
type = BottomGhost;
},
{
place = (389,90);
type = Stem;
},
{
place = (50,92);
type = Stem;
}
);
layerId = m01;
shapes = (
{
closed = 1;
nodes = (
(319,-24,ls),
(403,-24,o),
(479,40,o),
(479,127,cs),
(479,235,ls),
(479,322,o),
(403,386,o),
(319,386,cs),
(96,386,ls),
(76,386,o),
(62,377,o),
(53,359,cs),
(50,353,o),
(50,85,o),
(50,63,cs),
(50,-67,o),
(51,-197,o),
(51,-326,cs),
(51,-349,o),
(76,-362,o),
(96,-362,cs),
(116,-362,o),
(131,-353,o),
(139,-335,c),
(142,-331,o),
(142,-170,o),
(142,-9,c),
(163,-19,o),
(187,-24,o),
(211,-24,cs)
);
},
{
closed = 1;
nodes = (
(141,314,l),
(318,314,ls),
(360,314,o),
(389,274,o),
(389,234,cs),
(389,128,ls),
(389,88,o),
(360,48,o),
(318,48,cs),
(212,48,ls),
(177,48,o),
(150,77,o),
(143,110,cs),
(142,114,o),
(142,120,o),
(142,125,cs),
(142,215,o),
(141,288,o),
(141,311,cs)
);
}
);
width = 530;
}
);
note = p.ss01;
},
{
glyphname = q.ss01;
layers = (
{
hints = (
{
horizontal = 1;
place = (315,72);
type = Stem;
},
{
horizontal = 1;
place = (-24,72);
type = Stem;
},
{
horizontal = 1;
place = (-362,21);
target = up;
type = BottomGhost;
},
{
place = (389,90);
type = Stem;
},
{
place = (51,90);
type = Stem;
}
);
layerId = m01;
shapes = (
{
closed = 1;
nodes = (
(389,-321,ls),
(389,-347,o),
(409,-362,o),
(434,-362,cs),
(455,-362,o),
(479,-349,o),
(479,-326,cs),
(479,120,l),
(480,131,o),
(480,142,o),
(480,153,cs),
(480,347,ls),
(480,370,o),
(455,383,o),
(435,383,cs),
(413,383,o),
(393,371,o),
(390,348,c),
(357,375,o),
(312,387,o),
(264,387,cs),
(196,387,o),
(164,386,o),
(96,386,cs),
(75,386,o),
(51,373,o),
(51,350,cs),
(51,127,ls),
(51,40,o),
(127,-24,o),
(211,-24,cs),
(319,-24,ls),
(344,-24,o),
(368,-19,o),
(389,-9,c)
);
},
{
closed = 1;
nodes = (
(212,48,ls),
(170,48,o),
(141,88,o),
(141,128,cs),
(141,314,l),
(195,314,o),
(250,315,o),
(305,315,cs),
(364,315,o),
(389,278,o),
(389,224,cs),
(389,222,ls),
(389,213,o),
(389,204,o),
(389,195,cs),
(389,144,ls),
(389,111,o),
(386,83,o),
(357,61,cs),
(346,53,o),
(332,48,o),
(318,48,cs)
);
}
);
width = 530;
}
);
note = q.ss01;
},
{
glyphname = r.ss01;
layers = (
{
hints = (
{
horizontal = 1;
place = (314,72);
type = Stem;
},
{
horizontal = 1;
place = (-24,21);
target = up;
type = BottomGhost;
},
{
place = (269,91);
type = Stem;
},
{
place = (51,91);
type = Stem;
}
);
layerId = m01;
shapes = (
{
closed = 1;
nodes = (
(203,314,ls),
(236,314,o),
(263,289,o),
(268,257,c),
(270,250,o),
(269,242,o),
(270,235,cs),
(275,215,o),
(296,205,o),
(315,205,cs),
(335,205,o),
(360,218,o),
(360,241,cs),
(360,326,o),
(286,386,o),
(205,386,cs),
(174,386,o),
(144,386,o),
(114,386,cs),
(89,386,o),
(51,384,o),
(51,350,cs),
(51,250,o),
(50,150,o),
(50,50,cs),
(50,39,o),
(49,9,o),
(54,0,cs),
(61,-16,o),
(79,-24,o),
(96,-24,cs),
(113,-24,o),
(131,-16,o),
(138,0,cs),
(143,9,o),
(142,33,o),
(142,44,cs),
(142,134,o),
(141,224,o),
(141,314,c)
);
}
);
width = 410;
}
);
note = r.ss01;
},
{
glyphname = u.ss01;
layers = (
{
hints = (
{
horizontal = 1;
place = (-25,72);
type = Stem;
},
{
place = (381,90);
type = Stem;
},
{
place = (50,90);
type = Stem;
}
);
layerId = m01;
shapes = (
{
closed = 1;
nodes = (
(297,-25,o),
(362,-24,o),
(426,-24,cs),
(446,-24,o),
(471,-11,o),
(471,12,cs),
(471,92,ls),
(471,168,o),
(472,245,o),
(472,322,cs),
(472,332,o),
(472,342,o),
(471,352,cs),
(469,374,o),
(446,386,o),
(426,386,cs),
(409,386,o),
(391,378,o),
(384,362,cs),
(377,348,o),
(381,272,o),
(381,251,cs),
(381,48,l),
(328,48,o),
(276,47,o),
(223,47,cs),
(160,47,o),
(140,85,o),
(140,143,cs),
(140,212,o),
(141,281,o),
(141,349,cs),
(141,373,o),
(117,385,o),
(96,385,cs),
(76,385,o),
(54,374,o),
(51,353,cs),
(50,344,o),
(50,335,o),
(50,326,cs),
(50,258,o),
(51,191,o),
(51,124,cs),
(51,51,o),
(107,-7,o),
(176,-21,cs),
(195,-24,o),
(214,-25,o),
(233,-25,cs)
);
}
);
width = 522;
}
);
note = u.ss01;
},
{
glyphname = v.ss01;
layers = (
{
hints = (
{
horizontal = 1;
place = (-26,412);
type = Stem;
},
{
place = (50,417);
type = Stem;
}
);
layerId = m01;
shapes = (
{
closed = 1;
nodes = (
(274,-26,o),
(286,-21,o),
(296,-10,cs),
(307,2,o),
(337,73,o),
(347,93,cs),
(386,174,o),
(428,255,o),
(464,338,cs),
(466,342,o),
(467,346,o),
(467,350,cs),
(467,373,o),
(442,386,o),
(422,386,cs),
(407,386,o),
(395,381,o),
(385,371,cs),
(374,360,o),
(275,145,o),
(258,110,c),
(242,145,o),
(143,360,o),
(132,371,cs),
(122,381,o),
(110,386,o),
(95,386,cs),
(75,386,o),
(50,373,o),
(50,350,cs),
(50,346,o),
(51,342,o),
(53,338,cs),
(89,254,o),
(132,173,o),
(171,91,cs),
(180,72,o),
(210,2,o),
(220,-10,cs),
(230,-21,o),
(243,-26,o),
(258,-26,cs)
);
}
);
width = 517;
}
);
note = v.ss01;
},
{
glyphname = w.ss01;
layers = (
{
hints = (
{
horizontal = 1;
place = (-25,73);
type = Stem;
},
{
place = (638,89);
type = Stem;
},
{
place = (343,91);
type = Stem;
},
{
place = (50,91);
type = Stem;
}
);
layerId = m01;
shapes = (
{
closed = 1;
nodes = (
(141,148,o),
(141,249,o),
(141,350,cs),
(141,373,o),
(117,386,o),
(96,386,cs),
(80,386,o),
(62,378,o),
(54,362,cs),
(50,352,o),
(50,323,o),
(50,311,cs),
(50,211,o),
(51,111,o),
(51,12,cs),
(51,-11,o),
(75,-24,o),
(96,-24,cs),
(152,-24,o),
(208,-25,o),
(264,-25,cs),
(309,-25,o),
(355,-10,o),
(388,20,c),
(417,-8,o),
(458,-24,o),
(501,-24,cs),
(517,-24,o),
(533,-25,o),
(549,-25,cs),
(567,-25,o),
(585,-24,o),
(603,-21,cs),
(660,-8,o),
(713,36,o),
(724,96,cs),
(727,113,o),
(727,131,o),
(727,148,cs),
(727,215,o),
(727,282,o),
(727,349,cs),
(727,372,o),
(702,385,o),
(682,385,cs),
(673,385,o),
(663,383,o),
(656,378,cs),
(638,368,o),
(637,357,o),
(637,338,cs),
(637,292,o),
(638,246,o),
(638,199,cs),
(638,180,o),
(638,116,o),
(633,99,cs),
(627,81,o),
(614,64,o),
(597,55,cs),
(582,47,o),
(558,47,o),
(541,47,cs),
(528,47,o),
(515,48,o),
(502,48,cs),
(460,48,o),
(436,83,o),
(434,121,cs),
(434,130,o),
(434,139,o),
(434,148,cs),
(434,194,o),
(434,239,o),
(434,285,cs),
(434,306,o),
(434,328,o),
(434,350,cs),
(434,373,o),
(410,386,o),
(389,386,cs),
(375,386,o),
(359,380,o),
(350,368,c),
(341,349,o),
(344,326,o),
(344,312,c),
(343,331,o),
(343,329,o),
(343,326,cs),
(343,260,o),
(344,193,o),
(344,127,cs),
(341,72,o),
(315,48,o),
(255,48,cs),
(217,48,o),
(179,48,o),
(141,48,c)
);
}
);
width = 778;
}
);
note = w.ss01;
},
{
glyphname = x.ss01;
layers = (
{
hints = (
{
horizontal = 1;
place = (314,72);
type = Stem;
},
{
horizontal = 1;
place = (-25,73);
type = Stem;
},
{
place = (50,417);
type = Stem;
}
);
layerId = m01;
shapes = (
{
closed = 1;
nodes = (
(369,386,ls),
(357,386,o),
(344,382,o),
(335,373,cs),
(321,361,o),
(288,304,o),
(275,285,cs),
(259,259,l),
(219,320,o),
(177,386,o),
(95,386,cs),
(75,386,o),
(50,373,o),
(50,350,cs),
(50,338,o),
(58,328,o),
(67,322,cs),
(91,306,o),
(100,324,o),
(132,292,cs),
(147,277,o),
(158,257,o),
(170,239,cs),
(208,181,l),
(120,48,l),
(95,48,ls),
(75,48,o),
(50,35,o),
(50,12,cs),
(50,-22,o),
(90,-25,o),
(116,-25,cs),
(138,-25,o),
(164,-27,o),
(181,-11,cs),
(195,1,o),
(228,58,o),
(241,77,cs),
(258,104,l),
(298,43,o),
(340,-24,o),
(422,-24,cs),
(442,-24,o),
(467,-11,o),
(467,12,cs),
(467,24,o),
(459,34,o),
(449,41,cs),
(425,56,o),
(417,38,o),
(386,70,cs),
(370,85,o),
(360,105,o),
(348,123,cs),
(309,181,l),
(397,314,l),
(401,314,ls),
(427,314,o),
(467,315,o),
(467,350,cs),
(467,373,o),
(442,386,o),
(422,386,cs)
);
}
);
width = 517;
}
);
note = x.ss01;
},
{
glyphname = y.ss01;
layers = (
{
hints = (
{
horizontal = 1;
place = (-24,72);
type = Stem;
},
{
horizontal = 1;
place = (-362,72);
type = Stem;
},
{
place = (389,90);
type = Stem;
},
{
place = (51,90);
type = Stem;
}
);
layerId = m01;
shapes = (
{
closed = 1;
nodes = (
(51,127,ls),
(51,41,o),
(127,-24,o),
(211,-24,cs),
(259,-24,ls),
(266,-24,o),
(273,-24,o),
(279,-24,cs),
(317,-24,ls),
(359,-24,o),
(388,-64,o),
(388,-104,cs),
(388,-166,o),
(388,-228,o),
(388,-290,c),
(212,-290,ls),
(195,-290,o),
(179,-283,o),
(167,-272,cs),
(139,-246,o),
(141,-216,o),
(141,-182,cs),
(141,-158,o),
(141,-133,o),
(141,-109,cs),
(141,-82,o),
(122,-67,o),
(96,-67,cs),
(75,-67,o),
(51,-80,o),
(51,-103,cs),
(51,-211,ls),
(51,-298,o),
(127,-362,o),
(211,-362,cs),
(281,-362,o),
(350,-362,o),
(420,-362,cs),
(443,-362,o),
(472,-358,o),
(477,-331,cs),
(480,-316,o),
(478,-275,o),
(478,-260,cs),
(478,-103,ls),
(478,-56,o),
(456,-15,o),
(422,12,c),
(456,39,o),
(479,80,o),
(479,127,cs),
(479,350,ls),
(479,373,o),
(454,386,o),
(434,386,cs),
(417,386,o),
(399,378,o),
(392,362,cs),
(386,351,o),
(389,327,o),
(389,314,cs),
(389,152,ls),
(389,116,o),
(388,85,o),
(357,62,cs),
(346,53,o),
(332,48,o),
(318,48,cs),
(305,48,ls),
(293,49,o),
(280,49,o),
(266,48,cs),
(212,48,ls),
(198,48,o),
(184,53,o),
(173,62,cs),
(142,85,o),
(141,115,o),
(141,151,cs),
(141,201,ls),
(141,245,o),
(141,290,o),
(141,335,cs),
(141,365,o),
(128,383,o),
(96,383,cs),
(75,383,o),
(51,370,o),
(51,347,cs)
);
}
);
width = 529;
}
);
note = y.ss01;
},
{
glyphname = z.ss01;
layers = (
{
hints = (
{
horizontal = 1;
place = (314,72);
type = Stem;
},
{
horizontal = 1;
place = (-24,72);
type = Stem;
},
{
place = (390,89);
type = Stem;
},
{
place = (50,89);
type = Stem;
}
);
layerId = m01;
shapes = (
{
closed = 1;
nodes = (
(187,48,l),
(371,238,l),
(431,300,ls),
(441,310,o),
(452,319,o),
(460,330,cs),
(464,336,o),
(467,342,o),
(467,350,cs),
(467,389,o),
(416,386,o),
(389,386,cs),
(332,386,l),
(206,386,ls),
(124,386,o),
(50,324,o),
(50,239,cs),
(50,216,o),
(75,203,o),
(95,203,cs),
(114,203,o),
(135,213,o),
(139,233,cs),
(141,240,o),
(140,248,o),
(142,255,cs),
(148,287,o),
(175,314,o),
(208,314,cs),
(330,314,l),
(146,124,l),
(86,62,ls),
(76,52,o),
(66,42,o),
(57,31,cs),
(53,26,o),
(50,19,o),
(50,12,cs),
(50,-23,o),
(94,-25,o),
(119,-25,cs),
(136,-25,o),
(153,-24,o),
(169,-24,cs),
(323,-24,ls),
(405,-24,o),
(479,39,o),
(479,123,cs),
(479,146,o),
(455,159,o),
(434,159,cs),
(416,159,o),
(394,149,o),
(390,130,cs),
(388,122,o),
(389,114,o),
(387,107,c),
(382,76,o),
(354,48,o),
(322,48,cs)
);
}
);
width = 530;
}
);
note = z.ss01;
},
{
glyphname = one.ss01;
layers = (
{
hints = (
{
horizontal = 1;
place = (652,73);
type = Stem;
},
{
horizontal = 1;
place = (-16,72);
type = Stem;
},
{
place = (219,91);
type = Stem;
},
{
place = (51,89);
type = Stem;
}
);
layerId = m01;
shapes = (
{
closed = 1;
nodes = (
(358,-16,ls),
(378,-16,o),
(403,-3,o),
(403,20,cs),
(403,43,o),
(378,56,o),
(358,56,cs),
(310,56,l),
(310,688,ls),
(310,722,o),
(267,725,o),
(241,725,cs),
(231,725,o),
(221,724,o),
(211,724,cs),
(127,724,o),
(51,660,o),
(51,573,cs),
(51,550,o),
(76,537,o),
(96,537,cs),
(115,537,o),
(135,547,o),
(140,567,cs),
(142,575,o),
(141,583,o),
(143,591,cs),
(149,623,o),
(178,652,o),
(212,652,cs),
(220,652,l),
(220,619,o),
(220,587,o),
(220,554,cs),
(219,358,ls),
(219,325,o),
(219,292,o),
(219,260,cs),
(219,246,o),
(219,122,o),
(220,56,c),
(116,56,ls),
(96,56,o),
(71,43,o),
(71,20,cs),
(71,-3,o),
(96,-16,o),
(116,-16,cs)
);
}
);
width = 453;
}
);
note = one.ss01;
},
{
glyphname = six.ss01;
layers = (
{
hints = (
{
place = (652,72);
type = Stem;
},
{
place = (390,90);
type = Stem;
},
{
place = (314,72);
type = Stem;
},
{
place = (52,90);
type = Stem;
},
{
place = (-24,72);
type = Stem;
}
);
layerId = m01;
shapes = (
{
closed = 1;
nodes = (
(141,386,l),
(142,445,o),
(142,504,o),
(142,564,cs),
(142,605,o),
(161,646,o),
(206,652,cs),
(226,655,o),
(248,652,o),
(268,652,cs),
(396,652,ls),
(416,652,o),
(441,665,o),
(441,688,cs),
(441,726,o),
(394,724,o),
(368,724,cs),
(321,724,l),
(212,724,ls),
(133,724,o),
(62,668,o),
(53,588,cs),
(50,564,o),
(52,539,o),
(52,515,cs),
(52,398,ls),
(52,375,o),
(52,353,o),
(52,330,cs),
(51,194,ls),
(51,172,o),
(51,149,o),
(51,127,cs),
(51,40,o),
(127,-24,o),
(211,-24,cs),
(320,-24,ls),
(404,-24,o),
(480,40,o),
(480,127,cs),
(480,235,ls),
(480,322,o),
(404,386,o),
(320,386,cs)
);
},
{
closed = 1;
nodes = (
(390,127,ls),
(390,88,o),
(361,48,o),
(318,48,cs),
(212,48,ls),
(170,48,o),
(141,88,o),
(141,127,cs),
(141,189,o),
(141,251,o),
(141,313,c),
(175,313,o),
(209,314,o),
(242,314,cs),
(258,314,o),
(325,315,o),
(337,311,cs),
(370,300,o),
(390,267,o),
(390,234,cs)
);
}
);
width = 530;
}
);
note = six.ss01;
},
{
glyphname = eight.ss01;
layers = (
{
hints = (
{
place = (652,72);
type = Stem;
},
{
place = (389,90);
type = Stem;
},
{
place = (314,72);
type = Stem;
},
{
place = (51,90);
type = Stem;
},
{
place = (-24,72);
type = Stem;
}
);
layerId = m01;
shapes = (
{
closed = 1;
nodes = (
(51,127,ls),
(51,40,o),
(127,-24,o),
(211,-24,cs),
(319,-24,ls),
(403,-24,o),
(479,40,o),
(479,127,cs),
(479,235,ls),
(479,282,o),
(457,323,o),
(423,350,c),
(457,377,o),
(479,418,o),
(479,465,cs),
(479,573,ls),
(479,660,o),
(403,724,o),
(319,724,cs),
(96,724,ls),
(76,724,o),
(51,711,o),
(51,688,cs),
(51,465,ls),
(51,418,o),
(73,377,o),
(107,350,c),
(73,323,o),
(51,282,o),
(51,235,cs)
);
},
{
closed = 1;
nodes = (
(141,652,l),
(318,652,ls),
(360,652,o),
(389,612,o),
(389,572,cs),
(389,466,ls),
(389,427,o),
(361,388,o),
(319,386,cs),
(211,386,ls),
(169,388,o),
(141,427,o),
(141,466,cs)
);
},
{
closed = 1;
nodes = (
(141,234,ls),
(141,273,o),
(169,312,o),
(211,314,cs),
(319,314,ls),
(361,312,o),
(389,273,o),
(389,234,cs),
(389,128,ls),
(389,88,o),
(360,48,o),
(318,48,cs),
(212,48,ls),
(170,48,o),
(141,88,o),
(141,128,cs)
);
}
);
width = 530;
}
);
note = eight.ss01;
},
{
glyphname = C.ss02;
layers = (
{
hints = (
{
horizontal = 1;
place = (659,72);
type = Stem;
},
{
horizontal = 1;
place = (-24,71);
type = Stem;
},
{
place = (51,90);
type = Stem;
}
);
layerId = m01;
shapes = (
{
closed = 1;
nodes = (
(141,579,ls),
(141,612,o),
(161,645,o),
(193,656,cs),
(205,660,o),
(258,659,o),
(272,659,cs),
(317,659,o),
(363,658,o),
(408,658,cs),
(430,658,o),
(459,668,o),
(459,695,cs),
(459,718,o),
(435,731,o),
(414,731,cs),
(211,731,ls),
(127,731,o),
(51,666,o),
(51,580,cs),
(51,127,ls),
(51,40,o),
(127,-24,o),
(211,-24,cs),
(414,-24,ls),
(434,-24,o),
(459,-11,o),
(459,12,cs),
(459,32,o),
(440,45,o),
(422,47,cs),
(412,49,o),
(401,48,o),
(391,48,cs),
(351,48,o),
(312,47,o),
(272,47,cs),
(258,47,o),
(205,47,o),
(193,51,cs),
(161,61,o),
(141,94,o),
(141,128,cs)
);
}
);
width = 510;
}
);
note = C.ss02;
},
{
glyphname = E.ss02;
layers = (
{
hints = (
{
horizontal = 1;
place = (652,72);
type = Stem;
},
{
horizontal = 1;
place = (315,71);
type = Stem;
},
{
horizontal = 1;
place = (-24,72);
type = Stem;
},
{
place = (389,89);
type = Stem;
},
{
place = (50,90);
type = Stem;
}
);
layerId = m01;
shapes = (
{
closed = 1;
nodes = (
(210,724,ls),
(126,724,o),
(50,660,o),
(50,574,cs),
(50,466,ls),
(50,419,o),
(73,378,o),
(107,350,c),
(73,323,o),
(50,283,o),
(50,235,cs),
(50,127,ls),
(50,40,o),
(126,-24,o),
(210,-24,cs),
(318,-24,ls),
(402,-24,o),
(478,40,o),
(478,127,cs),
(478,150,o),
(453,163,o),
(433,163,cs),
(414,163,o),
(393,153,o),
(389,133,cs),
(387,126,o),
(388,118,o),
(386,110,cs),
(380,77,o),
(351,48,o),
(317,48,cs),
(211,48,ls),
(169,48,o),
(140,88,o),
(140,128,cs),
(140,234,ls),
(140,267,o),
(160,302,o),
(192,311,cs),
(200,314,o),
(209,313,o),
(217,314,cs),
(220,314,o),
(223,314,o),
(227,314,cs),
(277,314,o),
(327,315,o),
(377,315,cs),
(403,315,o),
(444,316,o),
(444,351,cs),
(444,378,o),
(415,387,o),
(393,387,cs),
(336,387,o),
(278,386,o),
(220,386,cs),
(173,386,o),
(140,419,o),
(140,466,cs),
(140,573,ls),
(140,613,o),
(169,652,o),
(211,652,cs),
(317,652,ls),
(351,652,o),
(380,624,o),
(386,591,cs),
(388,583,o),
(387,575,o),
(389,567,cs),
(393,548,o),
(414,538,o),
(433,538,cs),
(453,538,o),
(478,551,o),
(478,574,cs),
(478,660,o),
(402,724,o),
(318,724,cs)
);
}
);
width = 528;
}
);
note = E.ss02;
},
{
glyphname = s.ss01;
layers = (
{
hints = (
{
horizontal = 1;
place = (314,72);
type = Stem;
},
{
horizontal = 1;
place = (151,73);
type = Stem;
},
{
horizontal = 1;
place = (-23,71);
type = Stem;
},
{
place = (379,90);
type = Stem;
},
{
place = (50,90);
type = Stem;
}
);
layerId = m01;
shapes = (
{
closed = 1;
nodes = (
(312,-23,ls),
(380,-23,o),
(469,16,o),
(469,95,cs),
(469,170,o),
(412,211,o),
(342,221,cs),
(324,224,o),
(305,224,o),
(287,224,cs),
(260,224,o),
(234,223,o),
(208,223,cs),
(167,223,o),
(140,238,o),
(140,282,cs),
(140,292,o),
(141,303,o),
(141,314,c),
(311,314,ls),
(337,314,o),
(362,296,o),
(372,272,cs),
(374,266,o),
(375,260,o),
(378,254,cs),
(385,238,o),
(404,230,o),
(420,230,cs),
(441,230,o),
(465,243,o),
(465,266,cs),
(465,277,o),
(458,292,o),
(454,302,c),
(427,355,o),
(371,386,o),
(312,386,cs),
(187,386,l),
(130,386,ls),
(102,386,o),
(51,390,o),
(51,350,cs),
(51,332,o),
(50,314,o),
(50,295,cs),
(50,279,o),
(50,261,o),
(54,245,cs),
(58,226,o),
(69,209,o),
(83,196,cs),
(127,153,o),
(180,151,o),
(237,151,cs),
(311,151,ls),
(349,151,o),
(379,137,o),
(379,95,cs),
(379,51,o),
(318,48,o),
(286,48,cs),
(230,48,o),
(174,50,o),
(118,50,cs),
(92,50,o),
(53,47,o),
(53,13,cs),
(53,-10,o),
(78,-23,o),
(98,-23,cs)
);
}
);
width = 519;
}
);
note = s.ss01;
},
{
glyphname = t.ss01;
layers = (
{
hints = (
{
horizontal = 1;
place = (724,-20);
target = down;
type = TopGhost;
},
{
horizontal = 1;
place = (314,72);
type = Stem;
},
{
horizontal = 1;
place = (-25,73);
type = Stem;
},
{
place = (51,90);
type = Stem;
}
);
layerId = m01;
shapes = (
{
closed = 1;
nodes = (
(141,505,l),
(141,630,ls),
(141,669,o),
(154,724,o),
(96,724,cs),
(79,724,o),
(60,716,o),
(53,699,cs),
(50,691,o),
(51,678,o),
(51,669,cs),
(51,488,o),
(51,308,o),
(51,127,cs),
(51,40,o),
(127,-24,o),
(211,-24,cs),
(222,-24,o),
(233,-25,o),
(244,-25,cs),
(269,-25,o),
(310,-22,o),
(310,12,cs),
(310,35,o),
(285,48,o),
(265,48,cs),
(223,48,o),
(180,40,o),
(154,82,cs),
(146,96,o),
(141,112,o),
(141,128,cs),
(141,314,l),
(240,314,ls),
(266,314,o),
(310,313,o),
(310,350,cs),
(310,373,o),
(285,386,o),
(265,386,cs),
(141,386,l)
);
}
);
width = 360;
}
);
note = t.ss01;
},
{
glyphname = V.ss01;
layers = (
{
hints = (
{
horizontal = 1;
place = (724,-20);
target = down;
type = TopGhost;
},
{
horizontal = 1;
place = (-23,21);
target = up;
type = BottomGhost;
},
{
place = (51,426);
type = Stem;
}
);
layerId = m01;
shapes = (
{
closed = 1;
nodes = (
(264,115,l),
(174,557,ls),
(171,576,o),
(141,697,o),
(137,703,cs),
(126,718,o),
(114,724,o),
(96,724,cs),
(76,724,o),
(51,711,o),
(51,688,cs),
(51,678,o),
(81,561,o),
(85,546,cs),
(120,402,o),
(156,259,o),
(192,115,cs),
(194,108,o),
(221,1,o),
(222,-1,c),
(234,-16,o),
(244,-23,o),
(264,-23,cs),
(284,-23,o),
(294,-16,o),
(306,-1,c),
(307,1,o),
(334,108,o),
(336,115,cs),
(372,259,o),
(407,402,o),
(443,546,cs),
(447,561,o),
(477,678,o),
(477,688,cs),
(477,711,o),
(452,724,o),
(432,724,cs),
(414,724,o),
(402,718,o),
(391,703,cs),
(387,697,o),
(357,576,o),
(353,557,cs)
);
}
);
width = 528;
}
);
note = V.ss01;
},
{
glyphname = X.ss01;
layers = (
{
hints = (
{
horizontal = 1;
place = (652,72);
type = Stem;
},
{
horizontal = 1;
place = (-24,72);
type = Stem;
},
{
place = (51,520);
type = Stem;
}
);
layerId = m01;
shapes = (
{
closed = 1;
nodes = (
(546,-24,o),
(571,-11,o),
(571,12,cs),
(571,19,o),
(568,26,o),
(563,32,cs),
(537,64,o),
(472,24,o),
(438,113,cs),
(424,152,o),
(412,192,o),
(398,231,cs),
(358,350,l),
(460,652,l),
(505,652,ls),
(531,652,o),
(571,653,o),
(571,688,cs),
(571,711,o),
(546,724,o),
(526,724,cs),
(426,724,ls),
(410,724,o),
(394,718,o),
(386,705,cs),
(375,689,o),
(338,567,o),
(328,538,cs),
(311,488,l),
(284,568,ls),
(278,585,o),
(273,603,o),
(266,619,cs),
(234,688,o),
(171,724,o),
(96,724,cs),
(76,724,o),
(51,711,o),
(51,688,cs),
(51,681,o),
(54,674,o),
(59,668,cs),
(85,636,o),
(151,676,o),
(184,587,cs),
(198,548,o),
(211,508,o),
(224,469,cs),
(264,350,l),
(162,48,l),
(117,48,ls),
(91,48,o),
(51,47,o),
(51,12,cs),
(51,-11,o),
(75,-24,o),
(96,-24,cs),
(156,-24,ls),
(158,-24,o),
(161,-24,o),
(163,-24,cs),
(177,-25,ls),
(180,-25,o),
(182,-25,o),
(184,-25,cs),
(199,-25,o),
(216,-23,o),
(228,-13,cs),
(243,-1,o),
(256,52,o),
(263,72,cs),
(311,213,l),
(339,132,ls),
(344,115,o),
(349,97,o),
(357,81,cs),
(388,13,o),
(451,-24,o),
(526,-24,cs)
);
}
);
width = 621;
}
);
note = X.ss01;
},
{
glyphname = period;
layers = (
{
hints = (
{
horizontal = 1;
place = (0,112);
type = Stem;
},
{
place = (51,112);
type = Stem;
}
);
layerId = m01;
shapes = (
{
closed = 1;
nodes = (
(163,87,o),
(138,112,o),
(107,112,cs),
(76,112,o),
(51,87,o),
(51,56,cs),
(51,25,o),
(76,0,o),
(107,0,cs),
(138,0,o),
(163,25,o),
(163,56,cs)
);
}
);
width = 213;
}
);
note = period;
unicode = 46;
},
{
glyphname = comma;
layers = (
{
hints = (
{
horizontal = 1;
place = (-54,181);
type = Stem;
},
{
place = (56,112);
type = Stem;
}
);
layerId = m01;
shapes = (
{
closed = 1;
nodes = (
(168,102,o),
(143,127,o),
(112,127,cs),
(81,127,o),
(56,102,o),
(56,71,cs),
(56,48,o),
(69,29,o),
(88,20,c),
(82,13,o),
(74,8,o),
(66,3,cs),
(56,-2,o),
(50,-13,o),
(50,-24,cs),
(50,-28,o),
(52,-34,o),
(54,-38,cs),
(59,-48,o),
(70,-54,o),
(81,-54,cs),
(85,-54,o),
(91,-53,o),
(95,-51,cs),
(138,-27,o),
(168,21,o),
(168,71,cs)
);
}
);
width = 219;
}
);
note = comma;
unicode = 44;
},
{
glyphname = exclam;
layers = (
{
hints = (
{
horizontal = 1;
place = (0,112);
type = Stem;
},
{
place = (58,90);
type = Stem;
},
{
place = (50,112);
type = Stem;
}
);
layerId = m01;
shapes = (
{
closed = 1;
nodes = (
(148,651,ls),
(148,674,o),
(123,687,o),
(103,687,cs),
(82,687,o),
(58,674,o),
(58,651,cs),
(58,211,ls),
(58,188,o),
(82,175,o),
(103,175,cs),
(123,175,o),
(148,188,o),
(148,211,cs)
);
},
{
closed = 1;
nodes = (
(162,87,o),
(137,112,o),
(106,112,cs),
(75,112,o),
(50,87,o),
(50,56,cs),
(50,25,o),
(75,0,o),
(106,0,cs),
(137,0,o),
(162,25,o),
(162,56,cs)
);
}
);
width = 213;
}
);
note = exclam;
unicode = 33;
},
{
glyphname = numbersign;
layers = (
{
hints = (
{
horizontal = 1;
place = (283,72);
type = Stem;
},
{
horizontal = 1;
place = (148,72);
type = Stem;
},
{
place = (287,90);
type = Stem;
},
{
place = (152,90);
type = Stem;
}
);
layerId = m01;
shapes = (
{
closed = 1;
nodes = (
(242,148,l),
(287,148,l),
(287,84,ls),
(287,61,o),
(311,48,o),
(332,48,cs),
(352,48,o),
(377,61,o),
(377,84,cs),
(377,148,l),
(434,148,ls),
(454,148,o),
(479,161,o),
(479,184,cs),
(479,207,o),
(454,220,o),
(434,220,cs),
(377,220,l),
(377,283,l),
(434,283,ls),
(454,283,o),
(479,296,o),
(479,319,cs),
(479,342,o),
(454,355,o),
(434,355,cs),
(377,355,l),
(377,422,ls),
(377,445,o),
(352,458,o),
(332,458,cs),
(311,458,o),
(287,445,o),
(287,422,cs),
(287,355,l),
(242,355,l),
(242,421,ls),
(242,444,o),
(217,457,o),
(197,457,cs),
(176,457,o),
(152,444,o),
(152,421,cs),
(152,355,l),
(95,355,ls),
(75,355,o),
(50,342,o),
(50,319,cs),
(50,296,o),
(75,283,o),
(95,283,cs),
(152,283,l),
(152,220,l),
(95,220,ls),
(75,220,o),
(50,207,o),
(50,184,cs),
(50,161,o),
(75,148,o),
(95,148,cs),
(152,148,l),
(152,83,ls),
(152,60,o),
(176,47,o),
(197,47,cs),
(217,47,o),
(242,60,o),
(242,83,cs)
);
},
{
closed = 1;
nodes = (
(242,220,l),
(242,283,l),
(287,283,l),
(287,220,l)
);
}
);
width = 529;
}
);
note = numbersign;
unicode = 35;
},
{
glyphname = less;
layers = (
{
hints = (
{
horizontal = 1;
place = (144,396);
type = Stem;
},
{
place = (51,252);
type = Stem;
}
);
layerId = m01;
shapes = (
{
closed = 1;
nodes = (
(51,334,o),
(54,328,o),
(58,322,cs),
(68,308,o),
(218,159,o),
(229,152,cs),
(238,146,o),
(248,144,o),
(258,144,cs),
(278,144,o),
(303,156,o),
(303,180,cs),
(303,202,o),
(261,234,o),
(245,250,cs),
(153,342,l),
(245,434,ls),
(261,449,o),
(303,482,o),
(303,504,cs),
(303,527,o),
(278,540,o),
(258,540,cs),
(248,540,o),
(238,537,o),
(229,532,cs),
(218,524,o),
(68,375,o),
(58,361,cs),
(54,355,o),
(51,349,o),
(51,342,cs)
);
}
);
width = 353;
}
);
note = less;
unicode = 60;
},
{
glyphname = greater;
layers = (
{
hints = (
{
horizontal = 1;
place = (144,396);
type = Stem;
},
{
place = (51,252);
type = Stem;
}
);
layerId = m01;
shapes = (
{
closed = 1;
nodes = (
(303,349,o),
(300,355,o),
(296,361,cs),
(285,375,o),
(136,524,o),
(125,532,cs),
(116,537,o),
(106,540,o),
(96,540,cs),
(75,540,o),
(51,527,o),
(51,504,cs),
(51,482,o),
(93,449,o),
(108,434,cs),
(200,342,l),
(108,250,ls),
(93,234,o),
(51,202,o),
(51,180,cs),
(51,156,o),
(75,144,o),
(96,144,cs),
(106,144,o),
(116,146,o),
(125,152,cs),
(136,159,o),
(285,308,o),
(296,322,cs),
(300,328,o),
(303,334,o),
(303,342,cs)
);
}
);
width = 353;
}
);
note = greater;
unicode = 62;
},
{
glyphname = equal;
layers = (
{
hints = (
{
horizontal = 1;
place = (314,72);
type = Stem;
},
{
horizontal = 1;
place = (179,72);
type = Stem;
},
{
place = (50,429);
type = Stem;
}
);
layerId = m01;
shapes = (
{
closed = 1;
nodes = (
(434,314,ls),
(454,314,o),
(479,327,o),
(479,350,cs),
(479,373,o),
(454,386,o),
(434,386,cs),
(95,386,ls),
(75,386,o),
(50,373,o),
(50,350,cs),
(50,327,o),
(75,314,o),
(95,314,cs)
);
},
{
closed = 1;
nodes = (
(434,179,ls),
(454,179,o),
(479,192,o),
(479,215,cs),
(479,238,o),
(454,251,o),
(434,251,cs),
(95,251,ls),
(75,251,o),
(50,238,o),
(50,215,cs),
(50,192,o),
(75,179,o),
(95,179,cs)
);
}
);
width = 529;
}
);
note = equal;
unicode = 61;
},
{
glyphname = dollar;
layers = (
{
hints = (
{
horizontal = 1;
place = (558,72);
type = Stem;
},
{
horizontal = 1;
place = (314,72);
type = Stem;
},
{
horizontal = 1;
place = (69,72);
type = Stem;
},
{
place = (389,90);
type = Stem;
},
{
place = (228,90);
type = Stem;
},
{
place = (211,90);
type = Stem;
},
{
place = (51,90);
type = Stem;
}
);
layerId = m01;
shapes = (
{
closed = 1;
nodes = (
(211,630,ls),
(142,630,o),
(80,589,o),
(58,523,cs),
(52,506,o),
(51,488,o),
(51,470,cs),
(51,431,o),
(63,396,o),
(89,368,cs),
(149,302,o),
(225,314,o),
(305,314,cs),
(362,314,o),
(389,279,o),
(389,225,cs),
(389,205,o),
(384,186,o),
(372,170,cs),
(350,141,o),
(329,141,o),
(295,141,cs),
(246,141,l),
(119,141,ls),
(99,141,o),
(74,128,o),
(74,105,cs),
(74,71,o),
(112,69,o),
(138,69,cs),
(211,69,l),
(211,-1,ls),
(211,-24,o),
(236,-37,o),
(256,-37,cs),
(276,-37,o),
(301,-24,o),
(301,-1,cs),
(301,69,l),
(319,69,ls),
(388,69,o),
(449,110,o),
(472,176,cs),
(478,193,o),
(479,212,o),
(479,230,cs),
(479,268,o),
(467,303,o),
(440,332,cs),
(380,398,o),
(304,386,o),
(224,386,cs),
(168,386,o),
(141,421,o),
(141,475,cs),
(141,494,o),
(145,513,o),
(157,529,cs),
(179,558,o),
(200,558,o),
(234,558,cs),
(283,558,l),
(406,558,ls),
(426,558,o),
(451,571,o),
(451,594,cs),
(451,628,o),
(412,630,o),
(387,630,cs),
(318,630,l),
(318,700,ls),
(318,723,o),
(293,736,o),
(273,736,cs),
(253,736,o),
(228,723,o),
(228,700,cs),
(228,630,l)
);
}
);
width = 529;
}
);
note = dollar;
unicode = 36;
},
{
glyphname = slash;
layers = (
{
hints = (
{
horizontal = 1;
place = (-36,767);
type = Stem;
},
{
place = (51,381);
type = Stem;
}
);
layerId = m01;
shapes = (
{
closed = 1;
nodes = (
(51,-23,o),
(75,-36,o),
(96,-36,cs),
(121,-36,o),
(133,-24,o),
(142,-2,cs),
(334,456,ls),
(347,486,o),
(432,681,o),
(432,695,cs),
(432,718,o),
(408,731,o),
(387,731,cs),
(362,731,o),
(350,719,o),
(340,697,cs),
(149,239,ls),
(136,209,o),
(51,14,o),
(51,0,cs)
);
}
);
width = 483;
}
);
note = slash;
unicode = 47;
},
{
glyphname = backslash;
layers = (
{
hints = (
{
horizontal = 1;
place = (-36,767);
type = Stem;
},
{
place = (51,381);
type = Stem;
}
);
layerId = m01;
shapes = (
{
closed = 1;
nodes = (
(432,14,o),
(347,209,o),
(334,239,cs),
(142,697,ls),
(133,719,o),
(121,731,o),
(96,731,cs),
(75,731,o),
(51,718,o),
(51,695,cs),
(51,681,o),
(136,486,o),
(149,456,cs),
(340,-2,ls),
(350,-24,o),
(362,-36,o),
(387,-36,cs),
(408,-36,o),
(432,-23,o),
(432,0,cs)
);
}
);
width = 483;
}
);
note = backslash;
unicode = 92;
},
{
glyphname = tilde;
layers = (
{
hints = (
{
horizontal = 1;
place = (600,121);
type = Stem;
},
{
horizontal = 1;
place = (551,72);
type = Stem;
},
{
place = (50,290);
type = Stem;
}
);
layerId = m01;
shapes = (
{
closed = 1;
nodes = (
(145,650,l),
(149,650,o),
(150,639,o),
(150,636,cs),
(151,619,o),
(153,610,o),
(161,594,cs),
(177,565,o),
(213,551,o),
(245,551,cs),
(295,551,o),
(340,583,o),
(340,636,cs),
(340,659,o),
(315,672,o),
(295,672,cs),
(244,672,o),
(254,633,o),
(245,623,c),
(245,623,l),
(241,623,o),
(240,634,o),
(240,636,cs),
(238,654,o),
(237,663,o),
(229,679,cs),
(213,708,o),
(177,721,o),
(145,721,cs),
(95,721,o),
(50,689,o),
(50,636,cs),
(50,613,o),
(75,600,o),
(95,600,cs),
(145,600,o),
(136,640,o),
(145,649,c)
);
}
);
width = 390;
}
);
note = tilde;
unicode = 732;
},
{
glyphname = asciicircum;
layers = (
{
hints = (
{
horizontal = 1;
place = (493,252);
type = Stem;
},
{
place = (51,396);
type = Stem;
}
);
layerId = m01;
shapes = (
{
closed = 1;
nodes = (
(242,745,o),
(235,742,o),
(230,738,cs),
(216,727,o),
(66,578,o),
(59,567,cs),
(54,558,o),
(51,548,o),
(51,538,cs),
(51,517,o),
(64,493,o),
(87,493,cs),
(109,493,o),
(142,535,o),
(157,550,cs),
(249,642,l),
(341,550,ls),
(357,535,o),
(389,493,o),
(411,493,cs),
(434,493,o),
(447,517,o),
(447,538,cs),
(447,548,o),
(445,558,o),
(439,567,cs),
(432,578,o),
(282,727,o),
(268,738,cs),
(263,742,o),
(256,745,o),
(249,745,cs)
);
}
);
width = 498;
}
);
note = asciicircum;
unicode = 94;
},
{
glyphname = asterisk;
layers = (
{
hints = (
{
horizontal = 1;
place = (568,73);
type = Stem;
},
{
place = (51,428);
type = Stem;
}
);
layerId = m01;
shapes = (
{
closed = 1;
nodes = (
(415,439,o),
(440,452,o),
(440,475,cs),
(440,496,o),
(405,522,o),
(391,537,cs),
(359,569,l),
(384,569,o),
(409,569,o),
(434,569,cs),
(454,569,o),
(479,582,o),
(479,605,cs),
(479,645,o),
(426,642,o),
(399,642,cs),
(386,642,o),
(373,642,o),
(359,642,c),
(391,673,ls),
(405,688,o),
(440,714,o),
(440,735,cs),
(440,758,o),
(415,771,o),
(395,771,cs),
(362,771,o),
(341,738,o),
(319,717,cs),
(265,663,l),
(210,718,ls),
(189,739,o),
(168,772,o),
(135,772,cs),
(115,772,o),
(90,759,o),
(90,736,cs),
(90,714,o),
(125,688,o),
(139,674,cs),
(171,641,l),
(146,641,o),
(121,641,o),
(96,641,cs),
(76,641,o),
(51,628,o),
(51,605,cs),
(51,566,o),
(104,568,o),
(131,568,cs),
(144,568,o),
(157,568,o),
(170,568,c),
(139,537,ls),
(125,523,o),
(90,497,o),
(90,475,cs),
(90,452,o),
(114,439,o),
(135,439,cs),
(168,439,o),
(189,472,o),
(210,493,cs),
(265,548,l),
(319,493,ls),
(341,472,o),
(362,439,o),
(395,439,cs)
);
}
);
width = 529;
}
);
note = asterisk;
unicode = 42;
},
{
glyphname = g.ss02;
layers = (
{
hints = (
{
horizontal = 1;
place = (314,72);
type = Stem;
},
{
horizontal = 1;
place = (-24,72);
type = Stem;
},
{
horizontal = 1;
place = (-362,71);
type = Stem;
},
{
place = (389,90);
type = Stem;
},
{
place = (51,90);
type = Stem;
}
);
layerId = m01;
shapes = (
{
closed = 1;
nodes = (
(51,-211,ls),
(51,-298,o),
(126,-362,o),
(211,-362,cs),
(315,-362,ls),
(401,-362,o),
(479,-300,o),
(479,-211,cs),
(479,-178,o),
(481,-120,o),
(478,-88,cs),
(473,-47,o),
(452,-13,o),
(421,12,c),
(456,39,o),
(479,80,o),
(479,127,cs),
(479,232,ls),
(479,301,o),
(431,358,o),
(368,378,c),
(376,402,o),
(396,423,o),
(422,429,cs),
(429,430,o),
(436,429,o),
(443,431,cs),
(461,434,o),
(479,447,o),
(479,466,cs),
(479,489,o),
(454,502,o),
(434,502,cs),
(361,502,o),
(295,454,o),
(278,386,c),
(96,386,ls),
(75,386,o),
(51,373,o),
(51,350,cs),
(51,127,ls),
(51,95,o),
(62,64,o),
(81,39,cs),
(139,-37,o),
(222,-24,o),
(306,-24,cs),
(350,-24,o),
(383,-49,o),
(388,-95,cs),
(390,-108,o),
(389,-122,o),
(389,-136,cs),
(389,-161,o),
(389,-186,o),
(389,-210,cs),
(389,-259,o),
(355,-291,o),
(307,-291,cs),
(275,-291,o),
(244,-290,o),
(212,-290,cs),
(195,-290,o),
(179,-283,o),
(167,-272,cs),
(139,-246,o),
(141,-216,o),
(141,-182,cs),
(141,-158,o),
(141,-134,o),
(141,-109,cs),
(141,-83,o),
(122,-67,o),
(96,-67,cs),
(75,-67,o),
(51,-80,o),
(51,-103,cs)
);
},
{
closed = 1;
nodes = (
(141,314,l),
(317,314,ls),
(360,314,o),
(389,271,o),
(389,231,cs),
(389,128,ls),
(389,95,o),
(369,61,o),
(336,51,cs),
(330,49,o),
(324,49,o),
(318,48,c),
(286,50,o),
(252,48,o),
(222,48,cs),
(174,48,o),
(141,79,o),
(141,128,cs)
);
}
);
width = 530;
}
);
note = g.ss02;
},
{
glyphname = hyphen;
layers = (
{
hints = (
{
horizontal = 1;
place = (314,72);
type = Stem;
},
{
place = (50,270);
type = Stem;
}
);
layerId = m01;
shapes = (
{
closed = 1;
nodes = (
(275,314,ls),
(295,314,o),
(320,327,o),
(320,350,cs),
(320,373,o),
(295,386,o),
(275,386,cs),
(95,386,ls),
(75,386,o),
(50,373,o),
(50,350,cs),
(50,327,o),
(75,314,o),
(95,314,cs)
);
}
);
width = 370;
}
);
note = hyphen;
unicode = 45;
},
{
glyphname = plus;
layers = (
{
hints = (
{
horizontal = 1;
place = (179,72);
type = Stem;
},
{
place = (206,90);
type = Stem;
}
);
layerId = m01;
shapes = (
{
closed = 1;
nodes = (
(206,179,l),
(206,68,ls),
(206,45,o),
(231,32,o),
(251,32,cs),
(271,32,o),
(296,45,o),
(296,68,cs),
(296,179,l),
(395,179,ls),
(415,179,o),
(440,192,o),
(440,215,cs),
(440,238,o),
(415,251,o),
(395,251,cs),
(296,251,l),
(296,350,ls),
(296,373,o),
(271,386,o),
(251,386,cs),
(231,386,o),
(206,373,o),
(206,350,cs),
(206,251,l),
(95,251,ls),
(75,251,o),
(50,238,o),
(50,215,cs),
(50,192,o),
(75,179,o),
(95,179,cs)
);
}
);
width = 490;
}
);
note = plus;
unicode = 43;
},
{
glyphname = colon;
layers = (
{
hints = (
{
horizontal = 1;
place = (263,112);
type = Stem;
},
{
horizontal = 1;
place = (9,112);
type = Stem;
},
{
place = (51,112);
type = Stem;
}
);
layerId = m01;
shapes = (
{
closed = 1;
nodes = (
(163,350,o),
(138,375,o),
(107,375,cs),
(76,375,o),
(51,350,o),
(51,319,cs),
(51,288,o),
(76,263,o),
(107,263,cs),
(138,263,o),
(163,288,o),
(163,319,cs)
);
},
{
closed = 1;
nodes = (
(163,96,o),
(138,121,o),
(107,121,cs),
(76,121,o),
(51,96,o),
(51,65,cs),
(51,34,o),
(76,9,o),
(107,9,cs),
(138,9,o),
(163,34,o),
(163,65,cs)
);
}
);
width = 213;
}
);
note = colon;
unicode = 58;
},
{
glyphname = semicolon;
layers = (
{
hints = (
{
horizontal = 1;
place = (263,112);
type = Stem;
},
{
place = (56,111);
type = Stem;
}
);
layerId = m01;
shapes = (
{
closed = 1;
nodes = (
(166,350,o),
(141,375,o),
(110,375,cs),
(79,375,o),
(54,350,o),
(54,319,cs),
(54,288,o),
(79,263,o),
(110,263,cs),
(141,263,o),
(166,288,o),
(166,319,cs)
);
},
{
closed = 1;
nodes = (
(168,102,o),
(143,127,o),
(112,127,cs),
(81,127,o),
(56,102,o),
(56,71,cs),
(56,48,o),
(69,29,o),
(88,20,c),
(82,13,o),
(74,8,o),
(66,3,cs),
(56,-2,o),
(50,-13,o),
(50,-24,cs),
(50,-28,o),
(52,-34,o),
(54,-38,cs),
(59,-48,o),
(70,-54,o),
(81,-54,cs),
(85,-54,o),
(91,-53,o),
(95,-51,cs),
(137,-28,o),
(164,14,o),
(167,61,c),
(168,64,o),
(168,67,o),
(168,71,cs)
);
}
);
width = 219;
}
);
note = semicolon;
unicode = 59;
},
{
glyphname = question;
layers = (
{
hints = (
{
horizontal = 1;
place = (652,72);
type = Stem;
},
{
horizontal = 1;
place = (309,72);
type = Stem;
},
{
horizontal = 1;
place = (-4,112);
type = Stem;
},
{
place = (394,91);
type = Stem;
},
{
place = (222,90);
type = Stem;
},
{
place = (215,111);
type = Stem;
},
{
place = (50,89);
type = Stem;
}
);
layerId = m01;
shapes = (
{
closed = 1;
nodes = (
(312,309,l),
(333,309,o),
(354,310,o),
(374,316,cs),
(426,331,o),
(472,378,o),
(482,432,cs),
(485,454,o),
(485,476,o),
(485,498,cs),
(485,504,o),
(485,510,o),
(485,517,cs),
(484,554,ls),
(484,560,o),
(484,566,o),
(484,573,cs),
(484,660,o),
(408,724,o),
(324,724,cs),
(210,724,ls),
(126,724,o),
(50,660,o),
(50,573,cs),
(50,550,o),
(75,537,o),
(95,537,cs),
(114,537,o),
(135,547,o),
(139,566,cs),
(141,574,o),
(141,582,o),
(142,590,cs),
(148,623,o),
(177,652,o),
(212,652,cs),
(323,652,ls),
(365,652,o),
(394,612,o),
(394,572,cs),
(394,475,ls),
(394,435,o),
(382,391,o),
(336,382,cs),
(321,379,o),
(304,381,o),
(289,381,cs),
(263,381,o),
(222,380,o),
(222,345,cs),
(222,264,ls),
(222,238,o),
(215,205,o),
(240,189,cs),
(248,185,o),
(258,182,o),
(267,182,cs),
(286,182,o),
(307,192,o),
(312,212,cs),
(314,224,o),
(312,237,o),
(312,249,cs)
);
},
{
closed = 1;
nodes = (
(326,83,o),
(301,108,o),
(271,108,cs),
(240,108,o),
(215,83,o),
(215,52,cs),
(215,21,o),
(240,-4,o),
(271,-4,cs),
(301,-4,o),
(326,21,o),
(326,52,cs)
);
}
);
width = 536;
}
);
note = question;
unicode = 63;
},
{
glyphname = quotesingle;
layers = (
{
hints = (
{
horizontal = 1;
place = (525,211);
type = Stem;
},
{
place = (50,90);
type = Stem;
}
);
layerId = m01;
shapes = (
{
closed = 1;
nodes = (
(50,561,ls),
(50,538,o),
(75,525,o),
(95,525,cs),
(116,525,o),
(140,538,o),
(140,561,cs),
(140,700,ls),
(140,723,o),
(116,736,o),
(95,736,cs),
(75,736,o),
(50,723,o),
(50,700,cs)
);
}
);
width = 191;
}
);
note = quotesingle;
unicode = 39;
},
{
glyphname = quotedbl;
layers = (
{
hints = (
{
horizontal = 1;
place = (525,211);
type = Stem;
},
{
place = (201,90);
type = Stem;
},
{
place = (50,90);
type = Stem;
}
);
layerId = m01;
shapes = (
{
closed = 1;
nodes = (
(50,561,ls),
(50,538,o),
(75,525,o),
(95,525,cs),
(116,525,o),
(140,538,o),
(140,561,cs),
(140,700,ls),
(140,723,o),
(116,736,o),
(95,736,cs),
(75,736,o),
(50,723,o),
(50,700,cs)
);
},
{
closed = 1;
nodes = (
(201,561,ls),
(201,538,o),
(225,525,o),
(246,525,cs),
(266,525,o),
(291,538,o),
(291,561,cs),
(291,700,ls),
(291,723,o),
(266,736,o),
(246,736,cs),
(225,736,o),
(201,723,o),
(201,700,cs)
);
}
);
width = 341;
}
);
note = quotedbl;
unicode = 34;
},
{
glyphname = Euro;
layers = (
{
hints = (
{
horizontal = 1;
place = (652,72);
type = Stem;
},
{
horizontal = 1;
place = (314,72);
type = Stem;
},
{
horizontal = 1;
place = (199,72);
type = Stem;
},
{
horizontal = 1;
place = (-24,72);
type = Stem;
},
{
place = (446,89);
type = Stem;
},
{
place = (107,90);
type = Stem;
}
);
layerId = m01;
shapes = (
{
closed = 1;
nodes = (
(268,48,ls),
(226,48,o),
(197,88,o),
(197,128,cs),
(197,199,l),
(375,199,ls),
(395,199,o),
(420,212,o),
(420,235,cs),
(420,258,o),
(395,271,o),
(375,271,cs),
(197,271,l),
(197,314,l),
(375,314,ls),
(395,314,o),
(420,327,o),
(420,350,cs),
(420,373,o),
(395,386,o),
(375,386,cs),
(197,386,l),
(197,572,ls),
(197,612,o),
(226,652,o),
(268,652,cs),
(374,652,ls),
(408,652,o),
(437,623,o),
(443,590,cs),
(445,583,o),
(444,574,o),
(446,567,cs),
(451,547,o),
(471,537,o),
(490,537,cs),
(511,537,o),
(535,550,o),
(535,573,cs),
(535,660,o),
(459,724,o),
(375,724,cs),
(267,724,ls),
(183,724,o),
(107,660,o),
(107,573,cs),
(107,386,l),
(95,386,ls),
(75,386,o),
(50,373,o),
(50,350,cs),
(50,327,o),
(75,314,o),
(95,314,cs),
(107,314,l),
(107,271,l),
(95,271,ls),
(75,271,o),
(50,258,o),
(50,235,cs),
(50,212,o),
(75,199,o),
(95,199,cs),
(107,199,l),
(107,127,ls),
(107,40,o),
(183,-24,o),
(267,-24,cs),
(375,-24,ls),
(459,-24,o),
(535,40,o),
(535,127,cs),
(535,150,o),
(511,163,o),
(490,163,cs),
(471,163,o),
(451,153,o),
(446,133,cs),
(444,126,o),
(445,117,o),
(443,110,cs),
(437,77,o),
(408,48,o),
(374,48,cs)
);
}
);
width = 586;
}
);
note = Euro;
unicode = 8364;
},
{
glyphname = parenleft;
layers = (
{
hints = (
{
horizontal = 1;
place = (661,75);
type = Stem;
},
{
horizontal = 1;
place = (-181,72);
type = Stem;
},
{
place = (51,90);
type = Stem;
}
);
layerId = m01;
shapes = (
{
closed = 1;
nodes = (
(141,586,ls),
(141,617,o),
(160,652,o),
(192,661,cs),
(201,664,o),
(210,663,o),
(219,665,cs),
(237,668,o),
(255,681,o),
(255,700,cs),
(255,723,o),
(230,736,o),
(210,736,cs),
(126,736,o),
(51,673,o),
(51,586,cs),
(51,-32,ls),
(51,-118,o),
(126,-181,o),
(210,-181,cs),
(230,-181,o),
(255,-169,o),
(255,-145,cs),
(255,-126,o),
(237,-114,o),
(219,-110,cs),
(210,-109,o),
(201,-109,o),
(192,-107,cs),
(160,-97,o),
(141,-63,o),
(141,-31,cs)
);
}
);
width = 305;
}
);
note = parenleft;
unicode = 40;
},
{
glyphname = parenright;
layers = (
{
hints = (
{
horizontal = 1;
place = (663,73);
type = Stem;
},
{
horizontal = 1;
place = (-181,74);
type = Stem;
},
{
place = (165,90);
type = Stem;
}
);
layerId = m01;
shapes = (
{
closed = 1;
nodes = (
(165,-31,ls),
(165,-63,o),
(145,-97,o),
(113,-107,cs),
(104,-109,o),
(95,-109,o),
(86,-110,cs),
(69,-114,o),
(51,-126,o),
(51,-145,cs),
(51,-169,o),
(75,-181,o),
(96,-181,cs),
(179,-181,o),
(255,-118,o),
(255,-32,cs),
(255,586,ls),
(255,673,o),
(179,736,o),
(96,736,cs),
(75,736,o),
(51,723,o),
(51,700,cs),
(51,681,o),
(69,668,o),
(86,665,cs),
(95,663,o),
(104,664,o),
(113,661,cs),
(145,652,o),
(165,617,o),
(165,586,cs)
);
}
);
width = 305;
}
);
note = parenright;
unicode = 41;
},
{
glyphname = ampersand;
layers = (
{
hints = (
{
place = (652,72);
type = Stem;
},
{
place = (389,90);
type = Stem;
},
{
place = (314,72);
type = Stem;
},
{
place = (51,90);
type = Stem;
},
{
place = (-24,72);
type = Stem;
}
);
layerId = m01;
shapes = (
{
closed = 1;
nodes = (
(51,465,ls),
(51,418,o),
(73,377,o),
(107,350,c),
(73,323,o),
(51,282,o),
(51,235,cs),
(51,127,ls),
(51,40,o),
(127,-24,o),
(211,-24,cs),
(434,-24,ls),
(455,-24,o),
(479,-11,o),
(479,12,cs),
(479,314,l),
(506,314,o),
(611,311,o),
(628,316,cs),
(643,321,o),
(658,333,o),
(658,350,cs),
(658,395,o),
(586,387,o),
(559,387,cs),
(532,387,o),
(506,387,o),
(479,387,c),
(479,464,ls),
(479,472,o),
(480,484,o),
(477,491,cs),
(470,508,o),
(452,516,o),
(434,516,cs),
(414,516,o),
(389,503,o),
(389,480,cs),
(389,386,l),
(330,386,o),
(271,386,o),
(213,386,c),
(206,387,o),
(200,387,o),
(193,389,cs),
(161,398,o),
(141,433,o),
(141,466,cs),
(141,572,ls),
(141,612,o),
(170,652,o),
(212,652,cs),
(399,652,ls),
(427,652,o),
(479,648,o),
(479,688,cs),
(479,722,o),
(441,724,o),
(416,724,cs),
(211,724,ls),
(127,724,o),
(51,660,o),
(51,573,cs)
);
},
{
closed = 1;
nodes = (
(389,48,l),
(212,48,ls),
(170,48,o),
(141,88,o),
(141,128,cs),
(141,234,ls),
(141,277,o),
(170,312,o),
(213,314,cs),
(389,314,l)
);
}
);
width = 708;
}
);
note = ampersand;
unicode = 38;
},
{
glyphname = braceleft;
layers = (
{
hints = (
{
horizontal = 1;
place = (661,75);
type = Stem;
},
{
horizontal = 1;
place = (314,72);
type = Stem;
},
{
horizontal = 1;
place = (-182,73);
type = Stem;
},
{
place = (155,90);
type = Stem;
}
);
layerId = m01;
shapes = (
{
closed = 1;
nodes = (
(245,586,ls),
(245,617,o),
(265,652,o),
(297,661,cs),
(306,664,o),
(315,663,o),
(324,665,cs),
(341,668,o),
(359,681,o),
(359,700,cs),
(359,723,o),
(334,736,o),
(314,736,cs),
(231,736,o),
(155,673,o),
(155,586,cs),
(155,386,l),
(95,386,ls),
(75,386,o),
(50,373,o),
(50,350,cs),
(50,327,o),
(75,314,o),
(95,314,cs),
(155,314,l),
(155,-32,ls),
(155,-118,o),
(231,-182,o),
(314,-182,cs),
(334,-182,o),
(359,-169,o),
(359,-146,cs),
(359,-126,o),
(341,-114,o),
(324,-110,cs),
(315,-109,o),
(306,-109,o),
(297,-107,cs),
(265,-98,o),
(245,-63,o),
(245,-31,cs)
);
}
);
width = 409;
}
);
note = braceleft;
unicode = 123;
},
{
glyphname = bar;
layers = (
{
hints = (
{
horizontal = 1;
place = (-362,21);
target = up;
type = BottomGhost;
},
{
place = (50,92);
type = Stem;
}
);
layerId = m01;
shapes = (
{
closed = 1;
nodes = (
(142,25,o),
(141,376,o),
(141,727,cs),
(141,735,o),
(142,757,o),
(137,764,cs),
(127,779,o),
(114,786,o),
(95,786,cs),
(75,786,o),
(50,773,o),
(50,750,cs),
(50,399,o),
(51,48,o),
(51,-303,cs),
(51,-311,o),
(51,-333,o),
(56,-340,cs),
(66,-355,o),
(78,-362,o),
(97,-362,cs),
(118,-362,o),
(142,-349,o),
(142,-326,cs)
);
}
);
width = 193;
}
);
note = bar;
unicode = 124;
},
{
glyphname = braceright;
layers = (
{
hints = (
{
horizontal = 1;
place = (663,73);
type = Stem;
},
{
horizontal = 1;
place = (314,72);
type = Stem;
},
{
horizontal = 1;
place = (-182,75);
type = Stem;
},
{
place = (165,90);
type = Stem;
}
);
layerId = m01;
shapes = (
{
closed = 1;
nodes = (
(165,-31,ls),
(165,-63,o),
(145,-98,o),
(113,-107,cs),
(104,-109,o),
(95,-109,o),
(86,-110,cs),
(69,-114,o),
(51,-126,o),
(51,-146,cs),
(51,-169,o),
(76,-182,o),
(96,-182,cs),
(179,-182,o),
(255,-118,o),
(255,-32,cs),
(255,314,l),
(315,314,ls),
(335,314,o),
(360,327,o),
(360,350,cs),
(360,373,o),
(335,386,o),
(315,386,cs),
(255,386,l),
(255,586,ls),
(255,673,o),
(179,736,o),
(96,736,cs),
(76,736,o),
(51,723,o),
(51,700,cs),
(51,681,o),
(69,668,o),
(86,665,cs),
(95,663,o),
(104,664,o),
(113,661,cs),
(145,652,o),
(165,617,o),
(165,586,cs)
);
}
);
width = 410;
}
);
note = braceright;
unicode = 125;
},
{
glyphname = bracketleft;
layers = (
{
hints = (
{
horizontal = 1;
place = (664,72);
type = Stem;
},
{
horizontal = 1;
place = (-181,72);
type = Stem;
},
{
place = (50,90);
type = Stem;
}
);
layerId = m01;
shapes = (
{
closed = 1;
nodes = (
(140,-109,l),
(140,664,l),
(209,664,ls),
(229,664,o),
(254,677,o),
(254,700,cs),
(254,734,o),
(215,737,o),
(190,737,cs),
(181,737,o),
(173,736,o),
(164,736,cs),
(95,736,ls),
(75,736,o),
(50,723,o),
(50,700,cs),
(50,-145,ls),
(50,-169,o),
(75,-181,o),
(95,-181,cs),
(209,-181,ls),
(229,-181,o),
(254,-169,o),
(254,-145,cs),
(254,-108,o),
(209,-109,o),
(183,-109,cs)
);
}
);
width = 304;
}
);
note = bracketleft;
unicode = 91;
},
{
glyphname = bracketright;
layers = (
{
hints = (
{
horizontal = 1;
place = (664,72);
type = Stem;
},
{
horizontal = 1;
place = (-181,72);
type = Stem;
},
{
place = (164,90);
type = Stem;
}
);
layerId = m01;
shapes = (
{
closed = 1;
nodes = (
(122,-109,ls),
(95,-109,o),
(50,-108,o),
(50,-145,cs),
(50,-169,o),
(75,-181,o),
(95,-181,cs),
(209,-181,ls),
(229,-181,o),
(254,-169,o),
(254,-145,cs),
(254,700,ls),
(254,723,o),
(229,736,o),
(209,736,cs),
(140,736,ls),
(131,736,o),
(123,737,o),
(114,737,cs),
(89,737,o),
(50,734,o),
(50,700,cs),
(50,677,o),
(75,664,o),
(95,664,cs),
(164,664,l),
(164,-109,l)
);
}
);
width = 304;
}
);
note = bracketright;
unicode = 93;
},
{
glyphname = quoteleft;
layers = (
{
hints = (
{
horizontal = 1;
place = (519,181);
type = Stem;
},
{
place = (51,112);
type = Stem;
}
);
layerId = m01;
shapes = (
{
closed = 1;
nodes = (
(51,544,o),
(76,519,o),
(107,519,cs),
(138,519,o),
(163,544,o),
(163,575,cs),
(163,597,o),
(150,616,o),
(131,626,c),
(137,632,o),
(145,638,o),
(153,642,cs),
(163,648,o),
(169,659,o),
(169,669,cs),
(169,686,o),
(155,700,o),
(138,700,cs),
(134,700,o),
(128,698,o),
(124,696,cs),
(83,674,o),
(55,631,o),
(52,585,c),
(51,581,o),
(51,579,o),
(51,575,cs)
);
}
);
width = 220;
}
);
note = quoteleft;
unicode = 8216;
},
{
glyphname = quoteright;
layers = (
{
hints = (
{
horizontal = 1;
place = (519,181);
type = Stem;
},
{
place = (57,112);
type = Stem;
}
);
layerId = m01;
shapes = (
{
closed = 1;
nodes = (
(169,675,o),
(144,700,o),
(113,700,cs),
(82,700,o),
(57,675,o),
(57,644,cs),
(57,622,o),
(69,603,o),
(88,594,c),
(82,587,o),
(75,581,o),
(67,577,cs),
(56,571,o),
(50,561,o),
(50,550,cs),
(50,545,o),
(52,540,o),
(54,535,c),
(60,526,o),
(70,519,o),
(81,519,cs),
(86,519,o),
(91,521,o),
(95,523,cs),
(138,546,o),
(169,595,o),
(169,644,cs)
);
}
);
width = 219;
}
);
note = quoteright;
unicode = 8217;
},
{
glyphname = quotedblleft;
layers = (
{
hints = (
{
horizontal = 1;
place = (519,181);
type = Stem;
},
{
place = (204,111);
type = Stem;
},
{
place = (51,112);
type = Stem;
}
);
layerId = m01;
shapes = (
{
closed = 1;
nodes = (
(51,544,o),
(76,519,o),
(107,519,cs),
(138,519,o),
(163,544,o),
(163,575,cs),
(163,597,o),
(150,616,o),
(131,626,c),
(137,632,o),
(145,638,o),
(153,642,cs),
(163,648,o),
(169,659,o),
(169,669,cs),
(169,674,o),
(168,680,o),
(165,684,c),
(160,694,o),
(149,700,o),
(138,700,cs),
(134,700,o),
(128,698,o),
(124,696,cs),
(83,674,o),
(55,631,o),
(52,585,c),
(51,581,o),
(51,579,o),
(51,575,cs)
);
},
{
closed = 1;
nodes = (
(203,544,o),
(228,519,o),
(259,519,cs),
(290,519,o),
(315,544,o),
(315,575,cs),
(315,597,o),
(302,616,o),
(284,626,c),
(290,632,o),
(297,638,o),
(305,642,cs),
(315,648,o),
(321,659,o),
(322,669,c),
(321,686,o),
(308,700,o),
(291,700,cs),
(286,700,o),
(281,698,o),
(277,696,cs),
(235,674,o),
(207,631,o),
(204,585,cs),
(204,581,o),
(203,579,o),
(203,575,cs)
);
}
);
width = 372;
}
);
note = quotedblleft;
unicode = 8220;
},
{
glyphname = quotedblright;
layers = (
{
hints = (
{
horizontal = 1;
place = (519,181);
type = Stem;
},
{
place = (199,111);
type = Stem;
},
{
place = (57,112);
type = Stem;
}
);
layerId = m01;
shapes = (
{
closed = 1;
nodes = (
(169,675,o),
(144,700,o),
(113,700,cs),
(82,700,o),
(57,675,o),
(57,644,cs),
(57,622,o),
(69,603,o),
(88,594,c),
(82,587,o),
(75,581,o),
(67,577,cs),
(56,571,o),
(50,561,o),
(50,550,cs),
(50,545,o),
(52,540,o),
(54,535,c),
(60,526,o),
(70,519,o),
(81,519,cs),
(86,519,o),
(91,521,o),
(95,523,cs),
(137,546,o),
(165,588,o),
(168,635,cs),
(168,638,o),
(169,640,o),
(169,644,cs)
);
},
{
closed = 1;
nodes = (
(311,675,o),
(286,700,o),
(255,700,cs),
(224,700,o),
(199,675,o),
(199,644,cs),
(199,622,o),
(212,603,o),
(231,594,c),
(225,587,o),
(218,581,o),
(209,577,cs),
(199,571,o),
(193,561,o),
(193,550,cs),
(193,533,o),
(207,519,o),
(224,519,cs),
(228,519,o),
(234,521,o),
(238,523,cs),
(280,546,o),
(307,588,o),
(310,635,c),
(311,638,o),
(311,640,o),
(311,644,cs)
);
}
);
width = 362;
}
);
note = quotedblright;
unicode = 8221;
},
{
glyphname = quotesinglbase;
layers = (
{
hints = (
{
horizontal = 1;
place = (-55,181);
type = Stem;
},
{
place = (56,112);
type = Stem;
}
);
layerId = m01;
shapes = (
{
closed = 1;
nodes = (
(168,101,o),
(143,126,o),
(112,126,cs),
(81,126,o),
(56,101,o),
(56,70,cs),
(56,48,o),
(69,29,o),
(88,20,c),
(82,13,o),
(75,7,o),
(66,3,cs),
(56,-3,o),
(50,-13,o),
(50,-24,cs),
(50,-41,o),
(64,-55,o),
(81,-55,cs),
(85,-55,o),
(91,-53,o),
(95,-51,cs),
(137,-28,o),
(164,14,o),
(167,61,c),
(168,64,o),
(168,67,o),
(168,70,cs)
);
}
);
width = 219;
}
);
note = quotesinglbase;
unicode = 8218;
},
{
glyphname = quotedblbase;
layers = (
{
hints = (
{
horizontal = 1;
place = (-55,181);
type = Stem;
},
{
place = (201,112);
type = Stem;
},
{
place = (56,112);
type = Stem;
}
);
layerId = m01;
shapes = (
{
closed = 1;
nodes = (
(168,101,o),
(143,126,o),
(112,126,cs),
(81,126,o),
(56,101,o),
(56,70,cs),
(56,48,o),
(69,29,o),
(88,20,c),
(82,13,o),
(75,7,o),
(66,3,cs),
(56,-3,o),
(50,-13,o),
(50,-24,cs),
(50,-29,o),
(52,-34,o),
(54,-39,cs),
(59,-48,o),
(70,-55,o),
(81,-55,cs),
(85,-55,o),
(91,-53,o),
(95,-51,cs),
(137,-28,o),
(164,14,o),
(167,61,c),
(168,64,o),
(168,67,o),
(168,70,cs)
);
},
{
closed = 1;
nodes = (
(313,101,o),
(288,126,o),
(257,126,cs),
(226,126,o),
(201,101,o),
(201,70,cs),
(201,48,o),
(214,29,o),
(233,20,c),
(227,13,o),
(220,7,o),
(211,3,cs),
(201,-3,o),
(196,-14,o),
(195,-24,c),
(196,-41,o),
(208,-55,o),
(226,-55,cs),
(230,-55,o),
(236,-53,o),
(240,-51,cs),
(282,-28,o),
(310,14,o),
(313,61,cs),
(313,64,o),
(313,67,o),
(313,70,cs)
);
}
);
width = 364;
}
);
note = quotedblbase;
unicode = 8222;
},
{
glyphname = bullet;
layers = (
{
hints = (
{
horizontal = 1;
place = (188,162);
type = Stem;
},
{
place = (50,163);
type = Stem;
}
);
layerId = m01;
shapes = (
{
closed = 1;
nodes = (
(50,220,o),
(83,188,o),
(132,188,cs),
(180,188,o),
(213,220,o),
(213,269,cs),
(213,318,o),
(180,350,o),
(132,350,cs),
(83,350,o),
(50,318,o),
(50,269,cs)
);
}
);
width = 263;
}
);
note = bullet;
unicode = 8226;
},
{
glyphname = underscore;
layers = (
{
hints = (
{
horizontal = 1;
place = (-153,81);
type = Stem;
},
{
place = (50,312);
type = Stem;
}
);
layerId = m01;
shapes = (
{
closed = 1;
nodes = (
(317,-153,ls),
(340,-153,o),
(362,-136,o),
(362,-112,cs),
(362,-88,o),
(340,-72,o),
(317,-72,cs),
(95,-72,ls),
(73,-72,o),
(50,-88,o),
(50,-112,cs),
(50,-136,o),
(73,-153,o),
(95,-153,cs)
);
}
);
width = 413;
}
);
note = underscore;
unicode = 95;
},
{
glyphname = endash;
layers = (
{
hints = (
{
horizontal = 1;
place = (308,81);
type = Stem;
},
{
place = (50,312);
type = Stem;
}
);
layerId = m01;
shapes = (
{
closed = 1;
nodes = (
(317,308,ls),
(340,308,o),
(362,325,o),
(362,349,cs),
(362,373,o),
(340,389,o),
(317,389,cs),
(95,389,ls),
(72,389,o),
(50,373,o),
(50,349,cs),
(50,325,o),
(72,308,o),
(95,308,cs)
);
}
);
width = 412;
}
);
note = endash;
unicode = 8211;
},
{
glyphname = emdash;
layers = (
{
hints = (
{
horizontal = 1;
place = (308,81);
type = Stem;
},
{
place = (50,668);
type = Stem;
}
);
layerId = m01;
shapes = (
{
closed = 1;
nodes = (
(673,308,ls),
(696,308,o),
(718,325,o),
(718,349,cs),
(718,373,o),
(696,389,o),
(673,389,cs),
(95,389,ls),
(72,389,o),
(50,373,o),
(50,349,cs),
(50,325,o),
(72,308,o),
(95,308,cs)
);
}
);
width = 769;
}
);
note = emdash;
unicode = 8212;
},
{
glyphname = macron;
layers = (
{
hints = (
{
horizontal = 1;
place = (710,81);
type = Stem;
},
{
place = (50,312);
type = Stem;
}
);
layerId = m01;
shapes = (
{
closed = 1;
nodes = (
(317,710,ls),
(340,710,o),
(362,726,o),
(362,750,cs),
(362,774,o),
(340,791,o),
(317,791,cs),
(95,791,ls),
(72,791,o),
(50,774,o),
(50,750,cs),
(50,726,o),
(72,710,o),
(95,710,cs)
);
}
);
width = 412;
}
);
note = macron;
unicode = 175;
},
{
glyphname = logicalnot;
layers = (
{
hints = (
{
horizontal = 1;
place = (313,72);
type = Stem;
},
{
place = (314,91);
type = Stem;
}
);
layerId = m01;
shapes = (
{
closed = 1;
nodes = (
(315,313,l),
(315,283,o),
(314,253,o),
(314,223,cs),
(314,194,o),
(330,176,o),
(360,176,cs),
(380,176,o),
(405,189,o),
(405,212,cs),
(405,298,ls),
(405,336,o),
(415,385,o),
(360,385,cs),
(95,385,ls),
(75,385,o),
(50,372,o),
(50,349,cs),
(50,309,o),
(103,313,o),
(130,313,cs)
);
}
);
width = 456;
}
);
note = logicalnot;
unicode = 172;
},
{
glyphname = trademark;
layers = (
{
hints = (
{
horizontal = 1;
place = (652,72);
type = Stem;
},
{
place = (791,90);
type = Stem;
},
{
place = (583,90);
type = Stem;
},
{
place = (373,90);
type = Stem;
},
{
place = (150,90);
type = Stem;
}
);
layerId = m01;
shapes = (
{
closed = 1;
nodes = (
(279,652,ls),
(300,652,o),
(324,665,o),
(324,688,cs),
(324,711,o),
(300,724,o),
(279,724,cs),
(95,724,ls),
(75,724,o),
(50,711,o),
(50,688,cs),
(50,665,o),
(75,652,o),
(95,652,cs),
(149,652,l),
(149,551,o),
(150,450,o),
(150,349,cs),
(150,326,o),
(174,313,o),
(195,313,cs),
(211,313,o),
(230,321,o),
(237,337,cs),
(241,347,o),
(240,373,o),
(240,385,cs),
(240,474,o),
(240,563,o),
(240,652,c)
);
},
{
closed = 1;
nodes = (
(777,652,ls),
(784,652,o),
(789,642,o),
(790,636,cs),
(795,616,o),
(791,573,o),
(791,550,cs),
(791,349,ls),
(791,326,o),
(815,313,o),
(836,313,cs),
(856,313,o),
(879,325,o),
(881,348,cs),
(882,358,o),
(882,369,o),
(882,380,cs),
(882,463,o),
(881,547,o),
(881,631,cs),
(881,686,o),
(831,724,o),
(778,724,cs),
(685,724,ls),
(665,724,o),
(645,718,o),
(628,708,c),
(611,718,o),
(591,724,o),
(570,724,cs),
(475,724,ls),
(455,724,o),
(435,718,o),
(417,708,cs),
(372,680,o),
(373,643,o),
(373,595,cs),
(373,350,ls),
(373,327,o),
(397,314,o),
(418,314,cs),
(434,314,o),
(453,322,o),
(460,337,cs),
(466,352,o),
(463,419,o),
(463,438,cs),
(463,622,ls),
(463,631,o),
(464,652,o),
(476,652,cs),
(569,652,ls),
(578,652,o),
(582,637,o),
(583,629,cs),
(583,618,o),
(583,607,o),
(583,595,cs),
(583,555,ls),
(583,553,o),
(583,552,o),
(583,550,cs),
(583,349,ls),
(583,326,o),
(607,313,o),
(628,313,cs),
(648,313,o),
(671,325,o),
(673,348,cs),
(673,351,o),
(673,355,o),
(673,359,cs),
(674,374,o),
(674,394,o),
(673,410,cs),
(673,474,o),
(673,539,o),
(673,603,cs),
(673,622,ls),
(673,631,o),
(674,652,o),
(687,652,cs)
);
}
);
width = 965;
}
);
note = trademark;
unicode = 8482;
},
{
glyphname = registered;
layers = (
{
hints = (
{
horizontal = 1;
place = (652,72);
type = Stem;
},
{
horizontal = 1;
place = (522,72);
type = Stem;
},
{
horizontal = 1;
place = (314,72);
type = Stem;
},
{
horizontal = 1;
place = (-24,72);
type = Stem;
},
{
place = (634,90);
type = Stem;
},
{
place = (471,90);
type = Stem;
},
{
place = (215,90);
type = Stem;
},
{
place = (50,90);
type = Stem;
}
);
layerId = m01;
shapes = (
{
closed = 1;
nodes = (
(50,127,ls),
(50,40,o),
(126,-24,o),
(210,-24,cs),
(564,-24,ls),
(648,-24,o),
(724,40,o),
(724,127,cs),
(724,573,ls),
(724,660,o),
(648,724,o),
(564,724,cs),
(210,724,ls),
(126,724,o),
(50,660,o),
(50,573,cs)
);
},
{
closed = 1;
nodes = (
(140,572,ls),
(140,612,o),
(169,652,o),
(212,652,cs),
(562,652,ls),
(604,652,o),
(634,612,o),
(634,572,cs),
(634,128,ls),
(634,88,o),
(604,48,o),
(562,48,cs),
(212,48,ls),
(169,48,o),
(140,88,o),
(140,128,cs)
);
},
{
closed = 1;
nodes = (
(471,208,o),
(470,180,o),
(470,153,cs),
(470,124,o),
(485,106,o),
(515,106,cs),
(536,106,o),
(560,119,o),
(560,142,cs),
(560,279,ls),
(560,307,o),
(549,332,o),
(531,350,c),
(549,368,o),
(561,393,o),
(561,421,cs),
(561,488,ls),
(561,550,o),
(505,594,o),
(445,594,cs),
(369,594,ls),
(318,594,o),
(272,595,o),
(238,550,cs),
(224,532,o),
(215,511,o),
(215,488,cs),
(215,142,ls),
(215,119,o),
(240,106,o),
(260,106,cs),
(277,106,o),
(295,114,o),
(303,129,c),
(306,137,o),
(306,156,o),
(306,165,cs),
(306,202,o),
(306,239,o),
(305,277,c),
(308,291,o),
(306,302,o),
(323,311,cs),
(329,315,o),
(375,314,o),
(384,314,cs),
(467,314,o),
(471,324,o),
(471,236,cs)
);
},
{
closed = 1;
nodes = (
(471,422,ls),
(471,403,o),
(461,387,o),
(442,386,cs),
(369,386,ls),
(346,386,o),
(325,386,o),
(305,382,c),
(305,409,o),
(304,436,o),
(304,463,cs),
(304,481,o),
(303,519,o),
(330,522,cs),
(334,523,o),
(339,523,o),
(343,523,cs),
(377,523,o),
(410,522,o),
(444,522,cs),
(461,522,o),
(471,502,o),
(471,487,cs)
);
}
);
width = 774;
}
);
note = registered;
unicode = 174;
},
{
glyphname = copyright;
layers = (
{
hints = (
{
horizontal = 1;
place = (652,72);
type = Stem;
},
{
horizontal = 1;
place = (495,72);
type = Stem;
},
{
horizontal = 1;
place = (129,72);
type = Stem;
},
{
horizontal = 1;
place = (-24,72);
type = Stem;
},
{
place = (633,90);
type = Stem;
},
{
place = (481,88);
type = Stem;
},
{
place = (216,90);
type = Stem;
},
{
place = (50,90);
type = Stem;
}
);
layerId = m01;
shapes = (
{
closed = 1;
nodes = (
(140,572,ls),
(140,612,o),
(169,652,o),
(212,652,cs),
(562,652,ls),
(604,652,o),
(633,612,o),
(633,572,cs),
(633,128,ls),
(633,88,o),
(604,48,o),
(562,48,cs),
(212,48,ls),
(169,48,o),
(140,88,o),
(140,128,cs)
);
},
{
closed = 1;
nodes = (
(50,127,ls),
(50,40,o),
(126,-24,o),
(210,-24,cs),
(563,-24,ls),
(648,-24,o),
(723,40,o),
(723,127,cs),
(723,573,ls),
(723,660,o),
(648,724,o),
(563,724,cs),
(210,724,ls),
(126,724,o),
(50,660,o),
(50,573,cs)
);
},
{
closed = 1;
nodes = (
(333,201,ls),
(315,201,o),
(306,221,o),
(306,236,cs),
(306,460,ls),
(306,475,o),
(315,495,o),
(333,495,cs),
(452,495,ls),
(466,495,o),
(476,481,o),
(478,469,c),
(480,463,o),
(479,457,o),
(481,451,cs),
(486,433,o),
(507,424,o),
(524,424,cs),
(545,424,o),
(569,437,o),
(569,460,cs),
(569,523,o),
(513,567,o),
(454,567,cs),
(331,567,ls),
(271,567,o),
(216,523,o),
(216,460,cs),
(216,236,ls),
(216,173,o),
(271,129,o),
(331,129,cs),
(454,129,ls),
(513,129,o),
(569,173,o),
(569,236,cs),
(569,259,o),
(545,272,o),
(524,272,cs),
(507,272,o),
(486,263,o),
(481,245,cs),
(479,239,o),
(480,233,o),
(478,227,c),
(476,215,o),
(466,201,o),
(452,201,cs)
);
}
);
width = 774;
}
);
note = copyright;
unicode = 169;
},
{
glyphname = cent;
layers = (
{
hints = (
{
horizontal = 1;
place = (464,72);
type = Stem;
},
{
horizontal = 1;
place = (137,73);
type = Stem;
},
{
place = (376,90);
type = Stem;
},
{
place = (214,90);
type = Stem;
},
{
place = (50,90);
type = Stem;
}
);
layerId = m01;
shapes = (
{
closed = 1;
nodes = (
(140,388,ls),
(140,426,o),
(167,464,o),
(208,464,cs),
(310,464,ls),
(342,464,o),
(370,437,o),
(375,405,c),
(377,398,o),
(376,390,o),
(378,383,cs),
(382,363,o),
(403,353,o),
(422,353,cs),
(442,353,o),
(467,366,o),
(467,389,cs),
(467,474,o),
(393,536,o),
(311,536,cs),
(304,536,l),
(304,697,ls),
(304,720,o),
(279,733,o),
(259,733,cs),
(238,733,o),
(214,720,o),
(214,697,cs),
(214,536,l),
(206,536,ls),
(124,536,o),
(50,474,o),
(50,389,cs),
(50,289,ls),
(50,201,o),
(120,137,o),
(206,137,cs),
(214,137,l),
(214,5,ls),
(214,-18,o),
(238,-31,o),
(259,-31,cs),
(279,-31,o),
(304,-18,o),
(304,5,cs),
(304,137,l),
(400,137,ls),
(421,137,o),
(445,150,o),
(445,173,cs),
(445,207,o),
(404,210,o),
(379,210,cs),
(341,210,o),
(302,208,o),
(264,208,cs),
(251,208,o),
(201,208,o),
(190,212,cs),
(159,222,o),
(140,253,o),
(140,285,cs)
);
}
);
width = 517;
}
);
note = cent;
unicode = 162;
},
{
glyphname = sterling;
layers = (
{
hints = (
{
horizontal = 1;
place = (652,72);
type = Stem;
},
{
horizontal = 1;
place = (314,72);
type = Stem;
},
{
horizontal = 1;
place = (-25,73);
type = Stem;
},
{
place = (416,90);
type = Stem;
},
{
place = (95,90);
type = Stem;
}
);
layerId = m01;
shapes = (
{
closed = 1;
nodes = (
(255,724,ls),
(171,724,o),
(95,660,o),
(95,573,cs),
(95,386,l),
(75,386,o),
(50,373,o),
(50,350,cs),
(50,327,o),
(75,314,o),
(95,314,c),
(95,32,ls),
(95,23,o),
(94,9,o),
(97,1,cs),
(104,-16,o),
(123,-24,o),
(140,-24,cs),
(241,-24,o),
(342,-25,o),
(443,-25,cs),
(470,-25,o),
(523,-27,o),
(523,12,cs),
(523,28,o),
(510,40,o),
(495,45,cs),
(476,52,o),
(408,48,o),
(384,48,cs),
(185,48,l),
(185,314,l),
(347,314,ls),
(367,314,o),
(392,327,o),
(392,350,cs),
(392,373,o),
(367,386,o),
(347,386,cs),
(185,386,l),
(185,573,ls),
(185,612,o),
(214,652,o),
(256,652,cs),
(345,652,ls),
(380,652,o),
(409,623,o),
(415,591,cs),
(416,583,o),
(415,575,o),
(417,567,cs),
(422,547,o),
(443,537,o),
(461,537,cs),
(482,537,o),
(506,550,o),
(506,573,cs),
(506,660,o),
(431,724,o),
(347,724,cs)
);
}
);
width = 573;
}
);
note = sterling;
unicode = 163;
},
{
glyphname = A.ss02;
layers = (
{
hints = (
{
horizontal = 1;
place = (652,72);
type = Stem;
},
{
horizontal = 1;
place = (314,72);
type = Stem;
},
{
horizontal = 1;
place = (-24,21);
target = up;
type = BottomGhost;
},
{
place = (389,90);
type = Stem;
},
{
place = (51,90);
type = Stem;
}
);
layerId = m01;
shapes = (
{
closed = 1;
nodes = (
(479,688,ls),
(479,724,o),
(435,724,o),
(410,724,cs),
(211,724,ls),
(127,724,o),
(51,660,o),
(51,573,cs),
(51,12,ls),
(51,-11,o),
(75,-24,o),
(96,-24,cs),
(113,-24,o),
(130,-16,o),
(138,0,cs),
(142,7,o),
(141,19,o),
(141,28,cs),
(141,123,o),
(141,218,o),
(141,313,c),
(318,314,ls),
(356,314,o),
(386,279,o),
(388,243,cs),
(388,211,o),
(388,9,o),
(390,3,cs),
(398,-15,o),
(415,-24,o),
(434,-24,cs),
(454,-24,o),
(479,-11,o),
(479,12,cs)
);
},
{
closed = 1;
nodes = (
(140,386,l),
(140,435,o),
(140,485,o),
(140,534,cs),
(140,551,o),
(140,583,o),
(145,599,cs),
(154,628,o),
(180,652,o),
(212,652,cs),
(271,652,o),
(330,652,o),
(389,652,c),
(389,558,o),
(388,464,o),
(388,371,c),
(367,380,o),
(343,386,o),
(319,386,cs)
);
}
);
width = 529;
}
);
note = A.ss02;
},
{
glyphname = B.ss02;
layers = (
{
hints = (
{
horizontal = 1;
place = (652,72);
type = Stem;
},
{
horizontal = 1;
place = (315,72);
type = Stem;
},
{
horizontal = 1;
place = (-24,72);
type = Stem;
},
{
place = (389,90);
type = Stem;
},
{
place = (51,90);
type = Stem;
}
);
layerId = m01;
shapes = (
{
closed = 1;
nodes = (
(51,12,ls),
(51,-11,o),
(76,-24,o),
(96,-24,cs),
(319,-24,ls),
(403,-24,o),
(479,40,o),
(479,127,cs),
(479,235,ls),
(479,282,o),
(456,323,o),
(422,350,c),
(456,377,o),
(479,418,o),
(479,466,cs),
(479,574,ls),
(479,660,o),
(403,724,o),
(319,724,cs),
(114,724,ls),
(89,724,o),
(51,722,o),
(51,688,cs),
(51,241,ls),
(51,239,o),
(51,237,o),
(51,235,cs),
(51,234,o),
(51,233,o),
(51,232,cs)
);
},
{
closed = 1;
nodes = (
(141,652,l),
(318,652,ls),
(360,652,o),
(389,613,o),
(389,573,cs),
(389,466,ls),
(389,434,o),
(369,399,o),
(337,389,cs),
(330,387,o),
(323,387,o),
(315,387,cs),
(289,388,o),
(259,387,o),
(238,387,cs),
(202,387,o),
(174,385,o),
(141,370,c)
);
},
{
closed = 1;
nodes = (
(356,315,o),
(389,282,o),
(389,234,cs),
(389,128,ls),
(389,88,o),
(360,48,o),
(318,48,cs),
(141,48,l),
(141,234,l),
(142,240,o),
(142,246,o),
(143,252,cs),
(145,267,o),
(154,283,o),
(165,293,cs),
(184,312,o),
(201,314,o),
(227,314,cs),
(254,314,o),
(282,315,o),
(309,315,cs)
);
}
);
width = 529;
}
);
note = B.ss02;
},
{
glyphname = F.ss02;
layers = (
{
hints = (
{
horizontal = 1;
place = (652,72);
type = Stem;
},
{
horizontal = 1;
place = (313,72);
type = Stem;
},
{
horizontal = 1;
place = (-24,21);
target = up;
type = BottomGhost;
},
{
place = (388,92);
type = Stem;
},
{
place = (51,91);
type = Stem;
}
);
layerId = m01;
shapes = (
{
closed = 1;
nodes = (
(440,372,o),
(415,385,o),
(395,385,cs),
(211,385,ls),
(187,385,o),
(164,380,o),
(142,370,c),
(142,492,o),
(142,603,o),
(142,635,cs),
(142,652,l),
(318,652,ls),
(354,652,o),
(382,623,o),
(388,590,cs),
(390,582,o),
(389,574,o),
(391,567,cs),
(396,547,o),
(416,537,o),
(435,537,cs),
(455,537,o),
(480,550,o),
(480,573,cs),
(480,660,o),
(404,724,o),
(320,724,cs),
(97,724,ls),
(78,724,o),
(62,715,o),
(54,697,cs),
(50,690,o),
(51,329,o),
(51,297,cs),
(51,12,ls),
(51,-11,o),
(76,-24,o),
(96,-24,cs),
(116,-24,o),
(131,-15,o),
(139,3,cs),
(141,7,o),
(142,116,o),
(142,242,c),
(147,288,o),
(176,314,o),
(222,314,cs),
(234,314,o),
(247,314,o),
(260,314,cs),
(337,313,ls),
(350,313,o),
(363,313,o),
(376,313,cs),
(401,313,o),
(440,316,o),
(440,349,cs)
);
}
);
width = 530;
}
);
note = F.ss02;
},
{
glyphname = G.ss02;
layers = (
{
hints = (
{
horizontal = 1;
place = (653,72);
type = Stem;
},
{
horizontal = 1;
place = (314,72);
type = Stem;
},
{
horizontal = 1;
place = (-24,72);
type = Stem;
},
{
place = (389,90);
type = Stem;
},
{
place = (51,90);
type = Stem;
}
);
layerId = m01;
shapes = (
{
closed = 1;
nodes = (
(389,127,ls),
(389,88,o),
(360,48,o),
(317,48,cs),
(212,48,ls),
(170,48,o),
(141,88,o),
(141,127,cs),
(141,302,o),
(141,477,o),
(141,652,c),
(195,652,o),
(248,653,o),
(302,653,cs),
(309,653,o),
(317,653,o),
(325,652,cs),
(360,647,o),
(384,616,o),
(388,582,cs),
(390,564,o),
(390,554,o),
(407,544,cs),
(415,539,o),
(424,537,o),
(434,537,cs),
(454,537,o),
(479,550,o),
(479,573,cs),
(479,646,o),
(422,708,o),
(352,721,cs),
(333,724,o),
(313,725,o),
(294,725,cs),
(228,725,o),
(162,724,o),
(96,724,cs),
(78,724,o),
(61,716,o),
(53,699,cs),
(50,692,o),
(51,676,o),
(51,668,cs),
(51,613,o),
(51,558,o),
(51,503,cs),
(51,127,ls),
(51,40,o),
(127,-24,o),
(211,-24,cs),
(319,-24,ls),
(403,-24,o),
(479,40,o),
(479,127,cs),
(479,234,ls),
(479,307,o),
(423,366,o),
(353,381,cs),
(333,386,o),
(311,386,o),
(290,386,cs),
(264,386,o),
(220,387,o),
(220,350,cs),
(220,342,o),
(223,335,o),
(228,329,cs),
(246,309,o),
(278,314,o),
(302,314,cs),
(351,314,o),
(389,286,o),
(389,233,cs)
);
}
);
width = 529;
}
);
note = G.ss02;
},
{
glyphname = K.ss02;
layers = (
{
hints = (
{
horizontal = 1;
place = (315,71);
type = Stem;
},
{
horizontal = 1;
place = (-24,21);
target = up;
type = BottomGhost;
},
{
place = (390,89);
type = Stem;
},
{
place = (51,90);
type = Stem;
}
);
layerId = m01;
shapes = (
{
closed = 1;
nodes = (
(141,313,l),
(153,314,o),
(164,314,o),
(172,314,cs),
(216,314,o),
(259,315,o),
(303,315,cs),
(401,315,o),
(390,228,o),
(390,158,cs),
(390,126,o),
(391,96,o),
(370,70,cs),
(361,60,o),
(349,51,o),
(336,47,cs),
(327,44,o),
(317,45,o),
(307,43,cs),
(290,39,o),
(274,26,o),
(274,8,cs),
(274,-15,o),
(298,-28,o),
(319,-28,cs),
(403,-28,o),
(479,36,o),
(479,123,cs),
(479,235,ls),
(479,308,o),
(422,369,o),
(352,382,cs),
(343,384,o),
(333,385,o),
(324,386,c),
(339,408,o),
(351,434,o),
(363,461,cs),
(413,567,ls),
(422,585,o),
(463,666,o),
(463,679,cs),
(463,702,o),
(438,715,o),
(418,715,cs),
(404,715,o),
(390,710,o),
(381,700,cs),
(372,690,o),
(354,646,o),
(348,632,cs),
(285,497,ls),
(271,469,o),
(260,439,o),
(241,413,cs),
(230,397,o),
(221,388,o),
(202,387,cs),
(141,386,l),
(141,691,ls),
(141,714,o),
(116,727,o),
(96,727,cs),
(75,727,o),
(51,714,o),
(51,691,cs),
(51,12,ls),
(51,-11,o),
(75,-24,o),
(96,-24,cs),
(116,-24,o),
(141,-11,o),
(141,12,cs)
);
}
);
width = 529;
}
);
note = K.ss02;
},
{
glyphname = P.ss02;
layers = (
{
hints = (
{
horizontal = 1;
place = (652,72);
type = Stem;
},
{
horizontal = 1;
place = (314,72);
type = Stem;
},
{
horizontal = 1;
place = (-24,21);
target = up;
type = BottomGhost;
},
{
place = (389,90);
type = Stem;
},
{
place = (51,90);
type = Stem;
}
);
layerId = m01;
shapes = (
{
closed = 1;
nodes = (
(479,573,ls),
(479,660,o),
(403,724,o),
(319,724,cs),
(220,724,ls),
(189,724,o),
(163,720,o),
(135,706,c),
(127,718,o),
(110,724,o),
(96,724,cs),
(75,724,o),
(51,711,o),
(51,688,cs),
(51,12,ls),
(51,-11,o),
(75,-24,o),
(96,-24,cs),
(116,-24,o),
(141,-11,o),
(141,12,cs),
(141,232,l),
(142,239,o),
(141,246,o),
(143,252,c),
(147,274,o),
(163,297,o),
(184,307,cs),
(206,318,o),
(261,314,o),
(288,314,cs),
(350,314,o),
(397,321,o),
(442,369,cs),
(465,395,o),
(479,430,o),
(479,465,cs)
);
},
{
closed = 1;
nodes = (
(141,571,l),
(142,577,o),
(141,584,o),
(143,590,c),
(148,619,o),
(171,644,o),
(199,651,cs),
(214,654,o),
(231,653,o),
(245,653,cs),
(269,653,o),
(294,652,o),
(318,652,cs),
(359,652,o),
(389,612,o),
(389,573,cs),
(389,466,ls),
(389,433,o),
(368,400,o),
(336,389,cs),
(319,384,o),
(297,386,o),
(280,386,cs),
(229,386,o),
(182,388,o),
(141,371,c)
);
}
);
width = 529;
}
);
note = P.ss02;
},
{
glyphname = R.ss02;
layers = (
{
hints = (
{
horizontal = 1;
place = (652,72);
type = Stem;
},
{
horizontal = 1;
place = (314,72);
type = Stem;
},
{
horizontal = 1;
place = (-28,75);
type = Stem;
},
{
horizontal = 1;
place = (-24,21);
target = up;
type = BottomGhost;
},
{
place = (389,90);
type = Stem;
},
{
place = (51,90);
type = Stem;
}
);
layerId = m01;
shapes = (
{
closed = 1;
nodes = (
(480,218,o),
(481,243,o),
(476,264,cs),
(468,300,o),
(448,329,o),
(422,350,c),
(456,377,o),
(479,418,o),
(479,465,cs),
(479,573,ls),
(479,660,o),
(403,724,o),
(319,724,cs),
(169,724,ls),
(152,724,o),
(135,724,o),
(117,724,cs),
(93,724,o),
(51,723,o),
(51,688,cs),
(51,12,ls),
(51,-11,o),
(76,-24,o),
(96,-24,cs),
(115,-24,o),
(131,-15,o),
(139,3,cs),
(142,8,o),
(142,158,o),
(142,314,c),
(318,314,ls),
(353,314,o),
(380,285,o),
(387,252,cs),
(391,235,o),
(390,214,o),
(390,196,cs),
(390,172,o),
(389,148,o),
(389,124,cs),
(389,92,o),
(369,57,o),
(337,47,cs),
(327,44,o),
(317,45,o),
(307,43,cs),
(291,40,o),
(274,27,o),
(274,8,cs),
(274,-15,o),
(299,-28,o),
(319,-28,cs),
(403,-28,o),
(479,36,o),
(479,123,cs),
(479,147,o),
(480,172,o),
(480,196,cs)
);
},
{
closed = 1;
nodes = (
(318,652,ls),
(360,652,o),
(389,612,o),
(389,573,cs),
(389,466,ls),
(389,434,o),
(369,398,o),
(337,389,cs),
(328,387,o),
(320,387,o),
(312,386,c),
(142,386,l),
(141,512,o),
(141,626,o),
(141,652,c)
);
}
);
width = 530;
}
);
note = R.ss02;
},
{
glyphname = Y.ss02;
layers = (
{
hints = (
{
horizontal = 1;
place = (724,-20);
target = down;
type = TopGhost;
},
{
horizontal = 1;
place = (723,-20);
target = down;
type = TopGhost;
},
{
horizontal = 1;
place = (314,72);
type = Stem;
},
{
horizontal = 1;
place = (-24,72);
type = Stem;
},
{
place = (390,90);
type = Stem;
},
{
place = (51,90);
type = Stem;
}
);
layerId = m01;
shapes = (
{
closed = 1;
nodes = (
(390,128,ls),
(390,88,o),
(361,48,o),
(319,48,cs),
(213,48,ls),
(196,48,o),
(181,55,o),
(168,66,cs),
(140,92,o),
(142,122,o),
(142,156,cs),
(142,180,o),
(142,205,o),
(142,229,cs),
(142,256,o),
(123,271,o),
(97,271,cs),
(77,271,o),
(52,258,o),
(52,235,cs),
(52,127,ls),
(52,40,o),
(128,-24,o),
(212,-24,cs),
(320,-24,ls),
(404,-24,o),
(480,40,o),
(480,127,cs),
(480,667,ls),
(480,676,o),
(481,690,o),
(478,698,cs),
(471,715,o),
(452,723,o),
(435,723,cs),
(377,723,o),
(390,668,o),
(390,629,cs),
(390,467,l),
(389,461,o),
(389,454,o),
(388,448,cs),
(382,415,o),
(353,386,o),
(319,386,cs),
(212,386,ls),
(181,386,o),
(154,410,o),
(145,439,cs),
(137,465,o),
(141,507,o),
(141,534,cs),
(141,688,ls),
(141,711,o),
(117,724,o),
(96,724,cs),
(76,724,o),
(54,713,o),
(51,691,cs),
(50,683,o),
(50,674,o),
(50,666,cs),
(50,599,o),
(51,532,o),
(51,465,cs),
(51,378,o),
(127,314,o),
(211,314,cs),
(320,314,ls),
(345,314,o),
(369,319,o),
(390,329,c)
);
}
);
width = 531;
}
);
note = Y.ss02;
},
{
glyphname = a.ss02;
layers = (
{
hints = (
{
horizontal = 1;
place = (313,72);
type = Stem;
},
{
horizontal = 1;
place = (-23,72);
type = Stem;
},
{
place = (383,90);
type = Stem;
},
{
place = (51,90);
type = Stem;
}
);
layerId = m01;
shapes = (
{
closed = 1;
nodes = (
(125,385,o),
(51,322,o),
(51,236,cs),
(51,125,ls),
(51,40,o),
(125,-23,o),
(208,-23,cs),
(428,-23,ls),
(449,-23,o),
(473,-10,o),
(473,13,cs),
(473,334,ls),
(473,338,o),
(473,349,o),
(472,354,cs),
(465,385,o),
(433,385,o),
(407,385,cs),
(341,385,o),
(275,385,o),
(208,385,cs)
);
},
{
closed = 1;
nodes = (
(383,225,o),
(383,137,o),
(383,49,c),
(210,49,ls),
(169,49,o),
(141,88,o),
(141,126,cs),
(141,236,ls),
(141,274,o),
(169,313,o),
(210,313,cs),
(267,313,o),
(325,313,o),
(382,313,c)
);
}
);
width = 524;
}
);
note = a.ss02;
},
{
glyphname = b.ss02;
layers = (
{
hints = (
{
horizontal = 1;
place = (724,-20);
target = down;
type = TopGhost;
},
{
horizontal = 1;
place = (314,72);
type = Stem;
},
{
horizontal = 1;
place = (-24,72);
type = Stem;
},
{
place = (389,90);
type = Stem;
},
{
place = (51,90);
type = Stem;
}
);
layerId = m01;
shapes = (
{
closed = 1;
nodes = (
(479,235,ls),
(479,322,o),
(403,386,o),
(319,386,cs),
(211,386,ls),
(186,386,o),
(162,380,o),
(141,371,c),
(141,688,ls),
(141,711,o),
(116,724,o),
(96,724,cs),
(75,724,o),
(51,711,o),
(51,688,cs),
(51,127,ls),
(51,126,o),
(51,124,o),
(51,123,cs),
(53,38,o),
(128,-24,o),
(211,-24,cs),
(434,-24,ls),
(455,-24,o),
(479,-11,o),
(479,12,cs)
);
},
{
closed = 1;
nodes = (
(389,48,l),
(212,48,ls),
(170,48,o),
(141,88,o),
(141,128,cs),
(141,234,ls),
(141,274,o),
(170,314,o),
(212,314,cs),
(318,314,ls),
(360,314,o),
(389,274,o),
(389,234,cs)
);
}
);
width = 530;
}
);
note = b.ss02;
},
{
glyphname = c.ss02;
layers = (
{
hints = (
{
horizontal = 1;
place = (313,73);
type = Stem;
},
{
horizontal = 1;
place = (-25,73);
type = Stem;
},
{
place = (51,90);
type = Stem;
}
);
layerId = m01;
shapes = (
{
closed = 1;
nodes = (
(211,386,ls),
(127,386,o),
(51,322,o),
(51,235,cs),
(51,126,ls),
(51,39,o),
(127,-25,o),
(211,-25,cs),
(400,-25,ls),
(421,-25,o),
(445,-12,o),
(445,11,cs),
(445,45,o),
(404,48,o),
(379,48,cs),
(341,48,o),
(304,46,o),
(267,46,cs),
(253,46,o),
(205,46,o),
(193,50,cs),
(161,60,o),
(141,93,o),
(141,127,cs),
(141,234,ls),
(141,268,o),
(161,301,o),
(193,311,cs),
(205,315,o),
(253,315,o),
(267,315,cs),
(304,315,o),
(341,313,o),
(379,313,cs),
(404,313,o),
(445,316,o),
(445,350,cs),
(445,373,o),
(421,386,o),
(400,386,cs)
);
}
);
width = 496;
}
);
note = c.ss02;
},
{
glyphname = d.ss02;
layers = (
{
hints = (
{
horizontal = 1;
place = (724,-20);
target = down;
type = TopGhost;
},
{
horizontal = 1;
place = (314,72);
type = Stem;
},
{
horizontal = 1;
place = (-24,72);
type = Stem;
},
{
place = (389,90);
type = Stem;
},
{
place = (51,90);
type = Stem;
}
);
layerId = m01;
shapes = (
{
closed = 1;
nodes = (
(211,386,ls),
(127,386,o),
(51,322,o),
(51,235,cs),
(51,127,ls),
(51,40,o),
(127,-24,o),
(211,-24,cs),
(434,-24,ls),
(455,-24,o),
(479,-11,o),
(479,12,cs),
(479,688,ls),
(479,711,o),
(455,724,o),
(434,724,cs),
(414,724,o),
(399,715,o),
(391,697,cs),
(389,693,o),
(388,542,o),
(388,386,c)
);
},
{
closed = 1;
nodes = (
(388,314,l),
(389,188,o),
(389,74,o),
(389,48,c),
(212,48,ls),
(170,48,o),
(141,88,o),
(141,128,cs),
(141,234,ls),
(141,268,o),
(161,301,o),
(193,311,cs),
(205,315,o),
(262,315,o),
(277,315,cs),
(307,315,o),
(337,314,o),
(367,314,cs)
);
}
);
width = 530;
}
);
note = d.ss02;
},
{
glyphname = f.ss02;
layers = (
{
hints = (
{
horizontal = 1;
place = (652,72);
type = Stem;
},
{
horizontal = 1;
place = (313,72);
type = Stem;
},
{
horizontal = 1;
place = (-24,21);
target = up;
type = BottomGhost;
},
{
place = (251,90);
type = Stem;
},
{
place = (50,92);
type = Stem;
}
);
layerId = m01;
shapes = (
{
closed = 1;
nodes = (
(115,724,ls),
(89,724,o),
(51,722,o),
(51,688,cs),
(51,549,o),
(50,409,o),
(50,269,cs),
(50,250,o),
(50,8,o),
(53,3,cs),
(62,-15,o),
(76,-24,o),
(96,-24,cs),
(116,-24,o),
(131,-15,o),
(140,3,cs),
(141,6,o),
(142,115,o),
(142,243,cs),
(143,262,o),
(152,280,o),
(165,293,cs),
(194,321,o),
(238,313,o),
(276,313,cs),
(296,313,o),
(321,326,o),
(321,349,cs),
(321,395,o),
(242,385,o),
(211,385,cs),
(187,385,o),
(163,380,o),
(142,370,c),
(142,501,o),
(141,623,o),
(141,652,c),
(181,652,ls),
(216,652,o),
(244,623,o),
(250,591,cs),
(252,583,o),
(251,575,o),
(253,567,cs),
(258,547,o),
(277,537,o),
(297,537,cs),
(317,537,o),
(342,550,o),
(342,573,cs),
(342,660,o),
(266,724,o),
(182,724,cs)
);
}
);
width = 382;
}
);
note = f.ss02;
},
{
glyphname = g.ss03;
layers = (
{
hints = (
{
horizontal = 1;
place = (314,72);
type = Stem;
},
{
horizontal = 1;
place = (-24,72);
type = Stem;
},
{
horizontal = 1;
place = (-362,71);
type = Stem;
},
{
place = (389,90);
type = Stem;
},
{
place = (51,90);
type = Stem;
}
);
layerId = m01;
shapes = (
{
closed = 1;
nodes = (
(479,345,ls),
(479,378,o),
(452,386,o),
(423,386,cs),
(211,386,ls),
(126,386,o),
(51,322,o),
(51,235,cs),
(51,127,ls),
(51,95,o),
(62,64,o),
(81,39,cs),
(139,-37,o),
(222,-24,o),
(306,-24,cs),
(350,-24,o),
(383,-49,o),
(388,-95,cs),
(390,-108,o),
(389,-122,o),
(389,-136,cs),
(389,-161,o),
(389,-186,o),
(389,-210,cs),
(389,-261,o),
(353,-291,o),
(304,-291,cs),
(263,-291,o),
(194,-290,o),
(153,-290,c),
(252,-208,ls),
(266,-196,o),
(290,-172,o),
(290,-153,cs),
(290,-130,o),
(265,-117,o),
(245,-117,cs),
(233,-117,o),
(222,-121,o),
(213,-128,cs),
(205,-133,o),
(60,-300,o),
(55,-310,cs),
(52,-315,o),
(50,-320,o),
(50,-326,cs),
(50,-349,o),
(75,-362,o),
(95,-362,cs),
(234,-362,ls),
(254,-362,o),
(273,-363,o),
(293,-363,cs),
(312,-363,o),
(332,-362,o),
(351,-359,cs),
(422,-346,o),
(479,-285,o),
(479,-211,cs),
(479,-178,o),
(481,-120,o),
(478,-88,cs),
(473,-47,o),
(452,-13,o),
(422,12,c),
(471,50,o),
(479,94,o),
(479,152,cs)
);
},
{
closed = 1;
nodes = (
(286,50,o),
(252,48,o),
(222,48,cs),
(174,48,o),
(141,79,o),
(141,128,cs),
(141,234,ls),
(141,274,o),
(170,314,o),
(212,314,cs),
(271,314,o),
(330,314,o),
(389,314,c),
(389,128,ls),
(389,95,o),
(369,61,o),
(336,51,cs),
(330,49,o),
(324,49,o),
(318,48,c)
);
}
);
width = 530;
}
);
note = g.ss03;
},
{
glyphname = h.ss02;
layers = (
{
hints = (
{
horizontal = 1;
place = (725,-20);
target = down;
type = TopGhost;
},
{
horizontal = 1;
place = (312,72);
type = Stem;
},
{
horizontal = 1;
place = (-27,75);
type = Stem;
},
{
horizontal = 1;
place = (-24,21);
target = up;
type = BottomGhost;
},
{
place = (387,90);
type = Stem;
},
{
place = (51,91);
type = Stem;
}
);
layerId = m01;
shapes = (
{
closed = 1;
nodes = (
(50,267,o),
(50,8,o),
(53,3,cs),
(62,-16,o),
(75,-24,o),
(96,-24,cs),
(117,-24,o),
(141,-11,o),
(141,12,cs),
(141,112,o),
(142,212,o),
(143,312,c),
(317,312,ls),
(359,312,o),
(387,272,o),
(387,233,cs),
(387,124,ls),
(387,92,o),
(368,57,o),
(336,48,cs),
(326,45,o),
(317,46,o),
(308,44,cs),
(291,41,o),
(273,28,o),
(273,9,cs),
(273,-14,o),
(298,-27,o),
(318,-27,cs),
(402,-27,o),
(477,37,o),
(477,123,cs),
(477,234,ls),
(477,320,o),
(402,384,o),
(318,384,cs),
(143,384,l),
(142,394,o),
(142,403,o),
(142,413,cs),
(142,434,o),
(142,693,o),
(139,698,cs),
(130,716,o),
(117,725,o),
(96,725,cs),
(76,725,o),
(51,712,o),
(51,689,cs),
(51,555,o),
(50,422,o),
(50,288,cs)
);
}
);
width = 528;
}
);
note = h.ss02;
},
{
glyphname = i.ss02;
layers = (
{
hints = (
{
horizontal = 1;
place = (448,138);
type = Stem;
},
{
horizontal = 1;
place = (-36,622);
type = Stem;
},
{
place = (51,90);
type = Stem;
}
);
layerId = m01;
shapes = (
{
closed = 1;
nodes = (
(141,550,ls),
(141,573,o),
(116,586,o),
(96,586,cs),
(75,586,o),
(51,573,o),
(51,550,cs),
(51,484,ls),
(51,461,o),
(75,448,o),
(96,448,cs),
(116,448,o),
(141,461,o),
(141,484,cs)
);
},
{
closed = 1;
nodes = (
(141,349,ls),
(141,372,o),
(116,385,o),
(96,385,cs),
(75,385,o),
(51,372,o),
(51,349,cs),
(51,0,ls),
(51,-23,o),
(75,-36,o),
(96,-36,cs),
(116,-36,o),
(141,-23,o),
(141,0,cs)
);
}
);
width = 191;
}
);
note = i.ss02;
},
{
glyphname = n.ss02;
layers = (
{
hints = (
{
horizontal = 1;
place = (314,72);
type = Stem;
},
{
horizontal = 1;
place = (-26,75);
type = Stem;
},
{
horizontal = 1;
place = (-23,21);
target = up;
type = BottomGhost;
},
{
place = (382,90);
type = Stem;
},
{
place = (51,91);
type = Stem;
}
);
layerId = m01;
shapes = (
{
closed = 1;
nodes = (
(472,238,ls),
(472,310,o),
(415,370,o),
(346,383,cs),
(327,386,o),
(308,387,o),
(289,387,cs),
(225,387,o),
(160,386,o),
(96,386,cs),
(75,386,o),
(51,373,o),
(51,350,cs),
(51,250,o),
(50,150,o),
(50,50,cs),
(50,38,o),
(50,10,o),
(54,1,cs),
(62,-15,o),
(79,-23,o),
(96,-23,cs),
(113,-23,o),
(131,-15,o),
(139,1,cs),
(143,10,o),
(142,34,o),
(142,45,cs),
(142,134,o),
(141,224,o),
(141,314,c),
(249,314,ls),
(294,314,o),
(342,324,o),
(369,281,cs),
(377,268,o),
(382,252,o),
(382,237,cs),
(382,123,ls),
(382,92,o),
(362,58,o),
(331,49,cs),
(321,46,o),
(311,47,o),
(302,45,cs),
(285,41,o),
(268,28,o),
(268,10,cs),
(268,-13,o),
(293,-26,o),
(313,-26,cs),
(396,-26,o),
(472,37,o),
(472,122,cs)
);
}
);
width = 522;
}
);
note = n.ss02;
},
{
glyphname = p.ss02;
layers = (
{
hints = (
{
horizontal = 1;
place = (314,72);
type = Stem;
},
{
horizontal = 1;
place = (-24,72);
type = Stem;
},
{
horizontal = 1;
place = (-362,21);
target = up;
type = BottomGhost;
},
{
place = (389,90);
type = Stem;
},
{
place = (51,91);
type = Stem;
}
);
layerId = m01;
shapes = (
{
closed = 1;
nodes = (
(319,-24,ls),
(403,-24,o),
(479,40,o),
(479,127,cs),
(479,235,ls),
(479,308,o),
(423,370,o),
(352,383,cs),
(333,386,o),
(313,387,o),
(293,387,cs),
(228,387,o),
(162,386,o),
(96,386,cs),
(76,386,o),
(61,378,o),
(53,360,cs),
(50,354,o),
(50,102,o),
(50,81,cs),
(50,-55,o),
(51,-190,o),
(51,-326,cs),
(51,-349,o),
(76,-362,o),
(96,-362,cs),
(116,-362,o),
(131,-353,o),
(139,-335,cs),
(142,-330,o),
(142,-180,o),
(142,-24,c)
);
},
{
closed = 1;
nodes = (
(298,314,ls),
(331,314,o),
(352,313,o),
(373,284,cs),
(384,270,o),
(389,252,o),
(389,234,cs),
(389,128,ls),
(389,94,o),
(370,61,o),
(337,51,cs),
(325,47,o),
(269,47,o),
(255,47,cs),
(225,47,o),
(196,48,o),
(166,48,cs),
(142,48,l),
(142,173,o),
(141,287,o),
(141,314,c)
);
}
);
width = 530;
}
);
note = p.ss02;
},
{
glyphname = q.ss02;
layers = (
{
hints = (
{
horizontal = 1;
place = (314,72);
type = Stem;
},
{
horizontal = 1;
place = (-24,72);
type = Stem;
},
{
horizontal = 1;
place = (-362,21);
target = up;
type = BottomGhost;
},
{
place = (390,90);
type = Stem;
},
{
place = (51,90);
type = Stem;
}
);
layerId = m01;
shapes = (
{
closed = 1;
nodes = (
(481,101,o),
(481,354,o),
(478,359,cs),
(469,377,o),
(455,386,o),
(435,386,cs),
(211,386,ls),
(127,386,o),
(51,322,o),
(51,235,cs),
(51,127,ls),
(51,40,o),
(127,-24,o),
(211,-24,cs),
(319,-24,ls),
(344,-24,o),
(368,-19,o),
(389,-9,c),
(389,-31,o),
(389,-53,o),
(389,-75,cs),
(389,-95,o),
(389,-329,o),
(392,-335,cs),
(400,-353,o),
(416,-362,o),
(435,-362,cs),
(455,-362,o),
(480,-349,o),
(480,-326,cs),
(480,-191,o),
(481,-55,o),
(481,80,cs)
);
},
{
closed = 1;
nodes = (
(390,314,l),
(390,254,o),
(390,193,o),
(390,133,c),
(388,126,o),
(389,117,o),
(387,110,cs),
(380,77,o),
(353,48,o),
(318,48,cs),
(212,48,ls),
(170,48,o),
(141,88,o),
(141,128,cs),
(141,234,ls),
(141,280,o),
(172,314,o),
(218,314,cs)
);
}
);
width = 531;
}
);
note = q.ss02;
},
{
glyphname = s.ss02;
layers = (
{
hints = (
{
horizontal = 1;
place = (315,71);
type = Stem;
},
{
horizontal = 1;
place = (151,72);
type = Stem;
},
{
horizontal = 1;
place = (-24,72);
type = Stem;
},
{
place = (378,90);
type = Stem;
},
{
place = (50,90);
type = Stem;
}
);
layerId = m01;
shapes = (
{
closed = 1;
nodes = (
(206,386,ls),
(142,386,o),
(50,343,o),
(50,269,cs),
(50,245,o),
(59,222,o),
(74,204,cs),
(129,138,o),
(234,151,o),
(310,151,cs),
(340,151,o),
(378,139,o),
(378,103,cs),
(378,93,o),
(373,83,o),
(367,75,cs),
(340,39,o),
(285,48,o),
(245,48,cs),
(205,48,o),
(165,48,o),
(125,48,cs),
(100,48,o),
(61,46,o),
(61,12,cs),
(61,-11,o),
(86,-24,o),
(106,-24,cs),
(311,-24,ls),
(382,-24,o),
(468,24,o),
(468,103,cs),
(468,128,o),
(459,150,o),
(444,169,cs),
(389,236,o),
(283,223,o),
(207,223,cs),
(179,223,o),
(140,234,o),
(140,268,cs),
(140,278,o),
(146,286,o),
(152,293,cs),
(179,320,o),
(225,315,o),
(260,315,cs),
(298,315,o),
(336,314,o),
(373,314,cs),
(398,314,o),
(436,317,o),
(436,350,cs),
(436,373,o),
(412,386,o),
(391,386,cs)
);
}
);
width = 518;
}
);
note = s.ss02;
},
{
glyphname = u.ss02;
layers = (
{
hints = (
{
horizontal = 1;
place = (-25,72);
type = Stem;
},
{
place = (381,90);
type = Stem;
},
{
place = (51,89);
type = Stem;
}
);
layerId = m01;
shapes = (
{
closed = 1;
nodes = (
(381,85,o),
(354,47,o),
(314,47,cs),
(294,47,o),
(275,46,o),
(256,46,cs),
(242,46,o),
(204,46,o),
(192,50,cs),
(149,64,o),
(140,103,o),
(140,143,cs),
(140,212,o),
(141,281,o),
(141,349,cs),
(141,373,o),
(117,385,o),
(96,385,cs),
(76,385,o),
(54,374,o),
(51,353,cs),
(50,344,o),
(50,335,o),
(50,326,cs),
(50,310,o),
(51,294,o),
(51,278,cs),
(51,226,o),
(51,175,o),
(51,124,cs),
(51,93,o),
(61,63,o),
(79,39,cs),
(106,3,o),
(147,-19,o),
(191,-24,cs),
(227,-27,o),
(280,-25,o),
(315,-25,cs),
(398,-25,o),
(471,37,o),
(471,123,cs),
(471,190,o),
(472,258,o),
(472,325,cs),
(472,335,o),
(472,344,o),
(471,353,cs),
(468,375,o),
(446,386,o),
(426,386,cs),
(406,386,o),
(384,375,o),
(381,353,cs),
(380,345,o),
(380,337,o),
(380,329,cs),
(380,260,o),
(381,192,o),
(381,123,cs)
);
}
);
width = 522;
}
);
note = u.ss02;
},
{
glyphname = v.ss02;
layers = (
{
hints = (
{
horizontal = 1;
place = (-26,412);
type = Stem;
},
{
place = (378,91);
type = Stem;
},
{
place = (50,90);
type = Stem;
}
);
layerId = m01;
shapes = (
{
closed = 1;
nodes = (
(50,253,ls),
(50,212,o),
(67,162,o),
(93,130,cs),
(110,108,o),
(214,-7,o),
(231,-18,cs),
(239,-23,o),
(249,-26,o),
(260,-26,cs),
(284,-26,o),
(293,-14,o),
(309,3,cs),
(337,33,l),
(389,89,ls),
(401,103,o),
(414,116,o),
(426,130,cs),
(461,175,o),
(469,228,o),
(469,283,cs),
(469,305,o),
(468,328,o),
(468,350,cs),
(468,373,o),
(443,386,o),
(423,386,cs),
(392,386,o),
(378,369,o),
(378,340,cs),
(378,335,l),
(378,272,ls),
(378,202,o),
(362,181,o),
(316,132,cs),
(259,70,l),
(202,132,ls),
(157,181,o),
(140,202,o),
(140,272,cs),
(140,335,l),
(140,340,ls),
(140,369,o),
(126,386,o),
(95,386,cs),
(75,386,o),
(50,373,o),
(50,350,cs)
);
}
);
width = 519;
}
);
note = v.ss02;
},
{
glyphname = y.ss03;
layers = (
{
hints = (
{
horizontal = 1;
place = (-24,72);
type = Stem;
},
{
horizontal = 1;
place = (-362,71);
type = Stem;
},
{
place = (389,90);
type = Stem;
},
{
place = (51,90);
type = Stem;
}
);
layerId = m01;
shapes = (
{
closed = 1;
nodes = (
(51,127,ls),
(51,41,o),
(127,-24,o),
(211,-24,cs),
(312,-24,l),
(320,-25,o),
(328,-24,o),
(336,-27,cs),
(368,-36,o),
(388,-71,o),
(388,-104,cs),
(388,-210,ls),
(388,-261,o),
(353,-291,o),
(304,-291,cs),
(263,-291,o),
(195,-290,o),
(154,-290,c),
(252,-208,ls),
(265,-197,o),
(277,-183,o),
(285,-168,c),
(288,-164,o),
(290,-158,o),
(290,-153,cs),
(290,-130,o),
(265,-117,o),
(245,-117,cs),
(233,-117,o),
(222,-121,o),
(213,-128,cs),
(206,-133,o),
(60,-301,o),
(55,-310,cs),
(52,-315,o),
(50,-320,o),
(50,-326,cs),
(50,-349,o),
(75,-362,o),
(95,-362,cs),
(234,-362,ls),
(254,-362,o),
(273,-363,o),
(293,-363,cs),
(312,-363,o),
(332,-362,o),
(351,-359,cs),
(422,-346,o),
(478,-284,o),
(478,-211,cs),
(478,-103,ls),
(478,-56,o),
(456,-15,o),
(422,12,c),
(456,39,o),
(479,80,o),
(479,127,cs),
(479,350,ls),
(479,373,o),
(454,386,o),
(434,386,cs),
(417,386,o),
(399,378,o),
(392,362,cs),
(386,351,o),
(389,327,o),
(389,314,cs),
(389,152,ls),
(389,116,o),
(388,85,o),
(357,62,cs),
(346,53,o),
(332,48,o),
(318,48,cs),
(212,48,ls),
(198,48,o),
(184,53,o),
(173,62,cs),
(142,85,o),
(141,115,o),
(141,151,cs),
(141,201,ls),
(141,245,o),
(141,290,o),
(141,335,cs),
(141,365,o),
(128,383,o),
(96,383,cs),
(75,383,o),
(51,370,o),
(51,347,cs)
);
}
);
width = 529;
}
);
note = y.ss03;
},
{
glyphname = i.ss03;
layers = (
{
hints = (
{
horizontal = 1;
place = (-24,21);
target = up;
type = BottomGhost;
},
{
place = (83,90);
type = Stem;
}
);
layerId = m01;
shapes = (
{
closed = 1;
nodes = (
(107,385,o),
(83,372,o),
(83,349,cs),
(82,155,ls),
(81,56,o),
(136,-24,o),
(243,-24,cs),
(263,-24,o),
(288,-11,o),
(288,12,cs),
(288,70,o),
(186,19,o),
(174,118,cs),
(168,170,o),
(174,228,o),
(174,280,cs),
(174,319,o),
(185,385,o),
(128,385,cs)
);
},
{
closed = 1;
nodes = (
(90,586,o),
(50,559,o),
(50,517,cs),
(50,476,o),
(90,448,o),
(128,448,cs),
(167,448,o),
(207,476,o),
(207,517,cs),
(207,555,o),
(171,586,o),
(128,586,cs)
);
},
{
closed = 1;
nodes = (
(92,535,o),
(110,547,o),
(128,547,cs),
(146,547,o),
(166,535,o),
(166,517,cs),
(166,499,o),
(146,488,o),
(128,488,cs),
(110,488,o),
(92,499,o),
(92,517,cs)
);
}
);
width = 328;
}
);
note = i.ss03;
},
{
glyphname = S.ss02;
layers = (
{
hints = (
{
place = (652,72);
type = Stem;
},
{
place = (388,90);
type = Stem;
},
{
place = (314,72);
type = Stem;
},
{
place = (51,90);
type = Stem;
},
{
place = (-24,72);
type = Stem;
}
);
layerId = m01;
shapes = (
{
closed = 1;
nodes = (
(211,724,ls),
(127,724,o),
(51,660,o),
(51,573,cs),
(51,465,ls),
(51,434,o),
(62,403,o),
(81,377,cs),
(139,302,o),
(224,314,o),
(308,314,cs),
(355,314,o),
(388,281,o),
(388,234,cs),
(388,127,ls),
(388,112,o),
(384,96,o),
(376,83,cs),
(354,47,o),
(328,48,o),
(290,48,cs),
(231,48,l),
(97,48,ls),
(76,48,o),
(52,35,o),
(52,12,cs),
(52,-22,o),
(90,-24,o),
(115,-24,cs),
(189,-24,l),
(319,-24,ls),
(403,-24,o),
(478,40,o),
(478,127,cs),
(478,235,ls),
(478,266,o),
(467,297,o),
(448,323,cs),
(391,398,o),
(306,386,o),
(221,386,cs),
(174,386,o),
(141,419,o),
(141,466,cs),
(141,573,ls),
(141,588,o),
(145,604,o),
(153,617,cs),
(174,651,o),
(199,652,o),
(236,652,cs),
(287,652,l),
(409,652,ls),
(430,652,o),
(454,665,o),
(454,688,cs),
(454,722,o),
(416,724,o),
(391,724,cs)
);
}
);
width = 529;
}
);
note = S.ss02;
},
{
glyphname = V.ss02;
layers = (
{
hints = (
{
horizontal = 1;
place = (725,-20);
target = down;
type = TopGhost;
},
{
horizontal = 1;
place = (-25,21);
target = up;
type = BottomGhost;
},
{
place = (384,90);
type = Stem;
},
{
place = (50,90);
type = Stem;
}
);
layerId = m01;
shapes = (
{
closed = 1;
nodes = (
(50,234,ls),
(50,194,o),
(67,151,o),
(92,121,cs),
(109,102,o),
(222,-9,o),
(237,-18,cs),
(245,-23,o),
(255,-25,o),
(265,-25,cs),
(291,-25,o),
(301,-10,o),
(318,7,cs),
(363,51,o),
(433,109,o),
(459,166,cs),
(471,191,o),
(474,218,o),
(474,245,cs),
(474,393,o),
(474,541,o),
(474,689,cs),
(474,712,o),
(449,725,o),
(429,725,cs),
(409,725,o),
(388,714,o),
(384,693,cs),
(383,684,o),
(383,675,o),
(383,666,cs),
(383,525,o),
(384,385,o),
(384,244,cs),
(384,220,o),
(381,200,o),
(369,179,cs),
(353,149,o),
(291,94,o),
(264,68,c),
(236,94,o),
(171,150,o),
(155,180,cs),
(147,193,o),
(143,208,o),
(141,223,cs),
(136,259,o),
(140,296,o),
(140,332,cs),
(140,678,ls),
(140,708,o),
(127,725,o),
(95,725,cs),
(75,725,o),
(50,712,o),
(50,689,cs)
);
}
);
width = 525;
}
);
note = V.ss02;
},
{
glyphname = Q.ss02;
layers = (
{
hints = (
{
horizontal = 1;
place = (652,72);
type = Stem;
},
{
horizontal = 1;
place = (-24,72);
type = Stem;
},
{
horizontal = 1;
place = (-17,21);
target = up;
type = BottomGhost;
},
{
place = (389,90);
type = Stem;
},
{
place = (51,90);
type = Stem;
}
);
layerId = m01;
shapes = (
{
closed = 1;
nodes = (
(51,127,ls),
(51,40,o),
(127,-24,o),
(211,-24,cs),
(278,-24,l),
(294,-94,o),
(361,-142,o),
(434,-142,cs),
(455,-142,o),
(479,-129,o),
(479,-106,cs),
(479,-87,o),
(461,-74,o),
(444,-71,cs),
(437,-70,o),
(429,-70,o),
(422,-69,cs),
(396,-64,o),
(376,-41,o),
(368,-17,c),
(431,3,o),
(479,57,o),
(479,127,cs),
(479,573,ls),
(479,660,o),
(403,724,o),
(319,724,cs),
(211,724,ls),
(127,724,o),
(51,660,o),
(51,573,cs)
);
},
{
closed = 1;
nodes = (
(141,572,ls),
(141,612,o),
(170,652,o),
(212,652,cs),
(318,652,ls),
(360,652,o),
(389,612,o),
(389,572,cs),
(389,128,ls),
(389,88,o),
(360,48,o),
(318,48,cs),
(212,48,ls),
(170,48,o),
(141,88,o),
(141,128,cs)
);
}
);
width = 530;
}
);
note = Q.ss02;
},
